<svg width="32" height="32" viewBox="0 0 32 32" fill="none" xmlns="http://www.w3.org/2000/svg">
<path d="M31.574 29.517L21.6562 19.5992C23.2762 17.538 24.2435 14.9408 24.2435 12.1218C24.2435 5.43777 18.8057 0 12.1217 0C5.43778 0 0 5.43777 0 12.1217C0 18.8056 5.43778 24.2434 12.1217 24.2434C14.9406 24.2434 17.538 23.2761 19.5992 21.6561L29.517 31.5739C29.801 31.858 30.1732 32 30.5455 32C30.9178 32 31.29 31.858 31.574 31.5739C32.142 31.006 32.142 30.0849 31.574 29.517ZM2.9091 12.1217C2.9091 7.04184 7.04185 2.90909 12.1217 2.90909C17.2016 2.90909 21.3344 7.04184 21.3344 12.1217C21.3344 17.2016 17.2016 21.3343 12.1217 21.3343C7.04185 21.3343 2.9091 17.2016 2.9091 12.1217Z" fill="black"/>
</svg>
