<svg width="169" height="41" viewBox="0 0 169 41" fill="none" xmlns="http://www.w3.org/2000/svg">
<path d="M41.2714 40.2583C39.6977 40.2583 38.1928 40.2681 36.6879 40.2387C36.5502 40.2387 36.3535 40.0233 36.2846 39.8666C35.006 37.0463 33.747 34.2162 32.4978 31.3763C32.3503 31.0336 32.1634 30.9357 31.8093 30.9455C24.3635 30.9553 16.9276 30.9553 9.4818 30.9455C9.07853 30.9455 8.92116 31.0826 8.77362 31.4253C7.54413 34.2162 6.28514 36.9973 5.06549 39.7882C4.89828 40.1604 4.70156 40.2779 4.30812 40.2681C2.88192 40.2485 1.47538 40.2583 0 40.2583C0.0885231 40.0526 0.147538 39.8862 0.21639 39.7295C6.11793 26.6367 12.0096 13.5341 17.9013 0.431537C18.039 0.127965 18.1866 -0.00913216 18.5407 0.000660501C19.9374 0.0202458 21.3242 0.0202458 22.7209 0.000660501C23.0357 0.000660501 23.2127 0.0692091 23.3504 0.382574C29.2618 13.5439 35.1928 26.7052 41.114 39.8666C41.1632 39.9645 41.1927 40.0722 41.2714 40.2583ZM20.6357 4.60321C17.3407 12.0554 14.0948 19.4195 10.8392 26.8032C17.3997 26.8032 23.8816 26.8032 30.4421 26.8032C27.1667 19.4097 23.9209 12.0554 20.6357 4.60321Z" fill="black"/>
<path d="M69.3627 35.4893C69.048 35.881 68.7529 36.2923 68.4185 36.6644C66.4218 38.8775 63.8743 40.0918 60.9727 40.5912C57.7761 41.1494 54.6679 40.8752 51.7073 39.4944C48.2844 37.8982 45.9533 35.264 44.7533 31.7093C43.2976 27.3907 43.4058 23.0917 45.3632 18.9397C47.3893 14.6701 50.8713 12.2317 55.5236 11.4874C59.0842 10.9195 62.5071 11.4091 65.6743 13.2305C66.9628 13.9748 68.0546 14.954 69.0382 16.2271C69.0382 10.7726 69.0382 5.42579 69.0382 0.0496238C70.484 0.0496238 71.8709 0.0496238 73.2971 0.0496238C73.2971 13.4264 73.2971 26.813 73.2971 40.2289C72.0479 40.2289 70.7889 40.2289 69.4709 40.2289C69.4709 38.6719 69.4709 37.0952 69.4709 35.5186C69.4513 35.5088 69.4021 35.499 69.3627 35.4893ZM48.009 26.0785C48.1467 27.0578 48.2156 28.0566 48.4418 29.0163C49.1992 32.1793 50.9991 34.5492 54.0089 35.9201C56.0941 36.87 58.2974 37.0855 60.5399 36.7035C63.5596 36.1943 65.9595 34.696 67.5136 32.0422C69.1857 29.2024 69.4611 26.1275 68.6939 22.9742C67.9365 19.8602 66.1366 17.5491 63.1858 16.1977C60.9727 15.1891 58.6416 15.003 56.2712 15.4633C54.1368 15.8746 52.2975 16.8538 50.8319 18.4696C48.8746 20.6338 48.1172 23.2191 48.009 26.0785Z" fill="black"/>
<path d="M104.615 33.2467C105.47 34.0497 106.375 34.8919 107.319 35.7634C106.513 36.7525 105.608 37.5947 104.536 38.2312C98.959 41.5411 93.1951 41.972 87.3624 39.044C84.0576 37.389 81.9724 34.5785 80.9494 31.0532C79.7101 26.7738 79.9068 22.5532 81.9822 18.548C84.1067 14.4644 87.5887 12.1827 92.1033 11.4679C95.2213 10.9782 98.2901 11.2524 101.221 12.4765C105.47 14.2588 107.87 17.5589 108.805 21.9754C109.237 24.022 109.306 26.196 109.08 27.7041C100.946 27.7041 92.8115 27.7041 84.6281 27.7041C84.6871 28.8498 84.9231 29.8976 85.3362 30.9161C86.6149 34.0693 88.9952 35.9593 92.2902 36.6448C96.2049 37.4576 99.8737 36.8015 103.188 34.4904C103.444 34.3141 103.67 34.0987 103.906 33.8931C104.123 33.6972 104.349 33.4818 104.615 33.2467ZM105.028 24.0123C105.047 23.9339 105.057 23.9045 105.057 23.8752C105.038 23.6499 105.018 23.4247 104.979 23.1995C104.556 20.1735 103.061 17.8625 100.336 16.4034C98.1721 15.2478 95.8311 14.954 93.4213 15.2087C89.664 15.6102 86.9198 17.4414 85.4346 20.9765C85.0313 21.9362 84.7658 22.9351 84.6772 24.0221C91.4935 24.0123 98.2508 24.0123 105.028 24.0123Z" fill="black"/>
<path d="M168.902 27.7237C160.728 27.7237 152.604 27.7237 144.43 27.7237C144.489 28.8498 144.725 29.9074 145.129 30.9161C146.407 34.0693 148.788 35.9593 152.083 36.6448C155.997 37.4576 159.676 36.8113 162.981 34.4806C163.482 34.1281 163.915 33.6678 164.407 33.2174C165.292 34.0399 166.197 34.8821 167.122 35.7537C166.315 36.7427 165.4 37.5947 164.328 38.2312C158.751 41.5411 152.988 41.972 147.145 39.0342C143.86 37.3792 141.775 34.5883 140.752 31.0826C139.503 26.8032 139.689 22.5825 141.755 18.5773C143.87 14.484 147.352 12.1925 151.866 11.4777C155.004 10.9782 158.092 11.2524 161.033 12.4863C165.263 14.2686 167.653 17.5589 168.597 21.9558C169 23.8458 169.099 25.7456 168.902 27.7237ZM164.85 24.0221C164.859 23.9241 164.869 23.8947 164.859 23.8654C164.83 23.6206 164.82 23.3757 164.781 23.1407C164.338 20.1637 162.863 17.8723 160.178 16.4229C158.014 15.2576 155.673 14.9638 153.273 15.2087C149.496 15.6004 146.742 17.4414 145.247 20.9961C144.843 21.9558 144.568 22.9547 144.499 24.0221C151.306 24.0221 158.063 24.0221 164.85 24.0221Z" fill="black"/>
<path d="M115.798 0.0300385C117.214 0.0300385 118.591 0.0300385 119.988 0.0300385C119.988 13.4264 119.988 26.813 119.988 40.2289C118.601 40.2289 117.214 40.2289 115.798 40.2289C115.798 26.8423 115.798 13.4558 115.798 0.0300385Z" fill="black"/>
<path d="M133.08 11.8889C133.08 21.3584 133.08 30.7888 133.08 40.2387C131.673 40.2387 130.286 40.2387 128.87 40.2387C128.87 30.7888 128.87 21.3487 128.87 11.8889C130.276 11.8889 131.663 11.8889 133.08 11.8889Z" fill="black"/>
<path d="M101.438 0.0104532C99.8147 2.24318 98.2311 4.35839 96.7262 6.53236C96.2344 7.23743 95.7426 7.57038 94.8574 7.48225C93.9525 7.39412 93.0377 7.46267 92.064 7.46267C92.1623 7.27661 92.2115 7.13951 92.2804 7.022C93.5295 4.80886 94.7787 2.59571 96.018 0.372781C96.1754 0.0887944 96.3426 -0.00913216 96.6672 0.000660501C98.2311 0.0202458 99.7852 0.0104532 101.438 0.0104532Z" fill="black"/>
<path d="M130.975 6.27775C129.204 6.27775 127.906 5.00471 127.916 3.2812C127.926 1.55769 129.234 0.265062 130.975 0.265062C132.755 0.265062 134.083 1.5479 134.093 3.2812C134.093 5.0145 132.785 6.27775 130.975 6.27775Z" fill="black"/>
</svg>
