<svg width="29" height="59" viewBox="0 0 29 59" fill="none" xmlns="http://www.w3.org/2000/svg">
<path d="M0.715225 8.8762L7.57889 0.856812L8.28214 1.89366L2.61361 8.30949L2.66942 8.39178L10.7491 5.53085L11.5305 6.68291L5.88427 13.1316L5.94008 13.2139L13.9974 10.3201L14.7007 11.3569L4.71146 14.7681L3.99705 13.7148L9.45049 7.30071L9.40584 7.23488L1.42964 9.92951L0.715225 8.8762Z" fill="#0D224E"/>
<path d="M15.2565 21.8563C14.3013 22.3469 13.3872 22.5985 12.5142 22.611C11.6413 22.6234 10.8617 22.4258 10.1754 22.0182C9.48905 21.6107 8.94752 21.0206 8.55075 20.2482C8.15398 19.4758 7.98982 18.6919 8.05826 17.8967C8.12669 17.1014 8.42021 16.3526 8.9388 15.6503C9.4574 14.9479 10.1943 14.3514 11.1495 13.8608C12.1047 13.3701 13.0188 13.1186 13.8918 13.1061C14.7647 13.0937 15.5444 13.2912 16.2307 13.6988C16.917 14.1064 17.4585 14.6964 17.8553 15.4688C18.252 16.2413 18.4162 17.0251 18.3478 17.8204C18.2793 18.6157 17.9858 19.3645 17.4672 20.0668C16.9486 20.7691 16.2117 21.3656 15.2565 21.8563ZM14.7113 20.7949C15.4955 20.3921 16.09 19.9209 16.4948 19.3814C16.901 18.8449 17.1284 18.2828 17.1768 17.6953C17.2268 17.1107 17.111 16.5442 16.8293 15.9959C16.5476 15.4475 16.1539 15.0219 15.6481 14.7191C15.1438 14.4192 14.5545 14.2766 13.8802 14.2914C13.2074 14.309 12.4789 14.5193 11.6947 14.9221C10.9105 15.325 10.3152 15.7946 9.90898 16.3312C9.50424 16.8707 9.27688 17.4328 9.2269 18.0174C9.17844 18.6049 9.29505 19.1728 9.57672 19.7212C9.8584 20.2696 10.2514 20.6937 10.7557 20.9936C11.2615 21.2964 11.8508 21.439 12.5235 21.4213C13.1978 21.4065 13.9271 21.1978 14.7113 20.7949Z" fill="#0D224E"/>
<path d="M12.1536 25.9003L21.6594 22.2519L22.8921 25.4638C23.1771 26.2065 23.2842 26.8647 23.2134 27.4386C23.1456 28.0114 22.936 28.4965 22.5845 28.8941C22.233 29.2918 21.7772 29.5981 21.2171 29.813C20.6571 30.028 20.1165 30.1041 19.5954 30.0414C19.0743 29.9787 18.5991 29.7581 18.1699 29.3797C17.7437 29.0001 17.3893 28.442 17.1067 27.7056L16.1091 25.1064L17.1488 24.7073L18.1321 27.2694C18.3269 27.7769 18.5579 28.1568 18.8252 28.4093C19.0937 28.6648 19.3908 28.8099 19.7165 28.8447C20.0466 28.8813 20.4019 28.8266 20.7825 28.6805C21.1631 28.5344 21.4684 28.3356 21.6984 28.084C21.9285 27.8324 22.0609 27.5206 22.0957 27.1487C22.1335 26.7756 22.0539 26.3323 21.8567 25.8186L21.08 23.7949L12.5954 27.0514L12.1536 25.9003ZM18.1411 28.7357L14.7688 32.714L14.2557 31.3772L17.6423 27.4361L18.1411 28.7357Z" fill="#0D224E"/>
<path d="M15.4874 33.2194L15.8099 34.4095L18.9961 33.546L20.711 34.3999L17.0687 39.0544L17.4588 40.494L21.734 34.9056L27.2861 37.8308L26.8648 36.2761L20.7932 33.1826L20.762 33.0675L25.6373 31.7463L25.3148 30.5563L15.4874 33.2194Z" fill="#0D224E"/>
<path d="M26.6161 45.6769L26.8037 46.8553C28.3122 46.5598 29.2236 44.9799 28.9141 43.0357C28.6078 41.111 27.2477 39.777 25.5587 40.0459C24.2036 40.2616 23.5547 41.3717 23.3531 43.0147L23.1965 44.3082C23.0707 45.4156 22.8477 46.4177 21.8461 46.5772C20.7463 46.7522 19.8508 45.8074 19.6289 44.413C19.4382 43.215 19.7996 42.0701 20.923 41.7906L20.723 40.5337C19.092 40.9141 18.1852 42.4278 18.5291 44.5881C18.8979 46.9055 20.3839 48.0181 22.014 47.7586C23.8993 47.4585 24.2237 45.5744 24.3329 44.4898L24.4453 43.4248C24.5229 42.6473 24.725 41.3868 25.8052 41.2148C26.7675 41.0616 27.6152 41.8329 27.8277 43.1683C28.0216 44.3859 27.5891 45.4012 26.6161 45.6769Z" fill="#0D224E"/>
<path d="M25.4097 58.1893L24.3163 58.2147L24.2131 53.7613L25.3066 53.736L25.4097 58.1893Z" fill="#0D224E"/>
</svg>
