<svg width="36" height="21" viewBox="0 0 36 21" fill="none" xmlns="http://www.w3.org/2000/svg">
<path d="M0.269615 9.96972L1.44933 10.3281L2.77307 5.97077L7.96763 7.54884L6.64389 11.9062L7.82361 12.2646L10.7832 2.5224L9.60351 2.16401L8.28556 6.50232L3.09099 4.92425L4.40895 0.58593L3.22923 0.227539L0.269615 9.96972Z" fill="#0D224E"/>
<path d="M20.3063 11.144C19.866 12.1234 19.3086 12.8903 18.6342 13.4447C17.9597 13.9991 17.2272 14.3311 16.4366 14.4408C15.6459 14.5505 14.8546 14.4272 14.0626 14.0712C13.2706 13.7151 12.6532 13.2049 12.2105 12.5407C11.7678 11.8766 11.53 11.1082 11.4971 10.2358C11.4641 9.3634 11.6678 8.43747 12.1082 7.45805C12.5485 6.47862 13.1059 5.71171 13.7804 5.15732C14.4548 4.60293 15.1873 4.27089 15.978 4.16122C16.7686 4.05154 17.5599 4.17475 18.3519 4.53084C19.1439 4.88692 19.7613 5.39706 20.204 6.06125C20.6467 6.72545 20.8845 7.49375 20.9175 8.36618C20.9504 9.2386 20.7467 10.1645 20.3063 11.144ZM19.2181 10.6547C19.5796 9.85058 19.7502 9.11145 19.7299 8.4373C19.7126 7.7645 19.5396 7.18341 19.2109 6.69403C18.8852 6.20601 18.4412 5.83561 17.879 5.58281C17.3167 5.33002 16.7435 5.24308 16.1592 5.32201C15.5781 5.4023 15.0286 5.65856 14.5108 6.09079C13.9961 6.52439 13.558 7.14323 13.1964 7.94733C12.8349 8.75142 12.6628 9.48987 12.6801 10.1627C12.7004 10.8368 12.8734 11.4179 13.1991 11.9059C13.5278 12.3953 13.9733 12.7664 14.5356 13.0192C15.0978 13.272 15.6695 13.3582 16.2507 13.2779C16.835 13.199 17.3844 12.9428 17.8992 12.5092C18.4169 12.0769 18.8566 11.4588 19.2181 10.6547Z" fill="#0D224E"/>
<path d="M21.5048 16.4554L24.6586 6.38202L25.7132 7.05844L23.0269 15.1874L23.1106 15.2411L29.4124 9.43128L30.5842 10.1829L27.9314 18.3333L28.0151 18.3869L34.2834 12.5557L35.338 13.2321L27.4973 20.2992L26.426 19.6121L28.9151 11.5694L28.8482 11.5264L22.5761 17.1426L21.5048 16.4554Z" fill="#0D224E"/>
</svg>
