<svg width="53" height="21" viewBox="0 0 53 21" fill="none" xmlns="http://www.w3.org/2000/svg">
<path d="M7.03244 20.1957L8.23062 19.7665L7.61024 11.3703L7.68513 11.3435L12.5366 18.2242L13.7348 17.7951L12.9225 7.27076L11.743 7.69322L12.5361 16.2177L12.4425 16.2512L7.60555 9.17518L6.29503 9.64458L7.05065 18.1824L6.95704 18.216L2.15754 11.1265L0.978077 11.549L7.03244 20.1957Z" fill="#0D224E"/>
<path d="M17.266 15.9292L16.0064 16.2196L17.3616 5.45808L18.6018 5.17211L24.5327 14.2535L23.2731 14.544L18.3824 6.87577L18.3049 6.89364L17.266 15.9292ZM16.8374 11.9463L21.9144 10.7756L22.1601 11.8414L17.0831 13.0121L16.8374 11.9463Z" fill="#0D224E"/>
<path d="M23.988 4.52424L23.8535 3.4388L31.4318 2.4995L31.5664 3.58494L28.389 3.97876L29.5069 12.9978L28.2833 13.1495L27.1654 4.13042L23.988 4.52424Z" fill="#0D224E"/>
<path d="M42.2575 4.76746C41.8636 2.68237 40.1837 1.46235 38.1354 1.47816C35.5304 1.49827 33.6568 3.52132 33.6816 6.74282C33.7065 9.96431 35.6112 11.9582 38.2162 11.9381C40.2644 11.9223 41.9253 10.6764 42.287 8.58553L41.0541 8.59504C40.7667 10.0092 39.5595 10.7743 38.2073 10.7847C36.3579 10.799 34.8952 9.37841 34.8748 6.7336C34.8544 4.0888 36.295 2.64581 38.1443 2.63153C39.4966 2.6211 40.7154 3.36739 41.0246 4.77698L42.2575 4.76746Z" fill="#0D224E"/>
<path d="M43.4538 11.0329L44.6674 0.923706L45.8916 1.07066L45.3512 5.57243L50.7414 6.21951L51.2819 1.71774L52.506 1.8647L51.2925 11.9739L50.0683 11.827L50.6111 7.30546L45.2208 6.65838L44.678 11.1799L43.4538 11.0329Z" fill="#0D224E"/>
</svg>
