<svg width="43" height="47" viewBox="0 0 43 47" fill="none" xmlns="http://www.w3.org/2000/svg">
<path d="M10.9786 46.1212L0.618509 44.0988L1.17436 42.9761L9.55017 44.7483L9.59429 44.6592L3.12425 39.0374L3.74186 37.7899L12.1353 39.5265L12.1794 39.4374L5.69175 33.8512L6.2476 32.7284L14.1372 39.7409L13.5725 40.8815L5.30418 39.2956L5.26889 39.3669L11.5432 44.9805L10.9786 46.1212Z" fill="#0D224E"/>
<path d="M15.3664 26.6669C12.6806 24.888 9.96281 25.3539 8.52428 27.5259C7.08574 29.6978 7.71707 32.3819 10.403 34.1609C13.0888 35.9398 15.8066 35.4739 17.2451 33.3019C18.6837 31.13 18.0523 28.4459 15.3664 26.6669ZM14.7076 27.6617C16.9127 29.1222 17.3048 31.1231 16.2835 32.665C15.2623 34.2069 13.2669 34.6266 11.0618 33.1661C8.85675 31.7056 8.46464 29.7047 9.48589 28.1628C10.5071 26.6209 12.5025 26.2012 14.7076 27.6617Z" fill="#0D224E"/>
<path d="M20.0629 27.9124L12.1923 21.4531L14.3748 18.7937C14.8795 18.1788 15.3987 17.7603 15.9326 17.5381C16.464 17.3139 16.9893 17.2563 17.5087 17.3653C18.0281 17.4742 18.5197 17.719 18.9834 18.0996C19.4472 18.4802 19.7806 18.9124 19.9837 19.3964C20.1868 19.8804 20.2299 20.4025 20.1132 20.9627C19.9939 21.5208 19.684 22.1047 19.1836 22.7145L17.4174 24.8666L16.5565 24.1601L18.2975 22.0387C18.6423 21.6185 18.8584 21.2299 18.9457 20.8728C19.0351 20.5131 19.0143 20.1831 18.8835 19.8827C18.7522 19.5777 18.529 19.2959 18.2139 19.0373C17.8987 18.7787 17.5749 18.6116 17.2425 18.536C16.9101 18.4604 16.5736 18.4994 16.2332 18.653C15.8901 18.8046 15.5441 19.093 15.1951 19.5183L13.8199 21.1939L20.845 26.9593L20.0629 27.9124ZM19.5677 21.306L24.6929 22.2708L23.7846 23.3776L18.6846 22.3821L19.5677 21.306Z" fill="#0D224E"/>
<path d="M25.1772 20.9307L26.0554 20.0652L23.7381 17.714L23.6395 15.8009L29.4829 16.6871L30.5452 15.6401L23.5775 14.6614L23.3981 8.38836L22.2508 9.51906L22.5389 16.3272L22.4539 16.411L18.9082 12.8134L18.0301 13.6789L25.1772 20.9307Z" fill="#0D224E"/>
<path d="M30.1675 5.45499L31.098 4.70815C30.0938 3.5443 28.27 3.53551 26.7346 4.76778C25.2147 5.98761 24.73 7.83007 25.8004 9.16386C26.6593 10.234 27.9451 10.2475 29.4721 9.60844L30.6732 9.10343C31.6974 8.66392 32.6784 8.36112 33.3132 9.15209C34.0102 10.0206 33.6333 11.2666 32.5321 12.1503C31.5861 12.9096 30.4125 13.163 29.613 12.3257L28.6204 13.1224C29.759 14.3504 31.5232 14.3881 33.2292 13.0189C35.0593 11.5501 35.2893 9.70803 34.2562 8.42077C33.0612 6.93189 31.264 7.5838 30.2678 8.02637L29.2871 8.4565C28.5732 8.7744 27.3782 9.2235 26.6936 8.3705C26.0837 7.61055 26.3335 6.49209 27.3882 5.64568C28.3497 4.87395 29.4459 4.74646 30.1675 5.45499Z" fill="#0D224E"/>
<path d="M41.6262 0.285645L42.1895 1.22323L38.3709 3.51708L37.8077 2.57949L41.6262 0.285645Z" fill="#0D224E"/>
</svg>
