<svg width="31" height="83" viewBox="0 0 31 83" fill="none" xmlns="http://www.w3.org/2000/svg">
<path d="M25.5951 82.3172L24.7177 82.9703L20.1582 76.8445L21.0356 76.1914L22.9473 78.7598L30.2376 73.3335L30.9738 74.3226L23.6834 79.7488L25.5951 82.3172Z" fill="#0D224E"/>
<path d="M17.0367 66.6626L17.656 67.7288C17.386 67.9699 17.1806 68.2368 17.0401 68.5292C16.8978 68.8188 16.8128 69.1212 16.785 69.4363C16.7527 69.7502 16.7747 70.0652 16.8509 70.3812C16.9271 70.6972 17.0502 71.0014 17.22 71.2937C17.5296 71.8268 17.9448 72.2315 18.4656 72.5078C18.9847 72.7812 19.5806 72.8931 20.2532 72.8435C20.9242 72.7911 21.6408 72.5435 22.4032 72.1006C23.1655 71.6578 23.7357 71.158 24.1137 70.6012C24.49 70.0414 24.688 69.4684 24.7077 68.882C24.7257 68.2928 24.5799 67.7316 24.2703 67.1985C24.1005 66.9062 23.8972 66.6486 23.6605 66.4258C23.4238 66.203 23.1625 66.0271 22.8767 65.898C22.5863 65.7676 22.2802 65.6925 21.9581 65.6726C21.6315 65.6515 21.298 65.6976 20.9576 65.811L20.3384 64.7449C20.8349 64.5638 21.3225 64.476 21.8011 64.4817C22.2796 64.4873 22.7352 64.5754 23.1676 64.7458C23.5972 64.9179 23.9905 65.1628 24.3476 65.4806C24.7029 65.7954 25.0096 66.175 25.2677 66.6192C25.7038 67.3701 25.9083 68.1444 25.881 68.9421C25.8538 69.7399 25.5994 70.5029 25.1178 71.2311C24.6362 71.9593 23.9311 72.593 23.0025 73.1324C22.0739 73.6718 21.174 73.9702 20.3029 74.0278C19.4317 74.0853 18.6429 73.9283 17.9365 73.5567C17.23 73.1852 16.6587 72.6239 16.2226 71.873C15.9646 71.4288 15.7868 70.9743 15.6894 70.5097C15.5903 70.0421 15.5739 69.5783 15.6401 69.1182C15.7034 68.6598 15.8512 68.2213 16.0834 67.8028C16.3127 67.386 16.6305 67.0059 17.0367 66.6626Z" fill="#0D224E"/>
<path d="M22.0365 62.7598L12.659 66.7262L12.1787 65.5906L16.3547 63.8244L14.2398 58.8243L10.0639 60.5905L9.58356 59.455L18.9611 55.4886L19.4414 56.6242L15.2471 58.3982L17.362 63.3983L21.5562 61.6243L22.0365 62.7598Z" fill="#0D224E"/>
<path d="M15.9253 49.9733L5.99515 52.2233L5.72269 51.0208L10.1447 50.0189L8.945 44.7241L4.523 45.7261L4.25054 44.5236L14.1806 42.2736L14.4531 43.4761L10.0117 44.4824L11.2114 49.7772L15.6528 48.7709L15.9253 49.9733Z" fill="#0D224E"/>
<path d="M7.09698 32.2116C8.16586 32.1083 9.10825 32.2119 9.92414 32.5226C10.74 32.8333 11.3916 33.3047 11.879 33.9369C12.3663 34.5691 12.6518 35.3173 12.7354 36.1817C12.819 37.046 12.6822 37.8351 12.325 38.5489C11.9678 39.2628 11.4186 39.8503 10.6773 40.3116C9.93607 40.7728 9.03101 41.0552 7.96213 41.1585C6.89326 41.2619 5.95087 41.1582 5.13498 40.8475C4.31909 40.5368 3.66747 40.0654 3.18012 39.4332C2.69277 38.8011 2.40731 38.0528 2.32373 37.1885C2.24015 36.3241 2.37696 35.535 2.73415 34.8212C3.09135 34.1074 3.64056 33.5198 4.38181 33.0586C5.12305 32.5973 6.02811 32.315 7.09698 32.2116ZM7.21183 33.3993C6.33429 33.4841 5.60786 33.7025 5.03253 34.0545C4.45689 34.4032 4.0381 34.8416 3.77616 35.3698C3.51391 35.8946 3.41245 36.4638 3.47178 37.0774C3.53112 37.6911 3.73992 38.2319 4.0982 38.7001C4.45616 39.165 4.95119 39.515 5.5833 39.7503C6.21509 39.9822 6.96976 40.0557 7.84729 39.9709C8.72483 39.886 9.45142 39.6692 10.0271 39.3206C10.6024 38.9686 11.0212 38.5301 11.2834 38.0053C11.5454 37.4772 11.6467 36.9063 11.5873 36.2927C11.528 35.6791 11.3194 35.1398 10.9614 34.675C10.6031 34.2068 10.1081 33.8568 9.4763 33.6248C8.84419 33.3896 8.08936 33.3144 7.21183 33.3993Z" fill="#0D224E"/>
<path d="M11.1344 28.5764L0.82582 30.8464L0.888642 29.5952L9.27752 27.8858L9.28251 27.7865L1.10902 25.2058L1.17882 23.8155L9.56969 22.0664L9.57468 21.9671L1.3992 19.4262L1.46202 18.1749L11.4914 21.466L11.4276 22.7372L3.21149 24.5746L3.2075 24.6541L11.1983 27.3053L11.1344 28.5764Z" fill="#0D224E"/>
<path d="M2.07634 10.3351L12.1376 11.8971L11.9485 13.1154L1.88719 11.5534L2.07634 10.3351Z" fill="#0D224E"/>
<path d="M3.09273 7.72457L2.03598 7.4425L4.00536 0.0644531L5.06211 0.346527L4.23641 3.43993L13.0171 5.7837L12.6991 6.97495L3.91843 4.63117L3.09273 7.72457Z" fill="#0D224E"/>
</svg>
