<svg width="96" height="36" viewBox="0 0 96 36" fill="none" xmlns="http://www.w3.org/2000/svg">
<path d="M95.3606 28.5005L95.6426 29.5572L88.2646 31.5266L87.9825 30.4698L91.0759 29.6441L88.7321 20.8635L89.9234 20.5455L92.2672 29.3262L95.3606 28.5005Z" fill="#0D224E"/>
<path d="M79.3041 23.9358L82.711 33.9264L81.4606 34.0037L78.8252 25.8582L78.7259 25.8643L77.074 34.2749L75.6846 34.3607L73.0096 26.2177L72.9103 26.2238L71.2981 34.6319L70.0477 34.7092L72.1983 24.375L73.4686 24.2965L76.2121 32.256L76.2915 32.2511L78.0338 24.0143L79.3041 23.9358Z" fill="#0D224E"/>
<path d="M59.9108 29.7887C59.9811 28.7171 60.2354 27.8038 60.6737 27.0487C61.1119 26.2936 61.6822 25.7265 62.3847 25.3475C63.0872 24.9685 63.8717 24.8075 64.7382 24.8644C65.6047 24.9213 66.3614 25.1836 67.0083 25.6512C67.6552 26.1188 68.1464 26.7556 68.4821 27.5616C68.8178 28.3675 68.9505 29.3062 68.8801 30.3778C68.8097 31.4493 68.5554 32.3627 68.1172 33.1178C67.679 33.8729 67.1086 34.4399 66.4061 34.8189C65.7036 35.198 64.9192 35.359 64.0526 35.3021C63.1861 35.2452 62.4294 34.9829 61.7826 34.5153C61.1357 34.0476 60.6444 33.4108 60.3087 32.6049C59.973 31.799 59.8404 30.8602 59.9108 29.7887ZM61.1014 29.8669C61.0436 30.7466 61.142 31.4988 61.3966 32.1233C61.6479 32.7477 62.013 33.2317 62.492 33.5754C62.9677 33.9188 63.5131 34.1108 64.1282 34.1512C64.7434 34.1916 65.3109 34.0727 65.8307 33.7947C66.3472 33.5164 66.7725 33.0843 67.1066 32.4984C67.4374 31.9122 67.6317 31.1793 67.6895 30.2996C67.7472 29.4199 67.6505 28.6678 67.3992 28.0435C67.1446 27.4189 66.7795 26.9349 66.3038 26.5914C65.8248 26.2477 65.2778 26.0557 64.6626 26.0153C64.0475 25.9749 63.4816 26.0938 62.9651 26.3721C62.4453 26.6502 62.02 27.0823 61.6892 27.6684C61.3551 28.2543 61.1592 28.9871 61.1014 29.8669Z" fill="#0D224E"/>
<path d="M58.4403 25.0497L56.7242 35.0859L53.3331 34.506C52.549 34.372 51.9283 34.128 51.471 33.7741C51.0132 33.4234 50.703 32.9955 50.5406 32.4902C50.3781 31.985 50.3475 31.4367 50.4486 30.8454C50.5497 30.254 50.7602 29.7504 51.0802 29.3343C51.4001 28.9183 51.8324 28.6223 52.3769 28.4464C52.9209 28.2738 53.5817 28.2539 54.3592 28.3869L57.1035 28.8561L56.9158 29.9538L54.2107 29.4913C53.6749 29.3997 53.2303 29.4044 52.8768 29.5053C52.52 29.6057 52.2435 29.7871 52.0474 30.0495C51.8474 30.3145 51.713 30.648 51.6443 31.0498C51.5756 31.4517 51.5907 31.8157 51.6896 32.142C51.7885 32.4682 51.9889 32.7412 52.291 32.961C52.5924 33.184 53.0143 33.3419 53.5567 33.4346L55.6933 33.8L57.2249 24.8419L58.4403 25.0497ZM52.9453 28.7504L51.2464 23.8197L52.6577 24.061L54.3175 28.985L52.9453 28.7504Z" fill="#0D224E"/>
<path d="M50.1491 24.1207L48.9628 23.7847L48.0632 26.9609L46.4485 27.9917L44.3325 22.4732L42.8975 22.0668L45.4883 28.6085L40.1227 31.8632L41.6725 32.3022L47.4498 28.6887L47.5646 28.7212L46.1881 33.5812L47.3744 33.9172L50.1491 24.1207Z" fill="#0D224E"/>
<path d="M33.9717 27.3138C33.8413 27.8041 33.922 28.2569 34.2137 28.6721C34.5053 29.0873 34.9377 29.4086 35.5107 29.636C35.9297 29.8022 36.3232 29.8799 36.6912 29.869C37.0562 29.8569 37.3735 29.7671 37.6432 29.5996C37.9098 29.4308 38.1031 29.1954 38.2228 28.8935C38.3231 28.6409 38.3492 28.3999 38.3011 28.1704C38.2488 27.9429 38.151 27.7311 38.0076 27.5352C37.8631 27.3423 37.7013 27.1658 37.5224 27.0057C37.3422 26.8486 37.1735 26.7122 37.0163 26.5963L36.1577 25.9561C35.9369 25.7936 35.6982 25.5955 35.4415 25.3617C35.1817 25.1267 34.9523 24.8557 34.7533 24.5485C34.5499 24.2432 34.4179 23.9019 34.3571 23.5248C34.2964 23.1477 34.354 22.7373 34.53 22.2937C34.7329 21.7823 35.0503 21.3734 35.4821 21.0669C35.9109 20.7592 36.4292 20.5851 37.0372 20.5446C37.6421 20.5029 38.308 20.6263 39.0351 20.9148C39.7129 21.1837 40.2564 21.5259 40.6656 21.9414C41.0717 22.3557 41.3389 22.8147 41.4671 23.3185C41.5922 23.8209 41.5706 24.3383 41.4022 24.8705L40.2192 24.4012C40.3302 24.0316 40.3273 23.6882 40.2108 23.3709C40.0899 23.0555 39.8903 22.7766 39.612 22.5343C39.3295 22.2938 39.0003 22.099 38.6244 21.9499C38.1869 21.7763 37.766 21.6913 37.3617 21.6949C36.9561 21.7016 36.6009 21.7925 36.2961 21.9675C35.9901 22.1456 35.7687 22.4072 35.6318 22.7522C35.5071 23.0665 35.4934 23.357 35.5908 23.6239C35.6882 23.8907 35.8557 24.1426 36.0933 24.3795C36.3309 24.6164 36.5978 24.8471 36.8938 25.0715L37.9263 25.8662C38.5814 26.3722 39.0463 26.9079 39.3212 27.4733C39.596 28.0388 39.6069 28.6404 39.3539 29.2781C39.1437 29.808 38.8171 30.2133 38.3741 30.4939C37.9268 30.7765 37.4164 30.9305 36.8429 30.9561C36.265 30.9836 35.6742 30.8775 35.0704 30.638C34.4604 30.396 33.9616 30.0715 33.5739 29.6645C33.185 29.2606 32.9265 28.8157 32.7984 28.3299C32.6671 27.8428 32.6886 27.3574 32.8626 26.8738L33.9717 27.3138Z" fill="#0D224E"/>
<path d="M23.8945 19.8792L27.7709 22.0738L28.3098 21.122L24.4334 18.9274L23.8945 19.8792Z" fill="#0D224E"/>
<path d="M19.4616 12.3618L14.9103 21.8858L13.9624 21.0666L17.7749 13.401L17.6996 13.336L10.6372 18.1928L9.58401 17.2826L13.3664 9.59106L13.2912 9.52604L6.25886 14.4088L5.31096 13.5896L14.0751 7.70658L15.0381 8.5388L11.4329 16.1469L11.4931 16.1989L18.4986 11.5296L19.4616 12.3618Z" fill="#0D224E"/>
<path d="M10.9878 5.72247L11.8646 6.67228L1.84711 10.8313L0.983837 9.89613L5.92955 0.242798L6.80631 1.19261L2.57211 9.24192L2.62606 9.30037L10.9878 5.72247ZM7.74157 8.0695L4.20755 4.24104L5.01123 3.49916L8.54526 7.32762L7.74157 8.0695Z" fill="#0D224E"/>
</svg>
