<svg width="48" height="45" viewBox="0 0 48 45" fill="none" xmlns="http://www.w3.org/2000/svg">
<path d="M39.565 0.967041L47.6432 7.16486L46.8926 8.14307L43.2953 5.38311L39.9906 9.6904L43.5879 12.4504L42.8374 13.4286L34.7593 7.23076L35.5098 6.25255L39.1229 9.02462L42.4276 4.71733L38.8145 1.94525L39.565 0.967041Z" fill="#0D224E"/>
<path d="M31.3431 12.7169L38.1947 20.2484L37.2827 21.0781L34.2316 17.7242L30.2157 21.3775L33.2668 24.7314L32.3548 25.5611L25.5032 18.0295L26.4152 17.1999L29.4797 20.5685L33.4956 16.9152L30.4311 13.5466L31.3431 12.7169Z" fill="#0D224E"/>
<path d="M20.2855 29.1254C19.6665 28.2478 19.2901 27.3777 19.1561 26.515C19.0222 25.6523 19.1092 24.8527 19.4173 24.1163C19.7253 23.3799 20.2341 22.7615 20.9437 22.261C21.6533 21.7605 22.4067 21.4887 23.2037 21.4457C24.0008 21.4027 24.7832 21.589 25.5509 22.0047C26.3186 22.4204 27.012 23.0671 27.6309 23.9446C28.2498 24.8222 28.6263 25.6923 28.7602 26.555C28.8941 27.4177 28.8071 28.2173 28.4991 28.9537C28.1911 29.6901 27.6823 30.3085 26.9726 30.809C26.263 31.3095 25.5097 31.5813 24.7126 31.6243C23.9156 31.6673 23.1332 31.4809 22.3655 31.0652C21.5977 30.6495 20.9044 30.0029 20.2855 29.1254ZM21.2605 28.4377C21.7687 29.1581 22.318 29.6812 22.9087 30.0068C23.4966 30.3344 24.0849 30.4812 24.6734 30.4473C25.2593 30.4154 25.8041 30.2218 26.3079 29.8664C26.8116 29.5111 27.1782 29.0619 27.4076 28.5189C27.6343 27.9777 27.6934 27.3743 27.5849 26.7087C27.4737 26.0449 27.164 25.3528 26.6558 24.6323C26.1477 23.9119 25.5997 23.3879 25.0117 23.0603C24.4211 22.7347 23.8328 22.5878 23.247 22.6198C22.6584 22.6536 22.1123 22.8482 21.6085 23.2035C21.1047 23.5589 20.7395 24.0071 20.5128 24.5482C20.2834 25.0913 20.2243 25.6947 20.3355 26.3585C20.444 27.0241 20.7524 27.7172 21.2605 28.4377Z" fill="#0D224E"/>
<path d="M15.2916 27.2745L22.3914 35.0856L21.2748 35.6539L15.6169 29.2288L15.5283 29.2739L17.3581 37.6475L16.1175 38.2789L10.4241 31.8718L10.3355 31.9169L12.2008 40.2725L11.0843 40.8408L8.94685 30.5039L10.0811 29.9266L15.7642 36.1381L15.8351 36.102L14.1573 27.8518L15.2916 27.2745Z" fill="#0D224E"/>
<path d="M3.94606 44.1852L0.297707 34.6795L1.44879 34.2377L5.09715 43.7435L3.94606 44.1852Z" fill="#0D224E"/>
</svg>
