<svg width="21" height="39" viewBox="0 0 21 39" fill="none" xmlns="http://www.w3.org/2000/svg">
<path d="M10.1694 0.750352L20.6986 0.00366211L20.4545 1.23249L11.9062 1.70364L11.8868 1.80116L19.5981 5.54313L19.3268 6.90849L10.7708 7.41865L10.7514 7.51618L18.4704 11.2191L18.2263 12.448L8.78217 7.7332L9.03017 6.48487L17.4262 5.86181L17.4417 5.78379L9.92144 1.99868L10.1694 0.750352Z" fill="#0D224E"/>
<path d="M8.61621 11.3466L9.01059 10.1156L17.5663 16.7825L17.178 17.9945L6.34097 18.4484L6.73534 17.2175L15.826 16.9349L15.8503 16.8592L8.61621 11.3466ZM12.2582 13.0146L10.6686 17.9764L9.627 17.6427L11.2166 12.6809L12.2582 13.0146Z" fill="#0D224E"/>
<path d="M14.874 23.1808L15.8749 23.6219L12.7955 30.6098L11.7946 30.1687L13.0857 27.2389L4.76931 23.5741L5.26651 22.4458L13.5829 26.1106L14.874 23.1808Z" fill="#0D224E"/>
<path d="M5.44885 38.3899L6.07205 37.326C6.41491 37.4423 6.74823 37.4897 7.07202 37.4681C7.39413 37.4494 7.69917 37.3745 7.98713 37.2436C8.27628 37.1172 8.53962 36.9431 8.77717 36.7211C9.01472 36.4992 9.21894 36.2424 9.38981 35.9507C9.70141 35.4188 9.84928 34.8582 9.83342 34.2689C9.81588 33.6824 9.61999 33.1086 9.24573 32.5475C8.8698 31.9893 8.30148 31.4874 7.54076 31.0417C6.78004 30.5961 6.0643 30.3459 5.39352 30.291C4.72107 30.2389 4.12479 30.3486 3.60468 30.6201C3.08289 30.8945 2.66619 31.2976 2.35459 31.8296C2.18372 32.1213 2.05958 32.425 1.98218 32.7407C1.90478 33.0565 1.88023 33.3705 1.90853 33.6829C1.93801 33.9997 2.02334 34.3032 2.16453 34.5934C2.30689 34.888 2.51122 35.1556 2.77751 35.3961L2.15431 36.46C1.75222 36.1169 1.43585 35.7357 1.2052 35.3163C0.974551 34.8969 0.826961 34.4571 0.762433 33.9968C0.700765 33.5381 0.720339 33.0752 0.821157 32.608C0.920299 32.1437 1.0997 31.6899 1.35937 31.2466C1.79829 30.4973 2.37165 29.9382 3.07946 29.5692C3.78728 29.2002 4.57665 29.0461 5.44758 29.1069C6.31851 29.1676 7.21726 29.4694 8.14385 30.0122C9.07044 30.555 9.7732 31.1914 10.2521 31.9213C10.731 32.6513 10.9826 33.4152 11.007 34.213C11.0313 35.0109 10.824 35.7844 10.385 36.5337C10.1254 36.977 9.81728 37.3554 9.46075 37.6689C9.10255 37.9854 8.7069 38.228 8.27382 38.3968C7.84359 38.5673 7.38918 38.6545 6.91059 38.6584C6.43486 38.664 5.94762 38.5745 5.44885 38.3899Z" fill="#0D224E"/>
</svg>
