<svg width="183" height="183" viewBox="0 0 183 183" fill="none" xmlns="http://www.w3.org/2000/svg">
<path d="M172.169 96.7504L171.921 97.9988L179.442 101.784L179.426 101.862L171.03 102.485L170.782 103.733L180.226 108.448L180.47 107.219L172.751 103.516L172.771 103.419L181.327 102.909L181.598 101.543L173.887 97.8012L173.906 97.7037L182.454 97.2326L182.699 96.0037L172.169 96.7504Z" fill="#0D224E"/>
<path d="M170.616 107.347L173.05 109.202L171.794 113.122L168.735 113.218L168.341 114.449L179.178 113.995L179.566 112.783L171.011 106.116L170.616 107.347ZM173.973 109.905L177.85 112.859L177.826 112.935L172.954 113.086L173.973 109.905Z" fill="#0D224E"/>
<path d="M176.874 119.181L175.583 122.111L167.267 118.446L166.769 119.574L175.086 123.239L173.795 126.169L174.795 126.61L177.875 119.622L176.874 119.181Z" fill="#0D224E"/>
<path d="M167.449 134.39C169.442 135.119 171.35 134.301 172.385 132.534C173.702 130.286 172.924 127.641 170.144 126.012C167.364 124.384 164.676 124.999 163.359 127.247C162.324 129.014 162.544 131.079 164.154 132.46L164.778 131.396C163.71 130.425 163.671 128.996 164.355 127.83C165.289 126.234 167.259 125.705 169.541 127.042C171.823 128.379 172.325 130.355 171.39 131.951C170.706 133.118 169.441 133.782 168.072 133.326L167.449 134.39Z" fill="#0D224E"/>
<path d="M161.565 131.967L160.814 132.945L164.428 135.717L161.123 140.025L157.51 137.253L156.759 138.231L164.837 144.429L165.588 143.45L161.991 140.69L165.295 136.383L168.893 139.143L169.643 138.165L161.565 131.967Z" fill="#0D224E"/>
<path d="M153.343 143.717L152.431 144.547L155.496 147.915L151.48 151.569L148.415 148.2L147.503 149.03L154.355 156.561L155.267 155.732L152.216 152.378L156.232 148.724L159.283 152.078L160.195 151.249L153.343 143.717Z" fill="#0D224E"/>
<path d="M142.285 160.125C144.142 162.758 146.844 163.311 148.973 161.809C151.102 160.308 151.488 157.577 149.631 154.945C147.774 152.312 145.073 151.76 142.944 153.261C140.815 154.763 140.429 157.493 142.285 160.125ZM143.261 159.438C141.736 157.276 142.097 155.27 143.609 154.204C145.12 153.138 147.131 153.471 148.656 155.632C150.18 157.794 149.819 159.801 148.308 160.867C146.797 161.932 144.785 161.599 143.261 159.438Z" fill="#0D224E"/>
<path d="M137.292 158.275L136.157 158.852L137.835 167.102L137.764 167.138L132.081 160.927L130.947 161.504L133.084 171.841L134.201 171.273L132.335 162.917L132.424 162.872L138.118 169.279L139.358 168.648L137.528 160.274L137.617 160.229L143.275 166.654L144.391 166.086L137.292 158.275Z" fill="#0D224E"/>
<path d="M125.946 175.185L127.097 174.744L123.449 165.238L122.298 165.68L125.946 175.185Z" fill="#0D224E"/>
<path d="M123.361 175.5L120.267 176.326L117.923 167.546L116.732 167.863L119.076 176.644L115.983 177.47L116.265 178.527L123.643 176.557L123.361 175.5Z" fill="#0D224E"/>
<path d="M107.304 170.936L106.034 171.014L104.291 179.251L104.212 179.256L101.469 171.296L100.198 171.375L98.0477 181.709L99.2981 181.632L100.91 173.224L101.01 173.218L103.685 181.361L105.074 181.275L106.726 172.864L106.825 172.858L109.461 181.004L110.711 180.926L107.304 170.936Z" fill="#0D224E"/>
<path d="M87.9108 176.789C87.6996 180.003 89.4531 182.131 92.0526 182.302C94.6522 182.473 96.6689 180.592 96.8801 177.378C97.0912 174.163 95.3377 172.035 92.7382 171.864C90.1387 171.694 88.1219 173.574 87.9108 176.789ZM89.1014 176.867C89.2747 174.228 90.8171 172.894 92.6626 173.015C94.5081 173.136 95.8628 174.66 95.6895 177.3C95.5161 179.939 93.9737 181.272 92.1282 181.151C90.2828 181.03 88.928 179.506 89.1014 176.867Z" fill="#0D224E"/>
<path d="M86.4403 172.05L85.2249 171.842L84.5546 175.762L82.3592 175.387C82.271 175.372 82.1877 175.358 82.1035 175.348L80.6577 171.061L79.2464 170.82L80.8064 175.353C79.4528 175.571 78.6765 176.512 78.4486 177.845C78.1453 179.619 78.9809 181.104 81.3331 181.506L84.7242 182.086L86.4403 172.05ZM84.3669 176.86L83.6933 180.8L81.5567 180.435C79.9297 180.156 79.4382 179.255 79.6443 178.05C79.8504 176.844 80.6034 176.216 82.2107 176.491L84.3669 176.86Z" fill="#0D224E"/>
<path d="M78.1491 171.121L76.9628 170.785L76.0632 173.961L74.4485 174.992L72.3325 169.473L70.8975 169.067L73.4883 175.608L68.1227 178.863L69.6725 179.302L75.4498 175.689L75.5646 175.721L74.1881 180.581L75.3744 180.917L78.1491 171.121Z" fill="#0D224E"/>
<path d="M61.9717 174.314L60.8626 173.874C60.3469 175.322 61.2404 176.912 63.0704 177.638C64.8819 178.357 66.7232 177.868 67.3539 176.278C67.86 175.003 67.2364 173.878 65.9263 172.866L64.8938 172.071C64.0057 171.398 63.2577 170.695 63.6318 169.752C64.0425 168.717 65.312 168.429 66.6244 168.95C67.752 169.397 68.5521 170.292 68.2192 171.401L69.4022 171.871C69.9073 170.274 69.0684 168.721 67.0351 167.915C64.8539 167.049 63.1387 167.759 62.53 169.294C61.826 171.068 63.2807 172.309 64.1577 172.956L65.0163 173.596C65.6453 174.06 66.6262 174.877 66.2228 175.894C65.8635 176.799 64.7677 177.135 63.5107 176.636C62.3647 176.181 61.7122 175.291 61.9717 174.314Z" fill="#0D224E"/>
<path d="M51.8945 166.879L55.7709 169.074L56.3098 168.122L52.4334 165.927L51.8945 166.879Z" fill="#0D224E"/>
<path d="M47.4616 159.362L46.4986 158.53L39.4931 163.199L39.4329 163.147L43.0381 155.539L42.0751 154.707L33.311 160.59L34.2589 161.409L41.2912 156.526L41.3664 156.591L37.584 164.283L38.6372 165.193L45.6996 160.336L45.7749 160.401L41.9624 168.067L42.9103 168.886L47.4616 159.362Z" fill="#0D224E"/>
<path d="M38.9878 152.722L36.1743 153.926L33.3822 150.901L34.8063 148.193L33.9295 147.243L28.9838 156.896L29.8471 157.831L39.8646 153.672L38.9878 152.722ZM35.1076 154.383L30.6261 156.3L30.5721 156.242L32.8415 151.928L35.1076 154.383Z" fill="#0D224E"/>
<path d="M25.5951 152.317L23.6834 149.749L30.9738 144.323L30.2376 143.334L22.9473 148.76L21.0356 146.191L20.1582 146.844L24.7177 152.97L25.5951 152.317Z" fill="#0D224E"/>
<path d="M17.0367 136.663C15.4209 138.038 15.1938 140.102 16.2226 141.873C17.5311 144.126 20.2167 144.75 23.0025 143.132C25.7882 141.514 26.5761 138.872 25.2677 136.619C24.2389 134.848 22.3337 134.023 20.3384 134.745L20.9576 135.811C22.3284 135.36 23.5911 136.029 24.2703 137.199C25.1992 138.798 24.6902 140.772 22.4032 142.101C20.1161 143.429 18.1489 142.893 17.22 141.294C16.5407 140.124 16.5849 138.696 17.656 137.729L17.0367 136.663Z" fill="#0D224E"/>
<path d="M22.0365 132.76L21.5562 131.624L17.362 133.398L15.2471 128.398L19.4414 126.624L18.9611 125.489L9.58356 129.455L10.0639 130.59L14.2398 128.824L16.3547 133.824L12.1787 135.591L12.659 136.726L22.0365 132.76Z" fill="#0D224E"/>
<path d="M15.9253 119.973L15.6528 118.771L11.2114 119.777L10.0117 114.482L14.4531 113.476L14.1806 112.274L4.25054 114.524L4.523 115.726L8.945 114.724L10.1447 120.019L5.72269 121.021L5.99515 122.223L15.9253 119.973Z" fill="#0D224E"/>
<path d="M7.09698 102.212C3.89035 102.522 2.07299 104.595 2.32373 107.188C2.57447 109.781 4.7555 111.469 7.96213 111.158C11.1688 110.848 12.9861 108.775 12.7354 106.182C12.4847 103.589 10.3036 101.902 7.09698 102.212ZM7.21183 103.399C9.84443 103.145 11.4093 104.452 11.5873 106.293C11.7653 108.134 10.4799 109.716 7.84729 109.971C5.21469 110.225 3.64979 108.918 3.47178 107.077C3.29378 105.237 4.57922 103.654 7.21183 103.399Z" fill="#0D224E"/>
<path d="M11.1344 98.5764L11.1983 97.3052L3.2075 94.6541L3.21149 94.5746L11.4276 92.7371L11.4914 91.466L1.46202 88.1749L1.3992 89.4261L9.57468 91.9671L9.56969 92.0664L1.17882 93.8155L1.10902 95.2058L9.28251 97.7865L9.27752 97.8858L0.888642 99.5951L0.82582 100.846L11.1344 98.5764Z" fill="#0D224E"/>
<path d="M2.07634 80.3351L1.88719 81.5534L11.9485 83.1154L12.1376 81.8971L2.07634 80.3351Z" fill="#0D224E"/>
<path d="M3.09273 77.7246L3.91843 74.6312L12.6991 76.9749L13.0171 75.7837L4.23641 73.4399L5.06211 70.3465L4.00536 70.0644L2.03598 77.4425L3.09273 77.7246Z" fill="#0D224E"/>
<path d="M14.9786 66.1212L15.5432 64.9806L9.26889 59.3669L9.30418 59.2956L17.5725 60.8815L18.1372 59.7409L10.2476 52.7285L9.69175 53.8513L16.1794 59.4374L16.1353 59.5265L7.74186 57.7899L7.12425 59.0374L13.5943 64.6592L13.5502 64.7483L5.17436 62.9761L4.61851 64.0989L14.9786 66.1212Z" fill="#0D224E"/>
<path d="M19.3664 46.667C16.6806 44.888 13.9628 45.354 12.5243 47.5259C11.0857 49.6978 11.7171 52.382 14.403 54.1609C17.0888 55.9399 19.8066 55.4739 21.2451 53.302C22.6837 51.1301 22.0523 48.4459 19.3664 46.667ZM18.7076 47.6617C20.9127 49.1222 21.3048 51.1232 20.2835 52.6651C19.2623 54.207 17.2669 54.6266 15.0618 53.1661C12.8567 51.7056 12.4646 49.7047 13.4859 48.1628C14.5071 46.6209 16.5025 46.2012 18.7076 47.6617Z" fill="#0D224E"/>
<path d="M24.0629 47.9125L24.845 46.9594L21.7706 44.4362L23.1836 42.7145C23.2404 42.6453 23.294 42.58 23.3437 42.5115L27.7846 43.3776L28.6929 42.2708L23.9814 41.3819C24.4625 40.0982 24.0287 38.9575 22.9834 38.0996C21.5922 36.9579 19.8887 36.949 18.3748 38.7937L16.1923 41.4531L24.0629 47.9125ZM20.9098 43.7297L17.8199 41.1939L19.1951 39.5183C20.2422 38.2424 21.2685 38.2615 22.2139 39.0373C23.1593 39.8132 23.332 40.7782 22.2975 42.0388L20.9098 43.7297Z" fill="#0D224E"/>
<path d="M29.1772 40.9307L30.0554 40.0652L27.7381 37.7141L27.6395 35.8009L33.4829 36.6871L34.5452 35.6402L27.5775 34.6614L27.3981 28.3884L26.2508 29.5191L26.5389 36.3273L26.4539 36.411L22.9082 32.8135L22.0301 33.6789L29.1772 40.9307Z" fill="#0D224E"/>
<path d="M34.1675 25.455L35.098 24.7082C34.0939 23.5443 32.27 23.5355 30.7346 24.7678C29.2147 25.9876 28.73 27.8301 29.8004 29.1639C30.6593 30.234 31.9451 30.2475 33.4721 29.6085L34.6732 29.1035C35.6974 28.6639 36.6784 28.3612 37.3132 29.1521C38.0102 30.0206 37.6333 31.2666 36.5321 32.1504C35.5861 32.9097 34.4125 33.1631 33.613 32.3258L32.6204 33.1224C33.759 34.3505 35.5232 34.3881 37.2292 33.0189C39.0593 31.5501 39.2893 29.7081 38.2562 28.4208C37.0612 26.9319 35.264 27.5838 34.2678 28.0264L33.2871 28.4565C32.5732 28.7744 31.3782 29.2235 30.6936 28.3705C30.0837 27.6106 30.3335 26.4921 31.3882 25.6457C32.3497 24.874 33.4459 24.7465 34.1675 25.455Z" fill="#0D224E"/>
<path d="M45.6262 20.2857L41.8077 22.5795L42.3709 23.5171L46.1895 21.2233L45.6262 20.2857Z" fill="#0D224E"/>
<path d="M54.0324 20.1957L55.2306 19.7665L54.6102 11.3703L54.6851 11.3435L59.5366 18.2242L60.7348 17.7951L59.9225 7.27076L58.743 7.69322L59.5361 16.2177L59.4425 16.2512L54.6055 9.17518L53.295 9.64458L54.0507 18.1824L53.957 18.216L49.1575 11.1265L47.9781 11.549L54.0324 20.1957Z" fill="#0D224E"/>
<path d="M64.266 15.9292L64.616 12.8892L68.6272 11.9643L70.2731 14.544L71.5327 14.2535L65.6018 5.17211L64.3616 5.45808L63.0064 16.2196L64.266 15.9292ZM64.7481 11.7363L65.3049 6.89364L65.3824 6.87577L68.0036 10.9856L64.7481 11.7363Z" fill="#0D224E"/>
<path d="M70.988 4.52424L74.1654 4.13042L75.2833 13.1495L76.5069 12.9978L75.389 3.97876L78.5664 3.58494L78.4318 2.4995L70.8535 3.4388L70.988 4.52424Z" fill="#0D224E"/>
<path d="M89.2575 4.76746C88.8636 2.68237 87.1837 1.46235 85.1354 1.47816C82.5304 1.49827 80.6568 3.52132 80.6816 6.74282C80.7065 9.96431 82.6112 11.9582 85.2162 11.9381C87.2644 11.9223 88.9253 10.6764 89.287 8.58553L88.0541 8.59504C87.7667 10.0092 86.5595 10.7743 85.2073 10.7847C83.3579 10.799 81.8952 9.37841 81.8748 6.7336C81.8544 4.0888 83.295 2.64581 85.1443 2.63153C86.4966 2.6211 87.7154 3.36739 88.0246 4.77698L89.2575 4.76746Z" fill="#0D224E"/>
<path d="M90.4538 11.0329L91.678 11.1799L92.2208 6.65838L97.6111 7.30546L97.0683 11.827L98.2925 11.9739L99.506 1.8647L98.2819 1.71774L97.7414 6.21951L92.3512 5.57243L92.8916 1.07066L91.6674 0.923706L90.4538 11.0329Z" fill="#0D224E"/>
<path d="M104.27 11.9698L105.449 12.3282L106.773 7.97087L111.968 9.54895L110.644 13.9063L111.824 14.2647L114.783 4.5225L113.604 4.16411L112.286 8.50242L107.091 6.92435L108.409 2.58603L107.229 2.22764L104.27 11.9698Z" fill="#0D224E"/>
<path d="M124.306 13.1441C125.627 10.2058 124.728 7.5992 122.352 6.53094C119.976 5.46268 117.429 6.51987 116.108 9.45815C114.787 12.3964 115.687 15.003 118.063 16.0713C120.439 17.1395 122.985 16.0823 124.306 13.1441ZM123.218 12.6548C122.134 15.0671 120.222 15.7777 118.536 15.0193C116.849 14.2609 116.112 12.3597 117.196 9.94743C118.281 7.53514 120.192 6.82453 121.879 7.58291C123.566 8.3413 124.303 10.2425 123.218 12.6548Z" fill="#0D224E"/>
<path d="M125.505 18.4555L126.576 19.1427L132.848 13.5265L132.915 13.5695L130.426 21.6122L131.497 22.2993L139.338 15.2322L138.283 14.5558L132.015 20.387L131.931 20.3334L134.584 12.183L133.412 11.4314L127.111 17.2412L127.027 17.1875L129.713 9.05854L128.659 8.38212L125.505 18.4555Z" fill="#0D224E"/>
<path d="M145.644 19.5172L144.68 18.749L138.336 26.7128L139.3 27.481L145.644 19.5172Z" fill="#0D224E"/>
<path d="M147.048 21.3854L149.337 23.6245L142.981 30.1204L143.862 30.9827L150.218 24.4868L152.507 26.726L153.271 25.9442L147.813 20.6036L147.048 21.3854Z" fill="#0D224E"/>
<path d="M151.715 37.8763L152.43 38.9296L160.406 36.235L160.45 36.3008L154.997 42.7149L155.711 43.7682L165.701 40.357L164.997 39.3202L156.94 42.214L156.884 42.1317L162.53 35.683L161.749 34.5309L153.669 37.3919L153.614 37.3096L159.282 30.8938L158.579 29.8569L151.715 37.8763Z" fill="#0D224E"/>
<path d="M166.256 50.8564C169.122 49.3844 170.046 46.7862 168.855 44.4689C167.665 42.1517 165.015 41.3889 162.15 42.8609C159.284 44.3328 158.36 46.931 159.551 49.2483C160.741 51.5656 163.391 52.3284 166.256 50.8564ZM165.711 49.795C163.359 51.0035 161.422 50.3664 160.577 48.7213C159.732 47.0762 160.342 45.1307 162.695 43.9222C165.047 42.7138 166.984 43.3508 167.829 44.9959C168.674 46.641 168.064 48.5866 165.711 49.795Z" fill="#0D224E"/>
<path d="M163.154 54.9004L163.595 56.0515L167.309 54.6263L168.107 56.7057C168.139 56.7892 168.169 56.8681 168.204 56.9453L165.256 60.3773L165.769 61.7141L168.871 58.058C169.749 59.1108 170.955 59.2977 172.217 58.8131C173.897 58.1682 174.747 56.6918 173.892 54.4639L172.659 51.252L163.154 54.9004ZM168.348 54.2273L172.08 52.795L172.857 54.8187C173.448 56.3597 172.924 57.2424 171.782 57.6806C170.641 58.1188 169.716 57.7919 169.132 56.2695L168.348 54.2273Z" fill="#0D224E"/>
<path d="M166.487 62.2195L166.81 63.4095L169.996 62.5461L171.711 63.4L168.069 68.0545L168.459 69.4941L172.734 63.9057L178.286 66.8309L177.865 65.2762L171.793 62.1827L171.762 62.0676L176.637 60.7464L176.315 59.5564L166.487 62.2195Z" fill="#0D224E"/>
<path d="M177.616 74.677L177.804 75.8554C179.312 75.5599 180.224 73.98 179.914 72.0358C179.608 70.1111 178.248 68.7771 176.559 69.0459C175.204 69.2616 174.555 70.3718 174.353 72.0148L174.197 73.3083C174.071 74.4157 173.848 75.4178 172.846 75.5772C171.746 75.7523 170.851 74.8075 170.629 73.4131C170.438 72.2151 170.8 71.0702 171.923 70.7907L171.723 69.5338C170.092 69.9142 169.185 71.4278 169.529 73.5882C169.898 75.9056 171.384 77.0182 173.014 76.7587C174.899 76.4586 175.224 74.5745 175.333 73.4899L175.445 72.4249C175.523 71.6474 175.725 70.3868 176.805 70.2149C177.767 70.0617 178.615 70.833 178.828 72.1684C179.022 73.386 178.589 74.4013 177.616 74.677Z" fill="#0D224E"/>
<path d="M176.41 87.1894L176.307 82.7361L175.213 82.7614L175.316 87.2148L176.41 87.1894Z" fill="#0D224E"/>
</svg>
