<svg width="16" height="16" viewBox="0 0 16 16" fill="none" xmlns="http://www.w3.org/2000/svg">
<path fill-rule="evenodd" clip-rule="evenodd" d="M2.66675 8.00016C2.66675 7.63197 2.96522 7.3335 3.33341 7.3335H12.6667C13.0349 7.3335 13.3334 7.63197 13.3334 8.00016C13.3334 8.36835 13.0349 8.66683 12.6667 8.66683H3.33341C2.96522 8.66683 2.66675 8.36835 2.66675 8.00016Z" fill="white"/>
<path fill-rule="evenodd" clip-rule="evenodd" d="M7.52851 2.86177C7.78886 2.60142 8.21097 2.60142 8.47132 2.86177L13.138 7.52843C13.3983 7.78878 13.3983 8.21089 13.138 8.47124L8.47132 13.1379C8.21097 13.3983 7.78886 13.3983 7.52851 13.1379C7.26816 12.8776 7.26816 12.4554 7.52851 12.1951L11.7238 7.99984L7.52851 3.80458C7.26816 3.54423 7.26816 3.12212 7.52851 2.86177Z" fill="white"/>
</svg>
