<svg width="32" height="32" viewBox="0 0 32 32" fill="none" xmlns="http://www.w3.org/2000/svg">
<g id="Fether Icons /arrow-right">
<path id="Vector (Stroke)" fill-rule="evenodd" clip-rule="evenodd" d="M5.33325 16C5.33325 15.2636 5.93021 14.6666 6.66659 14.6666H25.3333C26.0696 14.6666 26.6666 15.2636 26.6666 16C26.6666 16.7363 26.0696 17.3333 25.3333 17.3333H6.66659C5.93021 17.3333 5.33325 16.7363 5.33325 16Z" fill="white"/>
<path id="Vector (Stroke)_2" fill-rule="evenodd" clip-rule="evenodd" d="M15.0573 5.7239C15.578 5.2032 16.4222 5.2032 16.9429 5.7239L26.2762 15.0572C26.7969 15.5779 26.7969 16.4222 26.2762 16.9428L16.9429 26.2762C16.4222 26.7969 15.578 26.7969 15.0573 26.2762C14.5366 25.7555 14.5366 24.9113 15.0573 24.3906L23.4478 16L15.0573 7.60952C14.5366 7.08882 14.5366 6.2446 15.0573 5.7239Z" fill="white"/>
</g>
</svg>
