<svg width="200" height="40" viewBox="0 0 200 40" fill="none" xmlns="http://www.w3.org/2000/svg">
<path d="M15.9262 27.2004C15.9262 27.947 15.6669 28.6004 15.1484 29.1604C14.6299 29.7204 14.0249 30.0004 13.3336 30.0004H0.370605V16.0004L2.9632 13.2004H0.370605V10.4004H13.3336C14.0249 10.4004 14.6299 10.6804 15.1484 11.2404C15.6669 11.8004 15.9262 12.4537 15.9262 13.2004V27.2004ZM12.9632 27.2004V13.2004H3.33357V29.6004L5.55579 27.2004H12.9632ZM38.3234 30.0004H34.5456L26.8419 21.6004H34.9901V13.2004H25.3605V30.0004H22.3975V15.9604L24.9901 13.2004H22.3975V10.4004H35.3605C36.0519 10.4004 36.6568 10.6804 37.1753 11.2404C37.6938 11.8004 37.9531 12.4537 37.9531 13.2004V20.8004C37.9531 22.9338 37.0889 24.0004 35.3605 24.0004H33.1382V24.4404L38.3234 30.0004ZM46.664 30.0004H43.7011V10.4004H46.664V30.0004ZM69.6183 10.4004L62.6924 30.0004H57.8776L51.0998 10.4004H54.4331L59.9887 27.2804H60.7294L66.285 10.4004H69.6183ZM87.0099 30.0004H74.0468V16.0004L76.6395 13.2004H74.0468V10.4004H87.0099V13.2004H77.0099V21.2004L79.2321 18.8004H87.0099V21.6004H77.0099V27.2004H87.0099V30.0004ZM110.714 29.9604H107.751V15.2404L108.862 13.2404H107.195L102.64 24.4004H100.491L96.0839 13.2404H94.4173L95.5284 15.2404V29.9604H92.5654V10.4004H97.8617L101.528 19.7604H101.899L105.565 10.4004H110.714V29.9604ZM132.933 30.0004H129.97V24.4004H120.34V30.0004H117.377V13.2004C117.377 12.4271 117.624 11.7737 118.118 11.2404C118.637 10.6804 119.254 10.4004 119.97 10.4004H132.933V30.0004ZM129.97 21.6004V13.2004H120.34V24.0004L122.562 21.6004H129.97ZM150.14 13.2004H144.77V30.0004H141.807V13.2004H136.437V10.4004H150.14V13.2004ZM156.618 30.0004H153.655V10.4004H156.618V30.0004ZM178.646 27.2004C178.646 27.9738 178.387 28.6404 177.868 29.2004C177.374 29.7338 176.77 30.0004 176.054 30.0004H165.683C164.967 30.0004 164.35 29.7338 163.831 29.2004C163.337 28.6404 163.091 27.9738 163.091 27.2004V13.2004C163.091 12.4271 163.337 11.7737 163.831 11.2404C164.35 10.6804 164.967 10.4004 165.683 10.4004H176.054C176.77 10.4004 177.374 10.6804 177.868 11.2404C178.387 11.7737 178.646 12.4271 178.646 13.2004V16.0004H175.683V13.2004H166.054V27.2004H175.683V24.4004H178.646V27.2004ZM199.773 30.0004H196.81V24.4004H187.18V30.0004H184.217V13.2004C184.217 12.4271 184.465 11.7737 184.958 11.2404C185.477 10.6804 186.094 10.4004 186.81 10.4004H199.773V30.0004ZM196.81 21.6004V13.2004H187.18V24.0004L189.402 21.6004H196.81Z" fill="white"/>
</svg>
