<svg width="86" height="44" viewBox="0 0 86 44" fill="none" xmlns="http://www.w3.org/2000/svg">
<g clip-path="url(#clip0_1591_9399)">
<mask id="mask0_1591_9399" style="mask-type:luminance" maskUnits="userSpaceOnUse" x="0" y="0" width="86" height="44">
<path d="M86 0H0V44H86V0Z" fill="white"/>
</mask>
<g mask="url(#mask0_1591_9399)">
<path d="M86 0H0V44H86V0Z" fill="#F8F7F2"/>
<path d="M86 0H0V3.3836H86V0Z" fill="#C2291B"/>
<path d="M86 6.77051H0V10.1541H86V6.77051Z" fill="#C2291B"/>
<path d="M86 13.5388H0V16.9224H86V13.5388Z" fill="#C2291B"/>
<path d="M86 20.3074H0V23.691H86V20.3074Z" fill="#C2291B"/>
<path d="M86 27.0771H0V30.4607H86V27.0771Z" fill="#C2291B"/>
<path d="M86 33.8467H0V37.2303H86V33.8467Z" fill="#C2291B"/>
<path d="M86 40.6165H0V44.0001H86V40.6165Z" fill="#C2291B"/>
<path d="M34.4 0H0V23.6925H34.4V0Z" fill="#000085"/>
<path d="M2.86675 1.01343L3.17905 1.95063H4.19295L3.37369 2.5285L3.686 3.4657L2.86675 2.88636L2.04748 3.4657L2.3598 2.5285L1.54053 1.95063H2.55443L2.86675 1.01343Z" fill="#F8F7F2"/>
<path d="M5.73343 3.38367L6.04575 4.3194H7.05965L6.24038 4.89872L6.5527 5.83447L5.73343 5.2566L4.91418 5.83447L5.22648 4.89872L4.40723 4.3194H5.42111L5.73343 3.38367Z" fill="#F8F7F2"/>
<path d="M8.59989 1.01343L8.91221 1.95063H9.92611L9.10684 2.5285L9.41916 3.4657L8.59989 2.88636L7.78063 3.4657L8.09294 2.5285L7.27368 1.95063H8.28758L8.59989 1.01343Z" fill="#F8F7F2"/>
<path d="M11.4664 3.38367L11.7787 4.3194H12.7926L11.9733 4.89872L12.2856 5.83447L11.4664 5.2566L10.6471 5.83447L10.9594 4.89872L10.1401 4.3194H11.154L11.4664 3.38367Z" fill="#F8F7F2"/>
<path d="M14.3342 1.01343L14.6466 1.95063H15.6604L14.8412 2.5285L15.1536 3.4657L14.3342 2.88636L13.515 3.4657L13.8273 2.5285L13.0081 1.95063H14.022L14.3342 1.01343Z" fill="#F8F7F2"/>
<path d="M17.2006 3.38367L17.513 4.3194H18.5268L17.7076 4.89872L18.02 5.83447L17.2006 5.2566L16.3813 5.83447L16.6938 4.89872L15.8745 4.3194H16.8883L17.2006 3.38367Z" fill="#F8F7F2"/>
<path d="M20.0672 1.01343L20.3795 1.95063H21.3933L20.574 2.5285L20.8865 3.4657L20.0672 2.88636L19.2478 3.4657L19.5602 2.5285L18.741 1.95063H19.7548L20.0672 1.01343Z" fill="#F8F7F2"/>
<path d="M22.9337 3.38367L23.2459 4.3194H24.2597L23.4405 4.89872L23.7529 5.83447L22.9337 5.2566L22.1144 5.83447L22.4267 4.89872L21.6074 4.3194H22.6212L22.9337 3.38367Z" fill="#F8F7F2"/>
<path d="M25.8001 1.01343L26.1139 1.95063H27.1262L26.3069 2.5285L26.6194 3.4657L25.8001 2.88636L24.9809 3.4657L25.2931 2.5285L24.4739 1.95063H25.4877L25.8001 1.01343Z" fill="#F8F7F2"/>
<path d="M28.6666 3.38367L28.9788 4.3194H29.9927L29.1734 4.89872L29.4858 5.83447L28.6666 5.2566L27.8473 5.83447L28.1596 4.89872L27.3403 4.3194H28.3541L28.6666 3.38367Z" fill="#F8F7F2"/>
<path d="M31.533 1.01343L31.8468 1.95063H32.8591L32.0399 2.5285L32.3523 3.4657L31.533 2.88636L30.7138 3.4657L31.026 2.5285L30.2068 1.95063H31.2206L31.533 1.01343Z" fill="#F8F7F2"/>
<path d="M2.86675 5.75195L3.17905 6.68915H4.19295L3.37369 7.26702L3.686 8.20422L2.86675 7.62488L2.04748 8.20422L2.3598 7.26702L1.54053 6.68915H2.55443L2.86675 5.75195Z" fill="#F8F7F2"/>
<path d="M5.73343 8.12207L6.04575 9.0578H7.05965L6.24038 9.63713L6.5527 10.5729L5.73343 9.995L4.91418 10.5729L5.22648 9.63713L4.40723 9.0578H5.42111L5.73343 8.12207Z" fill="#F8F7F2"/>
<path d="M8.59964 5.75195L8.91196 6.68915H9.92586L9.10659 7.26702L9.41891 8.20422L8.59964 7.62488L7.78039 8.20422L8.09269 7.26702L7.27344 6.68915H8.28733L8.59964 5.75195Z" fill="#F8F7F2"/>
<path d="M11.4664 8.12207L11.7787 9.0578H12.7926L11.9733 9.63713L12.2856 10.5729L11.4664 9.995L10.6471 10.5729L10.9594 9.63713L10.1401 9.0578H11.154L11.4664 8.12207Z" fill="#F8F7F2"/>
<path d="M14.334 5.75195L14.6464 6.68915H15.6602L14.8409 7.26702L15.1534 8.20422L14.334 7.62488L13.5148 8.20422L13.8271 7.26702L13.0078 6.68915H14.0217L14.334 5.75195Z" fill="#F8F7F2"/>
<path d="M17.2006 8.12207L17.513 9.0578H18.5268L17.7076 9.63713L18.02 10.5729L17.2006 9.995L16.3813 10.5729L16.6938 9.63713L15.8745 9.0578H16.8883L17.2006 8.12207Z" fill="#F8F7F2"/>
<path d="M20.067 5.75195L20.3792 6.68915H21.393L20.5738 7.26702L20.8862 8.20422L20.067 7.62488L19.2476 8.20422L19.56 7.26702L18.7407 6.68915H19.7545L20.067 5.75195Z" fill="#F8F7F2"/>
<path d="M22.9337 8.12207L23.2459 9.0578H24.2597L23.4405 9.63713L23.7529 10.5729L22.9337 9.995L22.1144 10.5729L22.4267 9.63713L21.6074 9.0578H22.6212L22.9337 8.12207Z" fill="#F8F7F2"/>
<path d="M25.8004 5.75195L26.1142 6.68915H27.1264L26.3072 7.26702L26.6196 8.20422L25.8004 7.62488L24.9811 8.20422L25.2934 7.26702L24.4741 6.68915H25.4879L25.8004 5.75195Z" fill="#F8F7F2"/>
<path d="M28.6666 8.12207L28.9788 9.0578H29.9927L29.1734 9.63713L29.4858 10.5729L28.6666 9.995L27.8473 10.5729L28.1596 9.63713L27.3403 9.0578H28.3541L28.6666 8.12207Z" fill="#F8F7F2"/>
<path d="M31.5333 5.75195L31.8471 6.68915H32.8594L32.0401 7.26702L32.3525 8.20422L31.5333 7.62488L30.714 8.20422L31.0263 7.26702L30.207 6.68915H31.2208L31.5333 5.75195Z" fill="#F8F7F2"/>
<path d="M2.86675 10.4911L3.17905 11.4283H4.19295L3.37369 12.0062L3.686 12.9434L2.86675 12.364L2.04748 12.9434L2.3598 12.0062L1.54053 11.4283H2.55443L2.86675 10.4911Z" fill="#F8F7F2"/>
<path d="M5.73343 12.8612L6.04575 13.797H7.05965L6.24038 14.3763L6.5527 15.312L5.73343 14.7342L4.91418 15.312L5.22648 14.3763L4.40723 13.797H5.42111L5.73343 12.8612Z" fill="#F8F7F2"/>
<path d="M8.59989 10.4911L8.91221 11.4283H9.92611L9.10684 12.0062L9.41916 12.9434L8.59989 12.364L7.78063 12.9434L8.09294 12.0062L7.27368 11.4283H8.28758L8.59989 10.4911Z" fill="#F8F7F2"/>
<path d="M11.4664 12.8612L11.7787 13.797H12.7926L11.9733 14.3763L12.2856 15.312L11.4664 14.7342L10.6471 15.312L10.9594 14.3763L10.1401 13.797H11.154L11.4664 12.8612Z" fill="#F8F7F2"/>
<path d="M14.3342 10.4911L14.6466 11.4283H15.6604L14.8412 12.0062L15.1536 12.9434L14.3342 12.364L13.515 12.9434L13.8273 12.0062L13.0081 11.4283H14.022L14.3342 10.4911Z" fill="#F8F7F2"/>
<path d="M17.2006 12.8612L17.513 13.797H18.5268L17.7076 14.3763L18.02 15.312L17.2006 14.7342L16.3813 15.312L16.6938 14.3763L15.8745 13.797H16.8883L17.2006 12.8612Z" fill="#F8F7F2"/>
<path d="M20.0672 10.4911L20.3795 11.4283H21.3933L20.574 12.0062L20.8865 12.9434L20.0672 12.364L19.2478 12.9434L19.5602 12.0062L18.741 11.4283H19.7548L20.0672 10.4911Z" fill="#F8F7F2"/>
<path d="M22.9337 12.8612L23.2459 13.797H24.2597L23.4405 14.3763L23.7529 15.312L22.9337 14.7342L22.1144 15.312L22.4267 14.3763L21.6074 13.797H22.6212L22.9337 12.8612Z" fill="#F8F7F2"/>
<path d="M25.8001 10.4911L26.1139 11.4283H27.1262L26.3069 12.0062L26.6194 12.9434L25.8001 12.364L24.9809 12.9434L25.2931 12.0062L24.4739 11.4283H25.4877L25.8001 10.4911Z" fill="#F8F7F2"/>
<path d="M28.6666 12.8612L28.9788 13.797H29.9927L29.1734 14.3763L29.4858 15.312L28.6666 14.7342L27.8473 15.312L28.1596 14.3763L27.3403 13.797H28.3541L28.6666 12.8612Z" fill="#F8F7F2"/>
<path d="M31.533 10.4911L31.8468 11.4283H32.8591L32.0399 12.0062L32.3523 12.9434L31.533 12.364L30.7138 12.9434L31.026 12.0062L30.2068 11.4283H31.2206L31.533 10.4911Z" fill="#F8F7F2"/>
<path d="M2.86675 15.2295L3.17905 16.1667H4.19295L3.37369 16.7446L3.686 17.6818L2.86675 17.1024L2.04748 17.6818L2.3598 16.7446L1.54053 16.1667H2.55443L2.86675 15.2295Z" fill="#F8F7F2"/>
<path d="M5.73343 17.5996L6.04575 18.5354H7.05965L6.24038 19.1147L6.5527 20.0504L5.73343 19.4726L4.91418 20.0504L5.22648 19.1147L4.40723 18.5354H5.42111L5.73343 17.5996Z" fill="#F8F7F2"/>
<path d="M8.59964 15.2295L8.91196 16.1667H9.92586L9.10659 16.7446L9.41891 17.6818L8.59964 17.1024L7.78039 17.6818L8.09269 16.7446L7.27344 16.1667H8.28733L8.59964 15.2295Z" fill="#F8F7F2"/>
<path d="M11.4664 17.5996L11.7787 18.5354H12.7926L11.9733 19.1147L12.2856 20.0504L11.4664 19.4726L10.6471 20.0504L10.9594 19.1147L10.1401 18.5354H11.154L11.4664 17.5996Z" fill="#F8F7F2"/>
<path d="M14.334 15.2295L14.6464 16.1667H15.6602L14.8409 16.7446L15.1534 17.6818L14.334 17.1024L13.5148 17.6818L13.8271 16.7446L13.0078 16.1667H14.0217L14.334 15.2295Z" fill="#F8F7F2"/>
<path d="M17.2006 17.5996L17.513 18.5354H18.5268L17.7076 19.1147L18.02 20.0504L17.2006 19.4726L16.3813 20.0504L16.6938 19.1147L15.8745 18.5354H16.8883L17.2006 17.5996Z" fill="#F8F7F2"/>
<path d="M20.067 15.2295L20.3792 16.1667H21.393L20.5738 16.7446L20.8862 17.6818L20.067 17.1024L19.2476 17.6818L19.56 16.7446L18.7407 16.1667H19.7545L20.067 15.2295Z" fill="#F8F7F2"/>
<path d="M22.9337 17.5996L23.2459 18.5354H24.2597L23.4405 19.1147L23.7529 20.0504L22.9337 19.4726L22.1144 20.0504L22.4267 19.1147L21.6074 18.5354H22.6212L22.9337 17.5996Z" fill="#F8F7F2"/>
<path d="M25.8004 15.2295L26.1142 16.1667H27.1264L26.3072 16.7446L26.6196 17.6818L25.8004 17.1024L24.9811 17.6818L25.2934 16.7446L24.4741 16.1667H25.4879L25.8004 15.2295Z" fill="#F8F7F2"/>
<path d="M28.6666 17.5996L28.9788 18.5354H29.9927L29.1734 19.1147L29.4858 20.0504L28.6666 19.4726L27.8473 20.0504L28.1596 19.1147L27.3403 18.5354H28.3541L28.6666 17.5996Z" fill="#F8F7F2"/>
<path d="M31.5333 15.2295L31.8471 16.1667H32.8594L32.0401 16.7446L32.3525 17.6818L31.5333 17.1024L30.714 17.6818L31.0263 16.7446L30.207 16.1667H31.2208L31.5333 15.2295Z" fill="#F8F7F2"/>
<path d="M2.86675 19.9688L3.17905 20.9059H4.19295L3.37369 21.4839L3.686 22.4211L2.86675 21.8416L2.04748 22.4211L2.3598 21.4839L1.54053 20.9059H2.55443L2.86675 19.9688Z" fill="#F8F7F2"/>
<path d="M8.59989 19.9688L8.91221 20.9059H9.92611L9.10684 21.4839L9.41916 22.4211L8.59989 21.8416L7.78063 22.4211L8.09294 21.4839L7.27368 20.9059H8.28758L8.59989 19.9688Z" fill="#F8F7F2"/>
<path d="M14.3342 19.9688L14.6466 20.9059H15.6604L14.8412 21.4839L15.1536 22.4211L14.3342 21.8416L13.515 22.4211L13.8273 21.4839L13.0081 20.9059H14.022L14.3342 19.9688Z" fill="#F8F7F2"/>
<path d="M20.0672 19.9688L20.3795 20.9059H21.3933L20.574 21.4839L20.8865 22.4211L20.0672 21.8416L19.2478 22.4211L19.5602 21.4839L18.741 20.9059H19.7548L20.0672 19.9688Z" fill="#F8F7F2"/>
<path d="M25.8001 19.9688L26.1139 20.9059H27.1262L26.3069 21.4839L26.6194 22.4211L25.8001 21.8416L24.9809 22.4211L25.2931 21.4839L24.4739 20.9059H25.4877L25.8001 19.9688Z" fill="#F8F7F2"/>
<path d="M31.533 19.9688L31.8468 20.9059H32.8591L32.0399 21.4839L32.3523 22.4211L31.533 21.8416L30.7138 22.4211L31.026 21.4839L30.2068 20.9059H31.2206L31.533 19.9688Z" fill="#F8F7F2"/>
</g>
</g>
<defs>
<clipPath id="clip0_1591_9399">
<rect width="86" height="44" fill="white"/>
</clipPath>
</defs>
</svg>
