<svg width="16" height="16" viewBox="0 0 16 16" fill="none" xmlns="http://www.w3.org/2000/svg">
<path d="M9.91202 8.22524C11.346 7.51739 12.3352 6.03985 12.3352 4.33527C12.3352 1.94479 10.3904 0 8 0C5.60958 0 3.66484 1.94479 3.66484 4.33527C3.66484 6.03985 4.65397 7.51739 6.08798 8.22524C2.59711 9.04761 0 12.0693 0 15.6608C0 15.848 0.15202 16 0.339152 16H15.6608C15.848 16 16 15.848 16 15.6608C16 12.0693 13.4029 9.04761 9.91202 8.22524ZM4.34314 4.33487C4.34314 2.31826 5.98344 0.677922 8 0.677922C10.0166 0.677922 11.6569 2.31826 11.6569 4.33487C11.6569 6.35148 10.0166 7.99182 8 7.99182C5.98344 7.99182 4.34314 6.35148 4.34314 4.33487ZM0.686683 15.3217C0.873017 11.6304 4.0818 8.68171 8 8.68171C11.9182 8.68171 15.127 11.6304 15.3133 15.3217H0.686683Z" fill="black"/>
</svg>
