<svg width="58" height="55" viewBox="0 0 58 55" fill="none" xmlns="http://www.w3.org/2000/svg">
<path fill-rule="evenodd" clip-rule="evenodd" d="M53.3109 8.58156C53.0876 11.7579 51.7478 16.5502 56.7719 16.2158C56.6044 17.8318 53.0876 18.2219 53.7575 20.1722C54.9856 21.4539 56.7161 21.3982 57.9442 22.6798C58.0558 25.2989 55.3205 26.9149 58 30.537C55.5996 34.2705 50.8547 37.0567 53.4225 42.6292C51.5804 43.465 50.6872 41.9605 49.18 41.9048C47.6728 43.1307 48.3426 45.1925 47.3936 46.6413C45.4957 47.923 44.6583 46.4184 42.7045 47.8673C42.0346 48.3131 42.4254 49.1489 41.7555 49.5947C42.4812 50.7649 43.3744 51.7123 43.9326 53.4397C42.7045 53.6626 43.7093 54.7214 42.4254 55C40.5274 53.6626 40.025 48.7589 36.1732 50.8207C34.6102 51.6565 35.7267 53.4954 33.6612 54.1084C31.9307 53.5512 31.4841 49.8734 29.7536 49.3161C25.232 53.997 25.0645 48.5917 22.385 46.5299C20.7103 45.1925 20.1521 46.4184 18.3099 45.304C17.4167 43.7437 17.3609 42.5177 17.4167 41.3475C16.9143 40.2888 15.9654 40.4002 15.128 40.1773C13.3975 41.1246 12.8951 45.0811 10.718 43.9108C11.4437 41.5704 13.5091 39.7315 14.3465 37.4468C12.7834 29.8126 7.59191 28.2523 1.17228 31.5957C1.00481 30.4255 0.223292 30.8713 0 29.924C2.6795 27.0263 8.09432 29.3668 8.70837 26.0233C9.82483 25.4103 10.1039 27.0821 11.1646 26.6363C14.0115 22.2898 12.3369 16.2715 15.5188 12.0365C15.1838 11.3121 14.8489 10.5876 14.514 9.86322C15.7421 9.08308 16.4678 9.47315 17.3609 9.41743C18.9798 8.63728 18.2541 6.96555 18.2541 5.51672C19.7055 5.12665 22.2175 5.79534 21.2127 3.34347C23.8922 3.90071 29.6978 3.90071 29.7536 0C30.7584 3.62209 35.001 3.39919 36.0058 0.222898C38.9086 1.83891 40.6949 6.35258 45.3282 3.45491C45.5515 4.73658 43.9326 5.34954 44.1559 6.63121C45.5515 9.19453 47.8402 6.29686 49.6824 6.29686C49.4033 7.5228 47.2262 9.19453 48.7892 10.1976C49.9057 10.6991 51.8595 8.97163 53.3109 8.58156Z" fill="black"/>
</svg>
