<svg width="199" height="113" viewBox="0 0 199 113" fill="none" xmlns="http://www.w3.org/2000/svg">
<g clip-path="url(#clip0_1_1517)">
<path d="M18.8351 105.763C22.4004 108.596 26.9208 109.264 31.2183 109.455C40.0681 109.837 39.6224 97.6768 45.9891 96.6263C51.56 95.735 54.998 93.634 57.6083 88.5088C62.0014 79.8182 70.4373 83.5427 75.8171 88.4133C84.1575 95.926 93.1346 106.367 105.55 101.529C114.941 97.8678 120.289 92.3288 123.822 82.7469C125.318 78.704 126.783 74.1837 127.356 69.8861C127.897 65.5568 126.369 59.8267 130.221 56.9299C137.893 51.168 150.976 57.9804 159.571 54.8607C165.874 52.6005 168.198 49.2262 165.238 42.5093C161.163 33.2776 172.973 29.5212 179.594 27.4202C185.356 25.6057 194.779 27.9295 199.331 23.0908" stroke="black" stroke-width="0.5" stroke-miterlimit="10"/>
<path d="M18.4213 104.489C21.9548 107.195 26.3797 107.832 30.5817 107.959C35.484 108.118 38.3809 103.343 40.3864 99.4278C41.7553 96.722 43.2196 94.2708 45.0978 94.0798C50.8597 93.4431 53.7883 91.3421 56.717 86.4079C57.5447 84.9754 58.4997 83.7976 59.5502 83.0017C64.8983 78.9589 70.692 82.7789 74.7985 86.1851C79.287 89.9414 83.8074 95.0985 88.9007 98.1227C94.3443 101.338 99.4377 102.038 105.55 100.192C109.274 99.0458 113.476 97.0085 116.087 94.2071C119.27 90.7691 121.498 86.4397 123.345 81.9194C123.727 80.9962 124.045 80.0094 124.363 79.0225C125.605 75.0752 126.401 71.5098 126.624 67.3714C126.846 63.3923 125.669 59.0311 128.82 56.0387C128.947 55.9432 129.075 55.8159 129.202 55.7204C137.351 50.0858 150.212 57.1529 158.903 54.1924C165.429 51.964 167.116 48.5578 164.219 41.8409C162.086 36.9067 164.951 33.6279 168.739 31.304C171.827 29.394 175.806 28.057 179.467 26.9428C185.261 25.192 194.461 27.3885 199.013 22.709" stroke="black" stroke-width="0.5" stroke-miterlimit="10"/>
<path d="M18.0392 103.152C21.6045 105.667 25.8384 106.208 29.9449 106.208C34.8791 106.177 37.6168 100.86 39.5587 96.913C40.9275 94.1434 42.36 91.7559 44.2382 91.5331C49.7772 90.8964 52.7378 89.0501 55.8893 84.466C56.7806 83.1927 57.7675 82.2059 58.8498 81.5374C64.357 78.163 69.3867 80.837 73.7479 84.1477C78.5229 87.7767 83.2661 92.7746 88.3277 95.9898C93.7712 99.4278 99.2147 100.701 105.486 98.9185C109.083 97.8998 113.126 95.8625 115.641 93.0293C118.633 89.6549 121.084 85.6121 122.835 81.1872C123.185 80.264 123.536 79.309 123.854 78.2903C125.191 74.1201 125.668 70.714 125.7 66.3528C125.732 62.3417 124.554 57.885 127.801 54.8927C127.929 54.7972 128.056 54.6698 128.183 54.5743C136.46 49.0353 149.48 56.4207 158.17 53.5875C164.855 51.391 165.842 47.9848 163.136 41.2679C161.099 36.1427 164.601 33.0549 168.453 30.8265C171.668 28.9802 175.583 27.675 179.244 26.529C185.038 24.7463 193.951 26.8792 198.599 22.3906" stroke="black" stroke-width="0.5" stroke-miterlimit="10"/>
<path d="M17.6254 101.815C21.0316 104.011 25.3291 104.648 29.2764 104.266C34.3698 103.789 36.7573 98.3132 38.731 94.334C40.0998 91.5645 41.5642 89.2725 43.3787 89.0497C48.3447 88.4448 52.0056 86.7576 55.1253 82.7148C55.9848 81.6006 57.1308 80.8366 58.2768 80.1999C63.7203 77.1757 68.3362 79.1176 72.8247 82.3328C77.7271 85.8345 82.6295 90.5458 87.691 93.7929C93.2937 97.3582 99.0238 99.2682 105.422 97.5811C108.86 96.6897 112.553 94.5887 115.132 91.7873C118.188 88.4448 120.607 84.593 122.326 80.4228C122.708 79.4996 123.026 78.5446 123.376 77.5578C124.873 73.1329 124.936 69.9177 124.745 65.3018C124.586 61.259 123.472 56.7386 126.846 53.7463C126.974 53.6508 127.101 53.5234 127.26 53.4279C135.696 47.9844 148.811 55.6881 157.534 52.9186C164.314 50.7857 164.601 47.284 162.182 40.599C160.271 35.3146 164.41 32.4178 168.325 30.3168C171.604 28.5659 175.488 27.2289 179.181 26.0829C184.911 24.3002 193.697 26.3376 198.344 22.04" stroke="black" stroke-width="0.5" stroke-miterlimit="10"/>
<path d="M17.2434 100.447C20.6178 102.42 24.8516 102.802 28.6398 102.198C33.6377 101.402 35.9297 95.7991 37.9671 91.7881C39.3359 89.0504 40.8321 86.9176 42.6466 86.6947C47.4534 86.1217 51.0825 84.6574 54.5205 81.2512C55.4437 80.328 56.6852 79.564 57.8949 78.9592C63.2429 76.2533 67.6996 77.5585 72.1563 80.6782C76.9631 84.0844 82.0247 88.4137 87.0225 91.6289C92.7844 95.2898 99.183 97.9638 105.295 96.2448C108.542 95.3534 111.948 93.3798 114.622 90.6102C117.646 87.4587 120.193 83.7342 121.88 79.6595C122.262 78.7682 122.612 77.8132 122.963 76.7945C124.363 72.8471 124.395 69.9503 124.013 65.7801C123.599 61.3552 121.976 55.9117 125.955 52.601C126.082 52.5055 126.241 52.3782 126.369 52.2827C134.932 46.9665 148.175 54.9248 156.865 52.219C163.646 50.118 163.328 46.5208 161.195 39.9312C159.476 34.5514 164.251 31.7819 168.198 29.7763C171.541 28.0892 175.392 26.7522 179.085 25.5743C184.752 23.7916 193.378 25.7653 198.026 21.627" stroke="black" stroke-width="0.5" stroke-miterlimit="10"/>
<path d="M16.8296 99.1092C20.2039 100.796 24.3741 100.892 27.9395 100.064C32.81 98.95 35.0384 93.2837 37.1394 89.3045C38.5401 86.6623 40.0362 84.7523 41.8826 84.5294C46.5303 84.0201 50.2866 82.9059 53.9793 79.9136C55.0298 79.0541 56.3032 78.3856 57.5447 77.7807C62.7972 75.2659 67.1266 76.0299 71.5515 79.0541C76.2628 82.3011 81.2607 86.3439 86.2267 89.4636C92.1478 93.1563 98.8328 96.3715 104.977 94.8117C108.096 94.0158 111.343 92.074 114.081 89.4955C117.233 86.535 119.716 82.9059 121.435 78.9267C121.817 78.0354 122.167 77.0485 122.517 76.0617C125.286 68.8355 118.251 56.9297 125.127 51.5817C125.255 51.4862 125.414 51.3589 125.573 51.2634C134.327 46.0108 147.283 54.3194 156.165 51.5817C163.105 49.4489 162.086 45.8517 160.303 39.3576C158.839 33.9141 164.251 31.2401 168.198 29.3937C171.604 27.7702 175.392 26.4332 179.085 25.2235C184.688 23.409 193.156 25.3509 197.803 21.3398" stroke="black" stroke-width="0.5" stroke-miterlimit="10"/>
<path d="M16.4475 97.7407C19.8219 99.1732 23.8647 98.8867 27.2391 97.8362C31.9186 96.3719 34.1151 90.8329 36.3435 86.9173C37.776 84.4343 39.3358 82.7471 41.1503 82.5561C45.6707 82.1105 49.7454 81.3146 53.5336 78.6724C54.6478 77.8766 55.9848 77.2399 57.2581 76.6669C62.447 74.2476 66.6808 74.6932 71.0739 77.4946C75.6261 80.4233 80.4648 84.4025 85.3353 87.3948C90.8107 90.7374 98.2597 95.1304 104.435 93.3159C107.587 92.3927 110.802 90.8328 113.508 88.4453C116.723 85.6121 119.238 82.1105 120.957 78.1949C121.339 77.3036 121.689 76.2849 122.071 75.3299C125.127 68.0082 116.437 56.2298 124.331 50.5952C124.491 50.4997 124.65 50.3724 124.777 50.3087C133.722 45.1835 145.755 52.8554 155.369 50.9773C162.977 49.4811 160.526 44.0694 159.38 38.785C158.202 33.3415 164.219 30.7629 168.134 28.9803C171.572 27.4204 175.329 26.0516 178.99 24.8419C184.529 22.9956 192.805 24.8737 197.485 21.0537" stroke="black" stroke-width="0.5" stroke-miterlimit="10"/>
<path d="M16.0656 96.4359C19.5672 97.6456 23.4191 96.7224 26.5706 95.6401C30.9318 94.1439 33.192 88.4775 35.6432 84.6893C37.1075 82.3973 38.731 81.0285 40.5456 80.8693C45.0659 80.4873 49.2361 80.0098 53.2153 77.5586C54.3931 76.8265 55.762 76.2216 57.0353 75.6168C62.0969 73.2929 66.3307 73.2929 70.6919 75.967C75.085 78.6728 79.7645 82.5565 84.444 85.4215C89.9512 88.764 97.4003 93.2526 103.735 91.7564C106.95 90.9924 110.197 89.719 112.967 87.4589C116.246 84.7848 118.792 81.315 120.543 77.495C120.957 76.6036 121.307 75.6168 121.689 74.6299C124.682 67.1491 115.004 55.3706 123.663 49.7043C123.822 49.6088 123.981 49.5133 124.14 49.4178C133.245 44.4836 145.023 52.06 154.637 50.3728C162.277 49.0358 159.348 43.3057 158.584 38.1805C157.757 32.8007 164.251 30.3176 168.198 28.5668C171.636 27.0706 175.361 25.6699 178.99 24.4603C184.497 22.5821 192.583 24.4284 197.262 20.7676" stroke="black" stroke-width="0.5" stroke-miterlimit="10"/>
<path d="M15.6517 95.1626C19.1534 96.0539 22.8461 94.7806 25.8703 93.5072C30.0723 91.7245 32.1733 86.3447 34.911 82.7156C36.439 80.7101 38.0626 79.6914 39.9089 79.5641C44.4611 79.2776 48.7905 78.8319 52.8652 76.5718C54.1067 75.8714 55.4755 75.2348 56.8125 74.6618C61.9059 72.5607 65.7896 71.8286 70.3418 74.5026C74.6075 76.9856 79.1278 80.8056 83.6164 83.5433C89.2191 86.9495 96.4771 91.3107 102.907 90.2602C106.186 89.719 109.465 88.7003 112.362 86.472C115.673 83.8935 118.283 80.5191 120.066 76.7309C120.48 75.8396 120.893 74.8528 121.244 73.8659C123.695 66.5124 113.858 54.2883 122.994 48.8129C123.154 48.7174 123.345 48.6219 123.504 48.5264C132.736 43.8469 144.291 51.2641 153.841 49.7361C161.449 48.5264 158.171 42.4462 157.789 37.5438C157.343 32.2595 164.219 29.8401 168.23 28.1529C171.7 26.6886 175.329 25.2879 178.926 24.0464C184.37 22.1364 192.264 23.9509 196.976 20.4492" stroke="black" stroke-width="0.5" stroke-miterlimit="10"/>
<path d="M15.2698 93.889C18.867 94.271 22.1777 92.9021 25.17 91.406C29.2129 89.3686 31.1229 84.3071 34.1789 80.9646C35.7706 79.2774 37.4259 78.6089 39.3041 78.4816C43.92 78.195 48.3767 77.813 52.5469 75.6165C53.8202 74.948 55.189 74.3114 56.5579 73.7065C61.5239 71.5737 65.5349 70.5232 70.0235 72.9743C74.1618 75.2345 78.5549 79.0227 82.8842 81.6967C88.8371 85.3894 95.6495 89.114 102.048 88.8275C105.263 88.6683 108.733 87.6814 111.694 85.5168C115.068 83.0338 117.742 79.7231 119.525 75.9349C119.938 75.0435 120.416 74.0567 120.639 73.0062C122.103 65.5571 112.776 53.1102 122.358 47.9213C122.549 47.8258 122.708 47.7303 122.899 47.6667C132.29 43.3691 143.432 50.468 152.982 49.0674C160.526 47.985 157.088 41.6183 156.993 36.8751C156.865 31.7181 164.219 29.2987 168.23 27.6752C171.7 26.2745 175.265 24.842 178.831 23.5687C184.242 21.6268 191.914 23.4095 196.625 20.0352" stroke="black" stroke-width="0.5" stroke-miterlimit="10"/>
<path d="M14.8877 92.7105C18.4531 92.7105 21.6364 91.1189 24.5014 89.4635C28.3533 87.267 30.0723 82.4283 33.5422 79.627C35.1657 78.3218 36.8847 77.8124 38.7947 77.7169C43.4424 77.4304 48.0583 77.0166 52.3239 74.8519C53.6291 74.1834 55.0298 73.5149 56.3668 72.9101C61.2373 70.7136 65.312 69.3447 69.8006 71.6049C73.8434 73.6422 78.141 77.3668 82.2793 80.0089C88.1685 83.7335 94.8217 87.458 101.22 87.5217C104.531 87.5535 108.001 86.8213 111.089 84.6566C114.527 82.2691 117.264 78.9903 119.079 75.2339C119.493 74.3426 119.875 73.3239 119.97 72.2097C120.607 64.7607 111.694 51.9954 121.88 47.2841C122.071 47.1886 122.262 47.1249 122.453 47.0294C132.003 43.1775 142.668 49.7671 152.218 48.5256C159.699 47.5706 156.069 40.8855 156.356 36.2697C156.643 31.2081 164.219 28.9161 168.294 27.2926C171.732 25.9238 175.265 24.4594 178.767 23.1861C184.21 21.2124 191.468 22.8996 196.339 19.748" stroke="black" stroke-width="0.5" stroke-miterlimit="10"/>
<path d="M14.5376 91.5647C18.0393 91.2145 21.159 89.4 23.8967 87.6173C27.3984 85.3253 29.3084 80.7413 32.9692 78.5448C34.6246 77.5579 36.4072 77.2078 38.3491 77.0804C43.0605 76.7621 47.8037 76.2528 52.1012 74.0881C53.4382 73.4196 54.807 72.7192 56.1759 72.0507C60.2824 70.0452 65.1529 67.594 69.6096 70.1089C73.7798 72.4646 77.7909 75.6161 81.8019 78.1946C87.6274 81.951 94.0896 85.7073 100.488 86.1212C103.863 86.344 107.332 85.8346 110.548 83.67C114.017 81.3461 117.01 78.1309 118.665 74.3427C119.047 73.4514 119.206 72.3372 119.206 71.2231C119.206 63.8058 110.866 50.7859 121.53 46.6157C121.721 46.5521 121.912 46.4566 122.103 46.3929C131.717 42.9549 141.935 49.0351 151.486 47.8891C158.871 46.9977 155.115 39.9625 155.815 35.5695C156.579 30.6671 164.187 28.4706 168.453 26.7834C171.891 25.4146 175.329 23.9821 178.767 22.6769C184.147 20.6396 191.214 22.3267 196.116 19.3662" stroke="black" stroke-width="0.5" stroke-miterlimit="10"/>
<path d="M14.1555 90.4509C17.5617 89.7506 20.5541 87.8087 23.2599 85.9305C26.4751 83.6385 28.6716 79.5001 32.3643 77.7175C34.0833 76.8898 35.8978 76.7306 37.8397 76.6033C42.6147 76.2531 47.4534 75.6483 51.7828 73.3881C53.1198 72.6878 54.5205 71.9556 55.8893 71.2553C59.964 69.0906 64.8027 66.4484 69.3231 68.6767C73.4614 70.7141 77.3769 73.8974 81.2925 76.476C87.0225 80.296 93.2937 84.0842 99.6604 84.8163C103.098 85.1983 106.6 84.9118 109.879 82.779C113.349 80.5188 116.755 77.3355 117.997 73.5154C118.283 72.6241 118.283 71.4781 118.219 70.3002C117.742 62.7239 109.974 49.9586 121.212 46.1704C121.403 46.1068 121.626 46.0431 121.817 45.9794C131.43 42.9552 141.267 48.4624 150.721 47.4119C158.011 46.6161 154.159 39.0715 155.274 34.9969C156.547 30.3173 164.028 28.2481 168.548 26.4336C171.923 25.0648 175.329 23.6323 178.703 22.2953C184.051 20.2261 190.927 21.9133 195.861 19.0801" stroke="black" stroke-width="0.5" stroke-miterlimit="10"/>
<path d="M13.8054 89.4318C17.1161 88.445 20.0448 86.4076 22.6551 84.4339C25.6157 82.2056 28.1624 78.5447 31.8232 77.1759C33.6059 76.5074 35.4204 76.4119 37.3622 76.2527C42.2009 75.8389 47.1351 75.0749 51.4645 72.7192C52.8015 71.987 54.2022 71.223 55.5392 70.4272C59.5821 68.1033 64.3253 65.302 68.973 67.212C73.1113 68.931 76.995 72.1144 80.815 74.6929C86.4814 78.5447 92.5616 82.3966 98.8328 83.4153C102.303 83.9564 105.836 83.9564 109.211 81.7917C112.585 79.6589 116.341 76.6029 117.105 72.56C117.264 71.6368 117.201 70.459 117.073 69.313C116.182 61.3864 109.147 49.226 120.893 45.7562C121.116 45.6925 121.307 45.6288 121.53 45.5652C131.112 42.923 140.598 47.8572 149.926 46.8703C157.088 46.1063 153.268 38.2435 154.796 34.3598C156.579 29.8394 163.901 27.8657 168.58 25.9875C171.891 24.6505 175.233 23.1544 178.544 21.8492C183.86 19.7163 190.513 21.4035 195.479 18.7295" stroke="black" stroke-width="0.5" stroke-miterlimit="10"/>
<path d="M13.4552 88.4772C16.6386 87.2675 19.4399 85.1346 22.0821 83.1291C24.9471 80.9326 27.6848 77.8448 31.282 76.7624C33.0965 76.2213 34.911 76.1257 36.8847 75.9347C41.7871 75.4572 46.8168 74.5341 51.1461 72.0192C52.4831 71.2552 53.852 70.3957 55.189 69.568C59.2 67.0214 63.784 64.0608 68.5591 65.748C72.7611 67.2124 76.613 70.3002 80.3693 72.9106C85.972 76.7943 91.8612 80.7734 98.0688 82.015C101.507 82.7153 105.136 82.97 108.574 80.8371C111.916 78.7361 115.8 75.9347 116.118 71.6372C116.182 70.6822 116.087 69.5044 115.896 68.3265C114.654 59.9861 108.606 48.5897 120.734 45.4064C120.957 45.3427 121.18 45.279 121.371 45.2472C130.825 42.9552 140.057 47.3482 149.193 46.425C156.261 45.6929 152.504 37.639 154.478 33.819C156.77 29.3941 163.869 27.5478 168.707 25.6059C171.954 24.2689 175.233 22.7727 178.48 21.4357C183.765 19.271 190.227 20.9582 195.257 18.4434" stroke="black" stroke-width="0.5" stroke-miterlimit="10"/>
<path d="M13.1368 87.5862C16.1929 86.1855 18.8987 84.0845 21.5727 82.1427C24.4378 80.0416 27.2391 77.3995 30.8045 76.5081C32.6508 76.0306 34.4335 75.9351 36.439 75.7123C41.405 75.1393 46.4984 74.0888 50.7641 71.3829C52.0693 70.5552 53.4381 69.6639 54.7751 68.7407C58.7225 65.9712 63.0518 62.9152 68.0497 64.3159C72.3791 65.5574 76.2309 68.5179 79.9554 71.0964C85.5263 74.9801 91.2245 79.0866 97.3684 80.5828C100.806 81.4423 104.531 81.9198 107.969 79.8188C111.407 77.7496 114.972 75.0756 115.004 70.6507C115.004 69.6957 114.845 68.5179 114.654 67.3401C113.158 58.554 108.255 48.0489 120.671 45.1521C120.893 45.0884 121.116 45.0566 121.339 44.9929C130.571 43.0192 139.643 46.9029 148.557 45.9797C155.56 45.2476 151.836 37.0664 154.287 33.31C157.12 28.9806 163.932 27.2298 168.835 25.1924C172.018 23.8873 175.201 22.3274 178.385 20.9904C183.669 18.7621 189.909 20.4811 195.002 18.1572" stroke="black" stroke-width="0.5" stroke-miterlimit="10"/>
<path d="M12.7867 86.7267C15.7154 85.2305 18.3894 83.1931 21.0316 81.3468C23.8967 79.3413 26.7617 77.0811 30.2315 76.2534C32.0779 75.8078 33.8606 75.6486 35.8661 75.3939C40.8958 74.7572 46.0528 73.5476 50.2548 70.6189C51.56 69.7275 52.897 68.7407 54.1704 67.7539C58.4361 64.4432 62.1606 62.4058 67.1903 62.9152C71.4241 63.3608 75.6262 66.6079 79.3189 69.1864C84.7942 73.0064 90.4288 77.3039 96.509 79.0548C99.9152 80.0416 103.735 80.6783 107.237 78.7046C110.611 76.7946 113.826 73.8341 113.635 69.6002C113.604 68.6452 113.413 67.4674 113.19 66.2895C111.566 57.026 108.001 47.4759 120.511 44.8974C120.734 44.8655 120.957 44.8019 121.18 44.77C130.189 43.0829 139.102 46.4891 147.793 45.5659C154.764 44.8337 151.008 36.557 154.032 32.8006C157.438 28.5668 163.837 26.9114 168.835 24.7786C171.923 23.4416 175.042 21.8817 178.13 20.5447C183.383 18.2527 189.463 20.0035 194.62 17.8389" stroke="black" stroke-width="0.5" stroke-miterlimit="10"/>
<path d="M12.4684 85.9306C15.2697 84.3708 17.8801 82.4289 20.5541 80.6781C23.4828 78.768 26.316 76.858 29.754 75.9985C31.6003 75.5529 33.3512 75.2982 35.3567 75.0117C40.4182 74.3114 45.6389 72.9743 49.7136 69.791C50.987 68.8042 52.3558 67.7536 53.5337 66.7031C57.3537 63.3924 61.4602 61.7371 66.1397 61.8326C70.5964 61.9281 74.9576 64.634 78.714 67.1806C84.1575 70.8733 89.5692 75.0435 95.7449 77.3674C99.0556 78.6089 103.289 79.3729 106.568 77.431C109.815 75.521 112.489 72.465 112.235 68.4858C112.171 67.5626 111.948 66.353 111.757 65.1751C110.102 55.4977 108.065 46.8708 120.511 44.5788C120.734 44.547 120.957 44.4833 121.212 44.4515C129.966 43.019 138.752 46.0113 147.188 45.0882C154.128 44.3242 150.308 36.0156 153.937 32.2274C157.884 28.1209 163.869 26.4655 168.93 24.2372C171.954 22.9002 174.979 21.3085 178.003 19.9715C183.255 17.6476 189.176 19.3985 194.397 17.4248" stroke="black" stroke-width="0.5" stroke-miterlimit="10"/>
<path d="M12.15 85.1349C14.8559 83.5433 17.4344 81.6969 20.0766 80.0734C22.9734 78.2907 25.9021 76.6035 29.2128 75.6804C31.0273 75.171 32.81 74.7572 34.7837 74.4707C39.877 73.7067 45.1296 72.2424 49.1088 68.8362C50.3503 67.7538 51.6555 66.767 52.7696 65.812C56.4623 62.756 60.346 61.2279 64.8345 61.0369C69.3867 60.8459 73.9708 63.0743 77.8545 65.3663C83.4253 68.6452 88.837 73.1655 94.9491 75.6804C98.1006 76.9855 102.653 78.1952 105.709 76.1579C108.574 74.2479 110.993 71.2237 110.739 67.4673C110.675 66.5441 110.452 65.3663 110.293 64.1885C108.733 54.1291 108.351 46.3935 120.575 44.4198C120.798 44.388 121.053 44.3243 121.275 44.3243C129.52 43.3057 138.434 45.6932 146.615 44.8018C152.536 44.1333 151.135 35.0289 153.905 31.8456C157.311 27.9301 163.869 26.211 168.994 23.8872C171.954 22.5502 174.851 20.9267 177.812 19.5897C183.096 17.2021 188.826 18.9848 194.142 17.2021" stroke="black" stroke-width="0.5" stroke-miterlimit="10"/>
<path d="M11.8317 84.4022C14.442 82.8105 16.925 81.0596 19.5991 79.5635C22.5277 77.9081 25.4883 76.3483 28.7034 75.2659C30.518 74.6293 32.237 74.0563 34.2107 73.7379C39.3677 72.9102 44.4292 71.2549 48.4084 67.8806C49.5863 66.8937 50.8278 66.0342 51.9101 65.2065C55.2208 62.5962 59.1363 60.6543 63.402 60.4952C68.1134 60.3042 72.6019 61.864 76.6129 63.8377C82.3748 66.7027 88.2322 71.5096 94.1214 73.8334C97.2093 75.0431 101.57 76.6984 104.404 74.7566C106.887 73.0376 109.37 70.0452 109.147 66.3844C109.083 65.493 108.892 64.3152 108.765 63.1692C107.491 52.8869 108.797 45.9472 120.639 44.1964C120.862 44.1646 121.116 44.1327 121.339 44.1009C129.329 43.2414 138.115 45.4061 146.042 44.4511C151.74 43.7507 150.912 34.519 153.873 31.3675C157.502 27.5474 163.869 25.8284 168.994 23.4091C171.859 22.0402 174.692 20.3849 177.525 19.0797C182.81 16.6285 188.444 18.443 193.856 16.915" stroke="black" stroke-width="0.5" stroke-miterlimit="10"/>
<path d="M11.5133 83.6705C11.5133 83.6705 13.6143 81.9834 19.1215 79.0228C22.0184 77.463 25.1062 75.9668 28.1304 74.6616C29.9131 73.8658 31.6639 72.9745 33.574 72.6561C38.6037 71.8285 43.506 70.1413 47.6444 67.0534C48.7904 66.1939 49.9682 65.4299 50.9551 64.6659C54.1384 62.2466 57.7675 60.3047 61.8422 59.9864C66.4899 59.6044 70.9147 60.7504 74.9894 62.4376C80.9105 64.9206 86.8952 69.3773 92.7844 71.8285C95.6812 73.0381 100.074 74.9481 102.685 73.1336C104.977 71.5101 107.587 68.8043 107.46 65.2389C107.428 64.3794 107.269 63.2016 107.173 62.0874C106.345 51.6778 109.306 45.4066 120.671 43.9104C120.893 43.8786 121.148 43.8468 121.371 43.8149C129.106 43.1146 137.765 45.0883 145.469 44.0696C148.525 43.6558 149.002 42.0323 149.989 39.6129C151.517 35.8566 150.849 33.7874 153.841 30.8587C157.629 27.1342 163.869 25.3515 168.898 22.9003C171.668 21.5315 174.437 19.8125 177.175 18.5073C182.396 16.0561 188.03 17.8388 193.538 16.5654" stroke="black" stroke-width="0.5" stroke-miterlimit="10"/>
<path d="M11.1951 82.9696C11.1951 82.9696 13.1687 81.2506 18.6441 78.5129C21.6046 77.0167 24.6288 75.5205 27.5575 73.897C29.3402 72.9102 31.0274 71.6687 32.9055 71.3504C37.7124 70.5545 42.6466 69.313 46.785 66.4798C47.8991 65.7158 49.0133 65.0473 49.9683 64.347C53.0244 62.0868 56.3669 60.1131 60.2506 59.6356C64.7709 59.0944 69.1321 59.9221 73.175 61.3228C79.1597 63.392 85.2399 67.3075 91.0654 69.9178C93.835 71.1594 97.9733 73.2922 100.679 71.5095C103.64 69.5358 105.2 67.7213 105.773 64.156C105.9 63.392 105.677 62.1823 105.645 61.0681C105.422 50.7222 109.943 44.9285 120.766 43.6552C120.989 43.6233 121.244 43.5915 121.466 43.5915C128.979 43.0185 137.511 44.8967 144.991 43.7825C148.079 43.3368 148.461 41.6178 149.512 39.2303C151.167 35.3784 150.753 33.3729 153.937 30.4124C157.82 26.8152 163.932 24.937 168.898 22.4222C171.604 21.0534 174.215 19.2388 176.952 17.9655C182.205 15.5461 187.776 17.297 193.347 16.2783" stroke="black" stroke-width="0.5" stroke-miterlimit="10"/>
<path d="M10.8767 82.2692C10.8767 82.2692 12.7231 80.5502 18.1348 77.9399C21.1589 76.4755 24.1513 74.852 26.9208 72.8783C28.6717 71.6368 30.327 70.4908 32.2052 70.2043C37.0121 69.4722 41.6597 68.7081 45.8936 66.0341C46.976 65.3656 48.0583 64.729 48.9496 64.0605C52.0375 61.7684 55.0617 60.0813 58.627 59.2854C62.6381 58.3941 67.2221 59.1899 71.2013 60.3359C77.1542 62.0549 83.2025 65.5248 88.9644 68.0396C91.6703 69.2175 95.7768 71.4458 98.3871 69.7905C100.775 68.2943 103.64 66.5435 103.958 63.0418C104.022 62.2141 103.99 61.1318 104.053 60.0494C104.563 49.9264 110.516 44.451 120.766 43.3368C120.989 43.305 121.244 43.2731 121.466 43.2731C128.756 42.8275 137.129 44.6738 144.45 43.4641C147.57 42.9548 147.856 41.1721 148.939 38.7846C150.721 34.9009 150.562 32.8636 153.905 29.9031C157.852 26.3695 163.805 24.4277 168.644 21.8492C171.254 20.4485 173.801 18.5703 176.507 17.3606C181.823 14.9731 187.33 16.6921 192.933 15.96" stroke="black" stroke-width="0.5" stroke-miterlimit="10"/>
<path d="M10.5583 81.5696C10.5583 81.5696 12.3092 79.8505 17.6572 77.3357C20.8724 75.8077 23.5783 73.8977 26.2841 71.6693C28.0031 70.2686 29.6585 69.5683 31.5367 69.3455C36.248 68.8043 40.832 68.2313 45.0022 65.7801C46.0528 65.1753 47.1033 64.5704 47.9309 63.9338C50.8596 61.7372 53.7246 59.8909 57.0672 58.9996C60.8235 57.9809 65.3757 58.6176 69.1957 59.5089C75.0531 60.8777 80.9741 63.9019 86.6724 66.2576C89.3464 67.3718 93.3574 69.6001 95.9996 68.0721C98.4826 66.6396 101.57 65.4618 102.239 61.9282C102.398 61.1324 102.398 60.0819 102.557 59.0632C103.958 49.2903 110.961 43.9741 120.83 42.9873C121.053 42.9555 121.307 42.9236 121.498 42.9236C128.597 42.5734 136.778 44.5153 143.973 43.1783C147.124 42.6053 147.283 40.7589 148.429 38.3396C150.308 34.3922 150.499 32.323 153.905 29.3944C157.884 25.9563 163.741 23.919 168.389 21.245C170.904 19.8125 173.419 17.8706 176.125 16.6928C181.504 14.3371 186.98 16.0243 192.646 15.5786" stroke="black" stroke-width="0.5" stroke-miterlimit="10"/>
<path d="M10.24 80.8369C10.24 80.8369 11.8953 79.1179 17.1479 76.6031C20.3631 75.0432 22.9416 72.5284 25.5838 70.4592C27.1118 69.2495 28.9263 68.8039 30.8045 68.6447C35.4203 68.2627 39.9407 67.8807 44.079 65.5887C45.0977 65.0157 46.1164 64.4427 46.9122 63.8378C49.6818 61.7368 52.4831 59.7631 55.6028 58.6489C59.1045 57.3756 63.4975 58.1078 67.2539 58.7763C73.0476 59.795 78.7458 62.5645 84.2848 64.6337C87.0225 65.6523 90.9699 67.7215 93.5802 66.4163C96.1587 65.143 99.4694 64.4745 100.552 60.9091C100.775 60.1451 100.902 59.1583 101.157 58.1396C103.48 48.876 111.407 43.528 120.862 42.6367C121.084 42.6048 121.307 42.6048 121.53 42.573C128.756 42.1273 136.364 44.4512 143.559 42.955C146.742 42.3183 146.806 40.3765 148.016 37.9571C149.989 34.0098 150.53 31.8451 153.937 28.9483C157.916 25.5739 163.582 23.4729 168.071 20.7034C170.522 19.1754 173.069 17.2972 175.743 16.1193C181.154 13.7955 186.63 15.4827 192.328 15.3235" stroke="black" stroke-width="0.5" stroke-miterlimit="10"/>
<path d="M9.92163 80.1045C9.92163 80.1045 11.5133 78.3855 16.6385 75.7752C19.79 74.1835 22.1457 71.2548 24.9152 69.4403C26.4432 68.4216 28.2578 68.1351 30.1359 68.0396C34.72 67.8168 39.1448 67.5939 43.2514 65.3974C44.2382 64.8563 45.2569 64.2832 46.0209 63.6784C48.6949 61.5774 51.4007 59.3491 54.3294 58.1075C57.6401 56.7069 61.8421 57.4072 65.503 57.9165C71.042 58.7124 76.5492 61.0999 81.8973 62.9462C84.6668 63.9012 88.4868 65.8431 91.1608 64.6334C93.9304 63.3601 97.3366 63.2327 98.8964 59.7629C99.2147 59.0625 99.4057 58.0757 99.7877 57.1207C103.067 48.4938 111.63 42.9229 120.862 42.0953C121.084 42.0634 121.307 42.0634 121.53 42.0316C128.661 41.6496 136.014 44.2599 143.209 42.6364C146.424 41.9043 146.392 39.8988 147.665 37.4794C149.703 33.532 150.594 31.2719 154.032 28.375C157.979 25.0643 163.359 22.8996 167.752 20.0028C170.204 18.3793 172.718 16.5329 175.456 15.4188C180.9 13.1586 186.439 14.7821 192.137 14.9731" stroke="black" stroke-width="0.5" stroke-miterlimit="10"/>
<path d="M9.60339 79.3408C9.60339 79.3408 11.2587 77.6536 16.0974 74.8522C19.0898 73.1332 21.1908 70.1409 24.215 68.581C25.8067 67.7534 27.5575 67.5624 29.4039 67.5305C33.9242 67.4669 38.3491 67.4032 42.3919 65.2703C43.3788 64.761 44.3656 64.188 45.1296 63.5513C47.74 61.3867 50.3503 58.9355 53.2154 57.4711C56.335 55.9113 60.4416 56.548 63.9114 57.0891C69.1003 57.885 74.4165 59.8268 79.5735 61.4822C82.3749 62.3735 86.2586 64.2198 88.8053 63.042C91.5429 61.7687 95.4266 62.1507 97.3366 58.7763C97.7186 58.1078 98.0688 57.1846 98.5463 56.2933C102.812 48.3349 111.662 42.4775 120.798 41.6817C121.021 41.6499 121.244 41.6499 121.435 41.6499C128.183 41.5544 135.823 44.2284 142.795 42.5094C145.278 41.9045 145.819 40.3447 146.901 38.3392C149.193 34.0735 150.148 31.1448 154 27.9933C157.916 24.7462 162.946 22.4861 167.275 19.4937C169.726 17.7747 172.273 16.0238 175.01 14.9097C180.486 12.7132 186.089 14.273 191.787 14.8142" stroke="black" stroke-width="0.5" stroke-miterlimit="10"/>
<path d="M9.25317 78.5445C9.25317 78.5445 11.0677 76.8892 15.5244 73.7695C18.1347 71.955 20.4267 69.0263 23.5146 67.753C25.1381 67.0845 26.8571 66.9571 28.7035 67.0208C33.1602 67.1163 37.585 67.2118 41.6279 65.0789C42.5829 64.5696 43.5697 63.9966 44.3337 63.2963C46.9759 60.9406 49.3953 58.1392 52.324 56.5794C55.3481 54.9559 59.2 55.4652 62.638 56.0382C67.5086 56.8341 72.5701 58.5531 77.4406 59.9856C80.2738 60.8132 83.9983 62.5004 86.6087 61.3863C89.601 60.1129 93.5166 60.9088 95.9041 57.7254C96.3816 57.0887 96.8273 56.2611 97.4639 55.3697C102.812 48.0798 111.439 41.8723 120.734 41.0446C120.957 41.0128 121.18 41.0128 121.371 41.0128C128.056 40.981 135.601 44.1006 142.508 42.1906C145.023 41.4903 145.469 39.8986 146.583 37.8294C148.939 33.5319 150.212 30.5395 154.032 27.3244C157.884 24.1092 162.755 21.6262 166.861 18.6656C169.249 16.9466 171.986 15.0048 174.66 14.1134C180.104 12.2989 185.579 13.4449 191.532 14.3999" stroke="black" stroke-width="0.5" stroke-miterlimit="10"/>
<path d="M8.93481 77.7494C8.93481 77.7494 10.6857 76.0622 14.9832 72.6242C17.3389 70.7141 19.7901 68.072 22.8461 67.0533C24.4696 66.5121 26.1886 66.4484 28.0031 66.5439C32.428 66.7668 36.8847 67.0533 40.8957 64.8886C41.8507 64.3474 42.8375 63.7744 43.6015 63.0423C46.2756 60.4956 48.6949 57.344 51.6554 55.4977C54.616 53.6514 58.2131 54.1289 61.683 54.7974C66.2352 55.6569 70.9466 57.3441 75.5624 58.6174C78.3956 59.4132 81.9291 60.9412 84.635 59.8589C87.882 58.5856 91.7975 59.6997 94.6626 56.8029C95.2356 56.2299 95.8086 55.434 96.6044 54.6064C102.907 48.0805 111.184 41.3318 120.639 40.4723C120.83 40.4404 121.053 40.4404 121.244 40.4404C128.311 40.1539 135.091 44.2605 142.254 42.0321C144.8 41.2363 145.151 39.5809 146.297 37.4799C148.684 33.1505 150.244 30.0627 154.064 26.8475C157.82 23.6642 162.436 20.9265 166.447 17.9978C168.835 16.2469 171.604 14.3369 174.31 13.4774C179.785 11.7266 185.388 12.7771 191.277 14.1459" stroke="black" stroke-width="0.5" stroke-miterlimit="10"/>
<path d="M8.61646 76.8899C8.61646 76.8899 10.1126 74.8207 14.4102 71.2872C16.7022 69.409 19.1852 67.0852 22.1457 66.2575C23.8011 65.78 25.4882 65.7482 27.3027 65.9073C31.6958 66.2575 36.2161 66.735 40.1953 64.5067C41.1822 63.9655 42.1372 63.3288 42.933 62.533C45.6389 59.7953 47.7717 56.2618 51.3052 54.3836C54.6159 52.6328 57.7038 52.6009 61.0463 53.2376C65.1528 54.0334 69.6095 56.0389 73.9389 57.2168C76.8039 57.9808 80.1146 59.3496 82.8841 58.3628C86.354 57.0895 90.2695 58.4901 93.5165 55.8798C94.185 55.3386 94.8854 54.6383 95.8404 53.8424C102.621 48.0487 111.025 40.727 120.384 39.8038C120.575 39.772 120.766 39.772 120.989 39.772C128.088 39.4855 134.773 44.2924 141.935 41.8412C144.514 40.9817 144.769 39.199 145.946 37.098C148.366 32.7368 150.244 29.5534 154 26.3382C157.661 23.1867 161.99 20.1307 165.97 17.3294C168.421 15.6103 171.159 13.6685 173.896 12.8727C179.403 11.2173 185.133 12.1723 190.991 13.955" stroke="black" stroke-width="0.5" stroke-miterlimit="10"/>
<path d="M8.26636 75.9986C8.26636 75.9986 9.6352 73.3883 13.8372 70.0458C16.0974 68.2631 18.5486 66.1939 21.4773 65.4299C23.1326 65.0161 24.8198 64.9524 26.6343 65.1434C31.0273 65.5891 35.6432 66.2576 39.6224 63.9655C40.6092 63.3925 41.5961 62.724 42.4238 61.8645C45.1614 58.8722 47.358 55.3387 51.178 53.4605C54.4568 51.837 57.5447 51.5186 60.8554 51.9643C64.7391 52.4736 68.8456 54.5747 72.8248 55.7843C75.5307 56.612 78.8095 57.7898 81.5472 56.8667C85.2399 55.6252 89.1236 57.2487 92.6889 54.9567C93.4529 54.4792 94.3443 53.7788 95.3948 52.983C102.398 47.7623 111.025 40.0267 120.129 38.9762C120.32 38.9444 120.511 38.9444 120.702 38.9444C127.833 38.6579 134.518 44.2606 141.713 41.5866C144.291 40.6316 144.482 38.7852 145.692 36.6205C148.111 32.2593 150.244 28.9805 153.969 25.7016C157.534 22.5819 161.577 19.2076 165.524 16.5017C168.007 14.7827 170.777 12.8727 173.514 12.1087C179.053 10.517 184.974 11.4402 190.736 13.573" stroke="black" stroke-width="0.5" stroke-miterlimit="10"/>
<path d="M7.91614 75.0437C7.91614 75.0437 8.90298 71.9877 13.2323 68.8362C15.6835 67.0535 17.88 65.2072 20.7769 64.5387C22.4641 64.1567 24.1194 64.0612 25.9339 64.2522C30.3588 64.7615 35.0383 65.5892 39.0175 63.2335C40.0362 62.6287 41.0867 61.9283 41.8825 60.9415C44.4611 57.8536 47.1032 54.3838 50.9869 52.6011C54.2658 51.1049 57.6083 50.5319 60.7598 50.8821C64.2934 51.2641 68.2726 52.9831 71.9652 54.2246C75.0531 55.2433 78.0455 56.2619 80.4011 55.3706C84.1257 53.9699 88.4232 55.5298 91.9567 54.0018C92.7844 53.6516 93.7712 52.8558 94.9491 52.0918C102.08 47.3486 110.834 39.2628 119.684 38.085C119.875 38.0532 120.066 38.0532 120.225 38.0213C127.387 37.6712 134.136 44.197 141.426 41.2683C143.973 40.2497 144.164 38.276 145.373 36.0795C147.793 31.6864 150.148 28.3121 153.809 25.0014C157.279 21.8817 161.067 18.2845 164.983 15.6105C167.498 13.8915 170.299 12.0133 173.069 11.2811C178.608 9.78497 184.752 10.6126 190.418 13.1593" stroke="black" stroke-width="0.5" stroke-miterlimit="10"/>
<path d="M7.56604 74.088C7.56604 74.088 8.45738 70.7137 12.6594 67.6895C15.0469 65.9705 17.1798 64.2515 20.1085 63.5511C21.7956 63.1373 23.451 62.9781 25.2655 63.201C29.6904 63.7103 34.5609 64.6971 38.5401 62.3096C39.5906 61.673 40.6093 60.8771 41.4369 59.8584C44.0473 56.6433 46.976 53.4917 50.9552 51.9001C54.1385 50.6267 57.7994 49.799 61.0146 50.1492C64.5163 50.5312 68.1771 51.6772 71.647 52.8232C74.512 53.7782 77.186 54.8924 79.8282 54.0011C83.6801 52.7277 87.8821 54.4786 91.543 53.1097C92.4025 52.7914 93.5166 52.0274 94.7263 51.2634C101.921 46.934 110.675 38.5618 119.206 37.1611C119.365 37.1293 119.556 37.0975 119.747 37.0975C127.006 36.5881 133.85 44.26 141.203 41.013C143.718 39.8988 143.941 37.8296 145.151 35.6331C147.57 31.2401 150.085 27.7702 153.714 24.3959C157.088 21.2443 160.654 17.4562 164.537 14.814C167.084 13.095 169.917 11.2804 172.687 10.5483C178.258 9.11576 184.624 9.9116 190.163 12.8721" stroke="black" stroke-width="0.5" stroke-miterlimit="10"/>
<path d="M7.21582 73.1015C7.21582 73.1015 8.01166 69.5362 12.0545 66.6075C14.3465 64.9521 16.4794 63.2968 19.4081 62.5009C21.0952 62.0234 22.7506 61.8006 24.5651 61.9916C28.9581 62.4691 33.9878 63.5833 37.9352 61.1639C38.9857 60.5273 40.0044 59.7633 40.832 58.8083C43.6016 55.6567 46.7213 52.6644 50.8278 51.2319C54.2976 49.9904 57.9585 49.4492 61.3329 49.5765C64.6117 49.7039 68.2407 50.5952 71.5514 51.582C74.2891 52.3779 76.6766 53.5557 79.5416 52.6644C83.3935 51.4547 87.5955 53.3647 91.2245 52.155C92.1477 51.8685 93.2937 51.1045 94.5671 50.4042C98.9919 47.9849 103.321 45.1835 107.587 42.4458C110.93 40.3448 114.622 36.8749 118.633 36.1746C118.792 36.1428 118.983 36.1109 119.174 36.1109C126.528 35.5698 133.5 44.2285 140.917 40.7586C143.368 39.6126 143.654 37.3843 144.864 35.1559C147.283 30.7311 149.926 27.1657 153.491 23.7277C156.802 20.5443 160.112 16.5651 163.996 13.9548C166.543 12.2358 169.408 10.4531 172.241 9.7846C177.812 8.44759 184.465 9.2116 189.845 12.5223" stroke="black" stroke-width="0.5" stroke-miterlimit="10"/>
<path d="M6.8656 72.0513C6.8656 72.0513 7.56594 68.3586 11.4815 65.4617C13.7098 63.8382 15.8108 62.1829 18.7395 61.2279C20.4267 60.6867 22.1457 60.3365 23.8966 60.4639C28.1941 60.814 33.2874 62.1192 37.2666 59.8909C38.349 59.286 39.3677 58.6175 40.259 57.6943C43.1877 54.6383 46.5939 51.646 50.7004 50.5C54.3294 49.4813 58.054 48.9083 61.7148 49.0356C64.93 49.1629 68.4635 49.7041 71.7105 50.5C74.3209 51.1366 76.5492 52.3145 79.4779 51.3913C83.1388 50.2453 87.5318 52.219 91.0335 51.2321C91.9567 50.9775 93.1664 50.2453 94.5034 49.5768C99.0237 47.2848 103.48 44.5471 107.714 41.7457C110.866 39.6447 114.24 35.9202 118.092 35.2199C118.251 35.188 118.442 35.1562 118.633 35.1562C126.05 34.5514 133.245 44.2287 140.662 40.5042C143.05 39.3264 143.4 36.907 144.609 34.7105C147.029 30.2538 149.766 26.593 153.268 23.0913C156.515 19.8443 159.571 15.7377 163.487 13.1592C166.065 11.4402 168.962 9.72119 171.827 9.08451C177.43 7.84301 184.338 8.57518 189.558 12.2679" stroke="black" stroke-width="0.5" stroke-miterlimit="10"/>
<path d="M6.5155 71.0001C6.5155 71.0001 7.08851 67.2438 10.9085 64.3151C13.0414 62.6598 15.1424 60.9726 18.1029 59.8266C19.7901 59.1581 21.4773 58.6487 23.1963 58.8079C27.462 59.1899 32.4917 60.6542 36.5664 58.6487C37.6805 58.1076 38.7311 57.4709 39.6542 56.6114C42.9012 53.4917 46.3393 51.1042 50.5413 49.7353C54.1067 48.5893 58.3087 48.2073 62.1287 48.4938C65.4076 48.7167 68.8138 48.9713 72.0926 49.5762C74.6393 50.0218 76.6766 51.136 79.669 50.181C83.107 49.0668 87.6592 51.0723 91.0017 50.2447C91.9567 50.0218 93.1983 49.3215 94.5671 48.6848C99.1511 46.5201 103.703 43.878 107.842 40.9493C110.866 38.7846 113.763 34.9646 117.551 34.2006C117.71 34.1687 117.901 34.1369 118.092 34.1051C125.605 33.3729 133.022 44.1326 140.407 40.1853C142.699 38.9438 143.177 36.3971 144.355 34.2006C146.774 29.7757 149.575 25.9875 152.982 22.4221C156.197 19.1115 158.998 14.9413 162.977 12.3309C165.556 10.6437 168.516 8.92472 171.381 8.35172C177.016 7.17387 184.179 7.93788 189.24 11.9489" stroke="black" stroke-width="0.5" stroke-miterlimit="10"/>
<path d="M6.16528 69.9814C6.16528 69.9814 6.64279 66.1614 10.3355 63.1372C12.4047 61.45 14.4738 59.6673 17.4344 58.2348C19.1215 57.4071 20.745 56.9296 22.4004 57.0888C26.6343 57.5026 31.6321 59.1262 35.7705 57.3435C36.9165 56.866 38.0307 56.293 38.9538 55.4653C42.3919 52.4411 45.9572 50.1491 50.2548 48.8439C54.0111 47.6979 58.3723 47.4432 62.3833 47.7934C65.7259 48.1118 69.132 48.3346 72.5064 48.6848C74.9894 48.9394 76.9313 49.9899 79.9555 48.9394C83.2025 47.8252 87.882 49.8626 91.0654 49.1623C92.0204 48.9394 93.2937 48.3027 94.6944 47.6661C99.2784 45.6287 103.926 43.082 107.905 40.026C110.834 37.7658 113.19 33.8822 117.01 33.0863C117.169 33.0545 117.36 33.0226 117.551 32.9908C125.127 32.195 132.926 43.8779 140.153 39.7714C142.381 38.498 142.922 35.824 144.132 33.6275C146.551 29.2026 149.353 25.3189 152.695 21.6581C155.847 18.2201 158.425 14.018 162.468 11.4077C165.078 9.72049 168.071 8.06515 170.968 7.52398C176.666 6.44164 184.083 7.20564 188.954 11.5668" stroke="black" stroke-width="0.5" stroke-miterlimit="10"/>
<path d="M5.81519 68.995C5.81519 68.995 6.19719 65.0795 9.73071 61.928C11.7044 60.1772 13.8372 58.0443 16.7341 56.5481C18.3894 55.6886 19.9493 55.243 21.541 55.4021C25.743 55.8478 30.6772 57.5668 34.8792 56.0706C36.0571 55.6568 37.2031 55.1475 38.1899 54.3516C41.7871 51.4548 45.4798 49.1946 49.841 47.9212C53.7565 46.7752 58.3405 46.5206 62.4789 47.0299C65.9488 47.4756 69.4186 47.8257 72.9521 47.9849C75.4033 48.0804 77.3133 49.0036 80.3375 47.8894C83.3935 46.7434 88.0731 48.6852 91.1928 48.1441C92.1478 47.9849 93.4848 47.3482 94.8855 46.7434C99.6605 44.6424 104.913 42.0957 108.86 38.403C111.343 36.0792 112.935 32.864 116.532 32.0681C116.691 32.0363 116.882 32.0045 117.042 31.9726C124.713 31.0813 133.086 43.7192 139.898 39.3898C141.967 38.0847 142.668 35.3152 143.909 33.0868C146.36 28.6619 149.13 24.7146 152.377 20.9582C155.465 17.3929 157.884 13.159 161.991 10.5487C164.633 8.86147 167.53 7.42897 170.586 6.76046C176.348 5.45529 184.338 6.82413 188.699 11.249" stroke="black" stroke-width="0.5" stroke-miterlimit="10"/>
<path d="M5.43311 68.0079C5.43311 68.0079 5.78327 64.0287 9.1258 60.6862C11.2268 58.5851 13.4233 56.3568 16.0018 54.8606C17.5617 53.9693 19.0897 53.5554 20.6814 53.7146C24.9789 54.1603 29.6584 56.0385 33.956 54.797C35.1656 54.4468 36.3753 53.9693 37.394 53.2371C41.1185 50.4676 44.9385 48.1756 49.3316 46.9022C53.4063 45.7244 58.1495 45.3742 62.3833 46.0746C66.0123 46.6794 69.6414 47.3797 73.3977 47.3479C75.8807 47.3479 77.7589 48.1437 80.7513 46.9022C83.68 45.7244 88.3595 47.6026 91.3518 47.0932C92.3069 46.9341 93.6439 46.3929 95.0445 45.7881C99.7559 43.8144 104.977 41.3632 108.637 37.5113C110.993 35.0283 112.235 31.8768 115.927 31.0173C116.087 30.9855 116.278 30.9536 116.437 30.9218C124.14 29.9668 132.895 43.4005 139.484 38.9757C141.522 37.6068 142.317 34.8373 143.559 32.5453C146.01 28.1204 148.748 24.2049 151.899 20.2576C154.892 16.533 157.247 12.2992 161.417 9.72065C164.092 8.0653 167.02 6.66463 170.108 6.02796C175.965 4.81828 184.147 6.21896 188.349 10.9622" stroke="black" stroke-width="0.5" stroke-miterlimit="10"/>
<path d="M5.08301 67.021C5.08301 67.021 5.33768 62.9463 8.55286 59.3491C10.5584 57.0889 12.6594 54.7014 15.2697 53.1415C16.7659 52.2502 18.2939 51.8045 19.8219 51.9637C24.1195 52.4094 28.6717 54.4149 33.001 53.3962C34.2425 53.1097 35.5159 52.6959 36.5346 51.9955C40.3864 49.3533 44.3019 47.0295 48.7268 45.6607C52.8652 44.3873 57.7675 43.9416 62.0651 44.7693C65.8851 45.5015 69.7369 46.7112 73.748 46.6475C76.3265 46.6157 78.2365 47.2205 81.197 45.9153C84.0302 44.6738 88.6779 46.4883 91.6066 45.979C92.5616 45.8198 93.8986 45.3105 95.2674 44.7693C99.9151 42.923 104.945 40.5354 108.351 36.5563C110.579 33.9459 111.63 30.8899 115.323 29.9667C115.482 29.9349 115.673 29.8712 115.832 29.8712C123.599 28.8207 132.163 42.9548 139.007 38.4344C141.49 36.8109 142.54 33.1182 144.036 30.4442C146.201 26.5605 148.811 22.9952 151.422 19.4935C154.223 15.7371 156.674 11.3759 160.845 8.86107C163.55 7.23756 166.511 5.86872 169.599 5.26388C175.52 4.11787 183.924 5.61405 187.967 10.6119" stroke="black" stroke-width="0.5" stroke-miterlimit="10"/>
<path d="M4.73279 66.0345C4.73279 66.0345 4.92379 61.8962 7.97981 57.9807C9.85799 55.5931 11.9272 53.0465 14.5375 51.4229C16.0019 50.4998 17.498 50.0859 18.9942 50.2451C23.2599 50.6908 27.7166 52.8236 32.046 52.0278C33.3511 51.8049 34.6563 51.4229 35.7068 50.7544C39.6542 48.2396 43.6334 45.8202 48.0583 44.3241C52.4194 42.8597 57.1308 42.3504 61.4602 43.1781C65.3757 43.9102 69.6732 45.9794 74.0026 45.9794C76.7721 45.9794 78.714 46.4569 81.6426 45.0244C84.4122 43.6874 89.028 45.4064 91.9249 44.9289C92.8481 44.7697 94.1532 44.2604 95.5857 43.7511C100.297 42.0639 104.945 39.5809 108.064 35.6017C110.166 32.9277 111.184 29.8716 114.877 28.9166C115.036 28.8848 115.227 28.8211 115.386 28.8211C123.376 27.6751 131.589 42.3504 138.688 37.8937C141.267 36.2702 142.349 32.5138 143.845 29.808C145.978 25.9243 148.589 22.2953 151.008 18.7617C153.65 14.9099 156.229 10.485 160.431 8.00199C163.168 6.37848 166.256 4.91414 169.28 4.5003C175.233 3.70446 183.669 4.72313 187.776 10.2622" stroke="black" stroke-width="0.5" stroke-miterlimit="10"/>
<path d="M4.38269 65.0474C4.54186 61.8004 5.8152 59.1901 7.40688 56.5479C8.99855 53.9694 11.1951 51.3908 13.7736 49.7037C15.2061 48.7805 16.7023 48.3348 18.1666 48.494C22.4005 48.9078 26.7935 51.2317 31.0592 50.6268C32.3325 50.4358 33.7332 50.1175 34.8156 49.4808C38.8266 47.0933 42.8376 44.6103 47.2625 42.8276C51.751 41.0131 56.3669 40.1854 60.6962 41.1404C64.7709 42.0318 69.3868 44.9605 74.0663 45.247C77.0905 45.438 79.096 45.7245 82.0247 44.2283C85.5901 42.3819 88.5188 45.0878 92.2433 43.9418C93.1665 43.6553 94.4398 43.2414 95.8723 42.7639C100.584 41.1404 104.69 38.7211 107.619 34.6782C109.624 31.9405 110.707 28.8527 114.368 27.8658C114.527 27.834 114.718 27.7703 114.877 27.7385C123.09 26.4652 130.985 41.6816 138.275 37.3204C140.917 35.7287 142.031 31.9087 143.559 29.1392C145.66 25.2873 148.175 21.6265 150.499 17.9974C153.045 14.0182 155.688 9.59338 159.953 7.1422C162.723 5.55052 165.874 4.11801 168.898 3.73601C174.915 3.00384 183.574 4.08618 187.521 9.94355" stroke="black" stroke-width="0.5" stroke-miterlimit="10"/>
<path d="M4.03247 64.0611C4.09614 60.7186 5.30581 57.8535 6.83382 55.084C8.29817 52.4737 10.431 49.736 13.0095 48.017C14.4102 47.062 15.9064 46.6481 17.3389 46.7755C21.5728 47.1893 25.8066 49.6087 30.0723 49.2267C31.3457 49.0993 32.7782 48.8128 33.8923 48.1761C38.0307 45.8523 42.1372 43.2101 46.4984 41.0773C51.0188 38.8489 55.6028 37.7029 59.9322 38.7534C64.166 39.7721 68.9411 43.6558 73.8434 44.3561C77.186 44.8336 79.3506 44.9928 82.2157 43.4011C85.781 41.4274 88.7415 44.1015 92.4661 42.9236C93.3892 42.6371 94.6626 42.2233 96.0314 41.7139C100.647 40.0904 104.308 37.7984 107.078 33.7555C108.988 30.9542 110.166 27.8345 113.795 26.8158C113.954 26.7522 114.145 26.7203 114.304 26.6885C122.708 25.3197 130.316 40.9818 137.797 36.7161C140.503 35.1881 141.681 31.2725 143.177 28.4712C145.246 24.6193 147.634 20.9266 149.894 17.2339C152.409 13.1274 155.083 8.73438 159.412 6.2832C162.213 4.72336 165.397 3.32268 168.453 2.97251C174.565 2.27217 183.383 3.45001 187.203 9.56205" stroke="black" stroke-width="0.5" stroke-miterlimit="10"/>
<path d="M3.68225 63.0741C3.68225 59.6043 4.79642 56.5164 6.2926 53.5877C7.66144 50.9137 9.73062 48.0805 12.3091 46.2978C13.7098 45.3428 15.1742 44.8972 16.6067 45.0245C20.8087 45.4065 24.9471 47.9532 29.2128 47.7622C30.4861 47.6985 31.9186 47.412 33.0646 46.8072C37.394 44.5152 41.596 41.5546 45.8617 39.008C50.2866 36.3976 54.6478 35.1243 59.2318 36.0474C64.1023 37.0343 68.3044 41.682 73.3659 43.1781C76.2627 44.0377 79.7644 43.974 82.3429 42.5415C85.972 40.5041 89.028 43.1145 92.7525 41.9048C93.6439 41.6183 94.9172 41.1726 96.286 40.6951C100.806 39.0398 104.022 36.8433 106.632 32.8004C108.478 29.9354 109.72 26.8157 113.317 25.7652C113.476 25.7015 113.667 25.6697 113.826 25.6379C122.39 24.1735 129.743 40.2495 137.415 36.0793C142.668 33.2142 146.201 21.8497 149.384 16.438C151.836 12.2678 154.573 7.81108 158.966 5.42356C161.799 3.86372 165.015 2.52671 168.103 2.20838C174.31 1.5717 183.287 2.84505 186.98 9.21176" stroke="black" stroke-width="0.5" stroke-miterlimit="10"/>
<path d="M3.33219 62.0874C3.23669 58.6493 4.15987 55.1795 5.71971 52.1553C7.18405 49.3539 8.99857 46.4571 11.5771 44.6426C12.9459 43.6557 14.4421 43.2419 15.8428 43.3374C20.0448 43.6876 24.0877 46.3298 28.3215 46.3616C29.5949 46.3616 30.9955 46.0751 32.1734 45.4702C36.7256 43.1146 40.9913 39.4855 45.2251 36.7479C49.1088 34.2648 53.6292 31.8455 58.4997 33.2143C63.8478 34.7423 67.8906 39.772 72.6338 41.6502C75.7217 42.8599 79.0324 43.5602 82.1839 41.7139C85.8766 39.581 89.1236 42.2232 92.88 40.9817C93.7713 40.6952 94.981 40.2495 96.3498 39.7402C100.775 38.053 103.608 35.8884 106.059 31.8773C107.842 28.9805 109.147 25.7971 112.712 24.7466C112.871 24.6829 113.062 24.6511 113.222 24.6193C121.944 23.0913 129.043 39.4855 136.874 35.4108C142.222 32.6413 145.596 21.0858 148.716 15.6422C151.135 11.4084 153.905 6.91983 158.362 4.56414C161.227 3.03613 164.474 1.73096 167.561 1.44446C173.865 0.839619 182.969 2.20846 186.534 8.82984" stroke="black" stroke-width="0.5" stroke-miterlimit="10"/>
<path d="M2.98195 61.0679C2.82278 57.5344 3.65045 53.8736 5.14663 50.6902C6.51547 47.7933 8.26632 44.8328 10.8767 42.9546C12.2773 41.9678 13.7735 41.5221 15.1424 41.6176C19.3444 41.936 23.2918 44.6737 27.5256 44.9283C28.8308 44.992 30.1996 44.7373 31.3775 44.1325C36.1843 41.6813 40.3864 37.4474 44.6839 34.3596C48.4403 31.6537 52.9288 28.9161 57.7993 30.2849C63.3702 31.8447 67.2857 37.1609 71.9334 39.8031C75.0213 41.554 78.3956 42.891 81.8655 40.8218C85.6537 38.5935 89.1554 41.3948 93.0072 40.0578C93.8986 39.7395 95.0764 39.3256 96.3816 38.7845C100.711 37.0654 103.194 34.8689 105.55 30.9534C107.3 28.0247 108.606 24.8414 112.171 23.759C112.33 23.6954 112.521 23.6635 112.68 23.6317C121.562 21.9763 128.406 38.7845 136.396 34.7734C141.872 32.0039 145.023 20.321 148.143 14.8775C150.562 10.6118 153.364 6.0914 157.884 3.76755C160.781 2.27138 164.092 0.998036 167.179 0.743367C173.578 0.202197 182.81 1.63471 186.248 8.47892" stroke="black" stroke-width="0.5" stroke-miterlimit="10"/>
<path d="M2.59996 60.0816C2.37712 56.4208 3.10929 52.6326 4.5418 49.2901C5.81515 46.2977 7.53416 43.2417 10.1763 41.3317C11.577 40.313 13.105 39.8673 14.4739 39.9628C18.7077 40.2493 22.5914 43.0825 26.7616 43.5282C28.0668 43.6555 29.4038 43.4645 30.6453 42.8597C35.675 40.313 39.8452 35.3151 44.1427 31.9408C47.7399 29.1076 52.1966 26.0834 57.099 27.4204C62.7972 28.9484 66.7127 34.5511 71.1694 37.7663C74.0663 39.8673 77.5361 42.0957 81.2607 39.9628C85.208 37.7026 88.9962 40.695 93.0391 39.2625C93.9304 38.9442 95.0764 38.4985 96.3498 37.9573C100.488 36.2065 102.812 33.9145 105.072 30.1263C106.823 27.1976 108.096 23.9824 111.662 22.8682C111.821 22.8045 112.012 22.7727 112.171 22.7409C121.18 21.0219 127.801 38.0847 135.919 34.1691C141.522 31.4951 144.482 19.6212 147.57 14.1777C149.989 9.91196 152.822 5.32793 157.407 3.03592C160.335 1.57157 163.55 0.489232 166.797 0.107229C173.387 -0.656776 182.842 1.4124 185.961 8.19295" stroke="black" stroke-width="0.5" stroke-miterlimit="10"/>
<path d="M2.24979 59.0315C1.96329 55.2433 2.63179 51.3596 3.9688 47.8579C5.14664 44.77 6.86565 41.6185 9.53967 39.6767C10.9722 38.6262 12.5002 38.2123 13.9009 38.276C18.1984 38.5307 22.0184 41.4275 26.1568 42.0642C27.4301 42.2552 28.799 42.1597 30.0723 41.4275C35.2293 38.467 39.2085 33.0871 43.6971 29.3944C47.2624 26.4657 51.56 23.2824 56.4942 24.5239C62.2879 25.9882 66.2671 31.6546 70.4373 35.411C73.0476 37.7666 76.7721 40.8863 80.5922 38.7853C84.6668 36.5251 88.7734 39.8995 92.9754 38.3715C93.8667 38.0532 94.9809 37.5756 96.2224 37.0663C103.385 33.9466 104.181 24.0782 111.152 21.8817C111.312 21.818 111.503 21.7862 111.662 21.7544C120.83 19.908 127.165 37.0981 135.441 33.4055C141.044 30.8906 143.973 18.762 146.997 13.3185C149.384 8.98912 152.281 4.43693 156.961 2.17674C159.921 0.744235 163.2 -0.274438 166.447 -0.624607C173.164 -1.35678 182.682 0.807903 185.675 7.77945" stroke="black" stroke-width="0.5" stroke-miterlimit="10"/>
<path d="M1.89969 58.0127C1.51768 54.0017 2.24985 50.1817 3.39586 46.4572C4.3827 43.2738 6.22905 40.0268 8.9349 38.0531C10.3674 37.0026 11.9273 36.5888 13.3598 36.5888C17.7528 36.5888 21.541 39.5811 25.6793 40.377C26.9527 40.6316 28.3534 40.5361 29.5949 39.7721C34.7837 36.5888 38.6993 30.7632 43.2515 26.8477C46.7213 23.8554 50.9234 20.672 55.8576 21.7862C61.7149 23.1232 65.7578 28.8532 69.7051 32.8961C72.1563 35.4109 75.9127 39.4538 79.9237 37.4483C84.0939 35.3473 88.3914 39.1673 92.8163 37.5119C93.7076 37.1936 94.79 36.7161 95.9997 36.1749C102.971 32.9597 103.767 23.1232 110.675 20.9267C110.834 20.863 111.025 20.8312 111.184 20.7993C120.48 18.953 126.592 36.2068 134.964 32.7051C140.567 30.3494 143.495 17.998 146.456 12.5544C148.843 8.16141 151.804 3.60922 156.515 1.44453C159.539 0.0438581 162.818 -0.942982 166.097 -1.26132C172.941 -1.96166 182.523 0.234859 185.42 7.46107" stroke="black" stroke-width="0.5" stroke-miterlimit="10"/>
<path d="M1.54941 56.9939C1.10374 52.8873 1.74041 48.9081 2.82275 45.0881C3.74592 41.8093 5.56043 38.4667 8.36178 36.4612C9.85796 35.3789 11.386 34.9332 12.8503 34.8377C17.3388 34.5512 21.1589 37.5754 25.2654 38.5304C26.5387 38.8169 27.9713 38.7532 29.2128 37.9574C34.4335 34.6149 38.2535 28.4392 42.8375 24.3963C46.2437 21.3721 50.2866 18.3161 55.2208 19.3029C61.1418 20.4808 65.1528 26.0516 68.941 30.3173C71.2967 32.9914 75.0212 37.8301 79.1914 35.9837C83.5208 34.0737 87.7228 38.4986 92.466 36.7159C93.3574 36.3975 94.4397 35.92 95.5857 35.347C102.366 32.0364 103.289 22.1998 110.134 20.0033C110.293 19.9396 110.484 19.9078 110.643 19.8759C120.034 17.9659 125.955 35.2515 134.391 31.9409C139.962 29.7762 142.922 17.1383 145.851 11.7265C148.238 7.30169 151.263 2.78132 156.038 0.648475C159.094 -0.720368 162.404 -1.64354 165.715 -1.93004C172.718 -2.56671 182.3 -0.370199 185.07 7.04702" stroke="black" stroke-width="0.5" stroke-miterlimit="10"/>
<path d="M1.19933 55.9747C0.689994 51.7727 1.10383 47.4752 2.218 43.7188C3.20484 40.4399 4.73285 37.0974 7.75704 34.8691C9.22139 33.7867 10.8449 33.1819 12.3411 32.9909C16.8933 32.4497 20.8088 35.3784 24.8835 36.5244C26.1568 36.8746 27.5893 36.7791 28.8627 35.9514C34.0834 32.5134 37.8079 26.1148 42.3919 22.0083C45.7663 19.016 49.65 16.2783 54.5842 17.0741C60.5689 18.061 64.5163 23.218 68.1771 27.6429C70.501 30.4442 74.1937 35.9196 78.4912 34.3597C83.1071 32.6726 86.8634 37.8614 92.0205 35.9196C92.9118 35.5694 93.9623 35.1237 95.0765 34.5507C101.889 31.2082 102.78 21.308 109.624 19.1115C109.784 19.0478 109.975 19.016 110.134 18.9841C119.588 17.0741 125.382 34.2961 133.85 31.2082C139.357 29.2027 142.413 16.3738 145.278 10.9621C147.665 6.47354 150.753 1.98501 155.592 -0.0841679C158.68 -1.42118 162.022 -2.28068 165.365 -2.56718C172.496 -3.17202 182.078 -0.943673 184.783 6.66454" stroke="black" stroke-width="0.5" stroke-miterlimit="10"/>
<path d="M0.84912 54.9245C-0.105887 47.7301 1.00829 37.9572 7.184 33.2777C15.1742 27.2293 22.2094 37.8617 28.5761 33.8825C36.7574 28.7255 41.8189 13.7319 53.9156 15.2599C59.9004 16.0239 63.5612 20.4169 67.1902 24.7463C69.7369 27.7705 73.3341 33.9462 77.759 32.641C80.5603 31.8133 81.8973 33.6915 84.3167 34.551C88.2322 35.9199 90.6197 35.8562 94.4716 33.8188C101.061 30.3808 102.303 20.3533 109.083 18.2522C118.761 15.2599 124.586 33.4368 133.245 30.4127C137.829 28.821 139.612 20.1941 141.681 15.8647C144.705 9.59352 148.366 1.6988 155.114 -0.816053C163.869 -4.09491 180.486 -5.59109 184.433 6.31466" stroke="black" stroke-width="0.5" stroke-miterlimit="10"/>
</g>
<defs>
<clipPath id="clip0_1_1517">
<rect width="198.864" height="112.882" fill="white"/>
</clipPath>
</defs>
</svg>
