<svg width="1149" height="801" viewBox="0 0 1149 801" fill="none" xmlns="http://www.w3.org/2000/svg">
<g clip-path="url(#clip0_1_3)">
<path d="M-79.6624 311.159C-51.6267 317.614 -22.508 324.56 5.80135 325.062C54.4902 325.868 69.7831 262.923 109.097 246.969C145.902 232.021 183.204 232.848 221.683 250.828C262.636 269.93 297.224 299.371 334.138 324.505C373.083 350.918 403.494 321.277 429.722 295.101C454.949 269.901 477.977 245.848 517.465 248.023C556.577 250.206 595.063 253.356 631.784 246.413C679.925 237.319 700.385 217.285 710.464 169.134C717.91 133.371 741.38 105.051 776.956 92.4055C813.177 79.1593 852.148 82.8868 888.027 93.4336C939.082 108.358 979.836 153.82 1032.52 170.912C1055.63 178.352 1083.56 176 1101.6 160.054" stroke="black" stroke-width="0.5" stroke-miterlimit="10"/>
<path d="M-77.3605 315.956C-48.9684 322.036 -19.5403 329.122 9.03159 330.28C12.1323 330.434 15.2126 330.222 18.1383 329.94C60.9604 325.584 77.3532 272.968 113.365 257.303C149.666 241.412 185.911 240.866 224.214 258.409C265.215 276.997 298.854 305.651 335.324 330.941C369.298 354.742 395.839 336.929 421.167 313.562C424.105 310.784 427.178 307.709 430.25 304.634C452.095 282.368 473.111 257.404 507.15 255.142C510.762 254.992 514.528 254.913 518.537 255.122C556.122 256.97 592.288 259.068 629.244 253.661C647.047 251.009 667.095 246.694 681.116 238.396C702.446 225.905 710.322 206.064 715.922 180.544C718.098 170.808 720.791 159.518 725.119 149.149C734.044 127.817 755.244 110.264 776.401 101.447C789.077 96.1137 802.783 93.0342 817.055 91.9982C839.815 90.3423 863.525 93.5849 885.157 100.175C908.936 107.381 930.329 121.904 951.574 135.11C977.037 150.943 1003.6 167.633 1032.4 176.935C1055.82 184.515 1082.73 181.523 1101.66 166.514" stroke="black" stroke-width="0.5" stroke-miterlimit="10"/>
<path d="M-74.9711 320.971C-46.1352 326.895 -16.7274 333.614 12.1946 335.646C15.2952 335.8 18.4631 335.807 21.5435 335.595C64.3124 333.002 82.9931 283.567 117.875 267.926C153.557 251.755 188.463 248.814 226.813 265.843C267.86 283.915 300.464 311.563 336.355 337.306C370.04 361.334 395.835 346.4 421.54 323.024C424.478 320.246 427.551 317.171 430.624 314.096C452.334 292.127 474.472 264.276 508.511 262.014C511.968 261.794 515.58 261.645 519.589 261.853C555.801 263.437 590.595 265.27 626.22 260.333C644.332 257.821 664.246 253.802 679.901 246.423C703.707 235.055 715.068 218.223 721.582 191.51C723.913 181.843 726.451 170.484 730.16 159.834C737.605 137.653 755.106 120.031 775.96 109.826C787.708 104.071 800.997 100.266 814.872 98.8718C837.369 96.5607 860.769 99.6631 882.382 105.887C906.759 113.006 928.683 127.592 950.439 140.493C976.723 156.162 1003.51 172.774 1032.91 181.99C1056.62 189.343 1082.6 185.931 1102.19 171.935" stroke="black" stroke-width="0.5" stroke-miterlimit="10"/>
<path d="M-72.5144 325.838C-43.3222 331.387 -13.78 337.81 15.4045 340.496C18.5927 340.869 21.7606 340.876 24.841 340.664C67.5567 339.834 88.0548 294.618 122.23 278.479C157.071 262.105 190.638 256.77 229.237 272.839C270.533 289.952 301.986 317.257 337.433 343.156C369.107 366.272 396.027 356.673 421.759 332.417C424.697 329.638 427.857 326.782 430.93 323.707C451.994 302.339 476.035 270.703 509.717 268.816C513.329 268.666 516.564 268.525 520.264 268.593C555.037 270.06 588.236 271.707 622.442 267.02C640.931 264.5 660.535 260.341 676.938 254.194C702.13 244.705 718.374 230.266 726.046 202.648C728.618 193.27 731.224 181.762 734.402 171.05C740.783 148.744 754.235 130.18 774.698 118.368C785.585 112.045 798.168 107.741 811.558 105.769C833.705 102.585 856.951 105.617 878.476 111.622C903.451 118.655 926.217 133.444 948.659 146.477C975.541 162.06 1002.93 178.586 1032.77 187.645C1056.7 194.921 1082.06 191.228 1102.07 177.957" stroke="black" stroke-width="0.5" stroke-miterlimit="10"/>
<path d="M-70.125 330.852C-40.7312 335.957 -10.967 342.302 18.48 345.643C21.6682 346.016 24.9908 346.093 28.0915 346.247C70.6665 346.962 92.9352 306.481 126.781 289.835C161.07 273.032 192.988 265.163 231.681 280.202C273.225 296.355 304.214 323.45 338.754 349.295C371.241 373.495 395.277 364.911 422.219 342.097C425.245 339.537 428.25 336.61 431.323 333.535C452.832 312.011 476.765 279.79 510.346 276.07C513.87 275.702 517.482 275.552 521.114 275.769C554.38 277.268 586.053 278.58 618.752 273.925C637.241 271.405 656.469 267.254 673.355 261.684C698.985 253.287 720.712 241.155 729.91 213.871C732.947 204.704 735.795 193.485 738.663 182.632C744.198 161.372 754.165 139.798 773.369 127.059C783.55 120.236 795.029 115.075 808.023 112.744C829.82 108.686 853.133 111.57 874.503 117.505C900.232 124.523 923.838 139.514 947.033 152.531C974.359 167.957 1002.19 184.327 1032.47 193.23C1056.47 200.358 1081.13 196.166 1101.79 183.909" stroke="black" stroke-width="0.5" stroke-miterlimit="10"/>
<path d="M-67.6684 335.719C-37.851 340.301 -7.88524 346.201 21.6024 350.276C24.7906 350.649 28.2007 350.944 31.3014 351.099C72.2088 353.023 100.055 317.93 131.358 300.31C163.394 282.307 195.52 272.744 234.151 286.683C275.857 301.659 305.958 329.066 340.41 354.693C372.279 378.612 395.098 373.945 422.882 351.333C425.84 348.922 429 346.065 432.073 342.99C454.025 321.31 477.871 288.871 511.438 283.536C514.874 282.949 518.553 282.651 522.253 282.72C554.019 283.002 584.448 285.002 615.795 280.448C633.974 277.788 652.913 273.863 669.753 268.809C694.757 261.379 722.679 250.804 733.909 224.799C737.72 215.982 740.964 205.122 743.611 194.348C749.011 173.384 756.415 150.469 773.48 135.866C782.49 128.335 793.33 122.526 805.839 119.618C827.132 114.617 850.599 117.571 871.882 123.287C898.519 130.359 922.811 145.482 946.693 158.632C974.462 173.902 1002.8 189.967 1033.31 198.793C1057.44 205.623 1081.48 201.151 1102.65 189.838" stroke="black" stroke-width="0.5" stroke-miterlimit="10"/>
<path d="M-65.279 340.734C-35.1928 344.723 -5.00503 350.545 24.6576 355.057C28.0005 355.5 31.2559 355.725 34.4441 356.098C75.3452 359.27 104.384 329.364 135.626 310.644C166.646 292.002 197.83 280.404 236.245 293.173C278.112 306.97 307.702 334.682 341.777 360.317C373.162 383.659 394.832 382.76 423.255 360.796C426.146 358.532 429.306 355.676 432.312 352.749C454.796 331.131 478.641 298.692 511.992 292.187C515.496 291.452 519.02 291.084 522.787 291.004C552.986 290.219 582.439 292.312 612.347 287.642C629.84 284.849 648.093 280.793 664.953 276.105C690.287 269.182 721.835 260.072 736.025 235.766C740.851 227.589 744.493 217.087 747.381 206.601C753.158 185.63 759.056 162.747 773.827 146.21C781.491 137.532 791.45 130.788 803.407 127.452C825.082 121.194 847.77 125.045 869.167 130.099C895.763 136.437 921.2 153.151 946.17 165.544C974.41 179.776 1003.24 196.419 1033.72 204.877C1057.92 211.56 1081.25 206.588 1102.99 196.071" stroke="black" stroke-width="0.5" stroke-miterlimit="10"/>
<path d="M-62.977 345.531C-32.622 348.926 -2.36704 354.6 27.4706 359.548C30.7463 360.14 34.1565 360.435 37.3447 360.808C78.5286 365.002 107.851 340.229 139.389 320.035C169.548 300.823 199.877 287.408 238.077 299.007C279.883 311.704 309.513 340.149 343.259 365.277C371.024 385.906 396.113 392.276 423.587 369.525C426.324 367.191 429.659 364.771 432.665 361.845C455.458 340.366 479.613 308.068 512.614 300.689C516.118 299.954 519.709 299.438 523.388 299.14C552.282 297.942 580.854 299.099 609.236 294.094C626.042 291.169 643.609 286.98 660.113 282.667C687.02 275.564 718.764 267.258 737.017 245.509C743.101 238.259 747.449 228.256 750.668 218.278C757.373 197.727 762.295 174.938 775.034 157.123C781.75 147.658 790.39 138.885 801.708 134.902C822.858 127.334 845.788 131.474 866.876 136.387C894.003 142.788 920.038 159.416 945.453 171.652C974.049 185.51 1003.01 201.856 1033.47 209.948C1057.66 216.264 1080.59 210.933 1102.61 201.438" stroke="black" stroke-width="0.5" stroke-miterlimit="10"/>
<path d="M-60.5204 350.397C-29.8965 353.2 0.425641 358.726 30.5055 363.962C33.7813 364.554 37.1914 364.849 40.5343 365.292C82.223 370.43 111.278 350.361 143.353 328.981C172.806 309.27 202.213 294.186 240.13 304.763C281.875 316.361 311.789 345.827 345.426 370.37C371.846 389.853 397.206 399.742 424.519 378.168C427.343 376.052 430.456 373.711 433.549 371.003C456.961 349.805 481.157 318.24 514.05 310.276C517.621 309.393 521.213 308.877 525.046 308.649C552.945 307.178 580.702 307.251 607.846 301.685C623.879 298.41 640.78 294.455 656.84 290.298C684.635 282.883 714.805 274.757 736.987 255.861C745.197 248.86 750.225 240.237 754.149 230.758C762.18 210.986 766.678 188.721 777.958 170.422C784.189 160.38 792.082 150.376 802.256 144.801C821.294 134.488 845.724 139.844 866.26 144.329C893.589 150.285 920.088 167.123 946.014 179.055C974.724 192.249 1003.91 208.517 1034.26 216.024C1058.58 222.044 1080.96 216.285 1103.27 207.811" stroke="black" stroke-width="0.5" stroke-miterlimit="10"/>
<path d="M-58.0637 355.264C-27.2586 357.256 3.06356 362.781 33.4529 368.158C36.8833 368.82 40.2263 369.263 43.5692 369.706C85.6752 375.57 114.288 359.768 146.813 336.983C175.492 316.922 204.199 300.091 241.921 309.864C283.316 320.588 313.775 351.732 347.419 375.027C372.829 392.622 397.591 406.708 425.409 386.078C428.166 384.111 431.434 381.839 434.46 379.279C459.197 358.861 482.371 327.905 515.331 319.793C518.902 318.91 522.716 318.315 526.395 318.017C553.984 316.406 579.663 315.716 606.9 309.12C622.449 305.267 638.24 301.703 653.614 297.414C681.544 289.702 711.027 281.444 735.013 265.153C744.171 258.939 751.432 251.151 755.929 242.466C765.769 224.052 770.376 202.371 780.68 184.167C786.447 173.914 793.835 162.966 803.639 156.151C822.07 143.061 845.216 148.371 865.953 152.411C893.175 157.782 920.05 174.612 946.178 186.099C974.78 198.709 1004.01 214.462 1034.19 221.532C1058.49 227.185 1080.4 221.215 1103.13 213.467" stroke="black" stroke-width="0.5" stroke-miterlimit="10"/>
<path d="M-55.7618 360.061C-24.8426 361.389 5.614 366.618 36.2456 372.284C39.676 372.945 43.0189 373.388 46.3618 373.832C88.9523 380.272 117.015 368.153 149.923 344.112C178.05 323.622 206.01 305.558 243.624 314.747C284.844 325.034 316.164 356.747 349.855 379.527C374.074 396.046 399.47 412.027 426.811 393.683C429.501 391.864 432.789 389.959 435.902 387.618C461.608 368.354 484.446 338.138 517.252 329.956C520.823 329.073 524.636 328.479 528.625 328.321C556.368 326.78 581.96 325.872 607.811 317.396C618.995 313.71 635.539 310.129 651.935 305.231C679.535 297.012 707.956 288.63 733.106 274.296C742.971 268.582 752.021 261.783 757.487 254.253C769.487 238.068 774.732 217.035 784.546 199.502C790.159 189.178 797.6 176.467 807.027 169.661C825.458 156.571 842.932 157.523 867.591 161.553C894.839 166.042 921.943 181.546 947.579 193.705C975.536 206.915 1004.89 220.757 1034.96 227.242C1059.3 232.38 1080.76 226.2 1103.76 219.473" stroke="black" stroke-width="0.5" stroke-miterlimit="10"/>
<path d="M-53.4599 364.857C-22.3593 365.374 8.16442 370.455 38.8835 376.339C42.3139 377.001 45.8116 377.514 49.0873 378.105C91.7855 385.131 119.412 376.031 152.636 350.882C180.077 330.26 207.734 310.808 245.039 319.856C285.861 329.784 318.264 361.988 351.935 384.401C375.427 400.055 400.864 416.77 428.058 401.218C430.835 399.618 434.143 398.08 437.122 396.034C463.818 378.291 486.319 348.817 519.145 341.002C522.871 340.189 526.752 339.446 530.74 339.288C558.726 338.036 584.533 338.298 610.021 327.334C620.7 322.703 635.341 318.796 651.118 313.618C678.079 304.752 705.416 295.878 730.735 283.229C740.929 278.022 750.908 271.644 757.585 265.556C772.162 252.327 778.598 232.37 788.318 215.866C794.173 205.832 801.439 192.684 810.893 184.996C828.288 170.9 845.64 169.652 869.753 172.005C896.059 174.459 923.647 190.54 948.712 201.903C976.407 214.458 1005.25 227.356 1034.91 233.116C1059.39 237.957 1080.44 231.419 1103.58 225.644" stroke="black" stroke-width="0.5" stroke-miterlimit="10"/>
<path d="M-51.158 369.654C-19.8089 369.211 10.7821 374.143 41.5887 380.246C45.0191 380.908 48.5168 381.421 51.7925 382.012C94.3563 389.334 122.172 382.286 155.221 356.7C181.976 335.946 209.572 315.394 246.587 324.668C287.343 334.745 320.566 366.785 354.748 388.893C377.911 404.04 402.392 421.215 430.017 408.004C432.66 406.7 436.056 405.38 439.055 403.702C466.76 387.846 489.08 359.183 521.792 352.031C525.518 351.218 529.708 350.616 533.697 350.458C562.234 349.634 588.123 351.362 614.04 338.628C624.766 333.482 636.978 327.938 651.982 322.409C677.994 312.755 704.094 303.32 729.251 291.85C739.621 287.079 749.264 281.442 757.198 276.283C773.646 265.51 782.505 248.438 792.952 232.8C799.291 223.342 806.779 210.117 816.347 201.765C832.881 187.1 850.353 183.941 873.901 184.251C899.109 184.598 926.812 200.017 950.84 210.374C977.808 222.063 1007.34 235.094 1035.39 239.052C1059.63 242.357 1079.86 235.983 1103.92 231.877" stroke="black" stroke-width="0.5" stroke-miterlimit="10"/>
<path d="M-48.8561 374.45C-17.4804 373.126 13.3325 377.981 44.2063 383.935C47.6367 384.596 51.1344 385.11 54.5648 385.771C96.4629 393.328 124.958 387.66 157.543 361.863C183.834 340.899 211.477 319.832 248.203 329.333C288.69 340.002 322.848 371.215 357.474 393.167C380.77 408.018 404.236 424.553 432.4 414.267C435.064 413.33 437.794 412.245 440.881 410.784C469.615 397.183 491.996 369.62 524.594 363.131C528.475 362.388 532.665 361.786 536.896 361.916C566.139 361.592 592.129 365.153 618.873 351.006C629.713 345.197 639.786 337.79 653.861 331.839C678.616 321.258 703.545 311.114 728.057 300.244C738.292 295.77 748.177 290.422 756.395 286.284C773.341 277.703 785.194 264.312 797.208 249.742C804.563 240.924 812.293 227.986 822.285 219.112C838.509 204.307 856.149 198.722 879.219 197.206C903.263 195.596 929.734 209.205 953.258 218.618C979.721 229.364 1007.23 239.868 1035.76 244.404C1060.95 248.496 1080.57 240.593 1104.31 237.595" stroke="black" stroke-width="0.5" stroke-miterlimit="10"/>
<path d="M-46.4869 379.099C-15.0174 376.745 15.8627 381.451 46.7365 387.405C50.1669 388.067 53.6646 388.58 57.095 389.242C98.6164 396.806 127.509 391.497 159.515 366.153C185.383 345.711 214.807 322.771 249.664 333.927C289.055 346.602 324.49 374.998 360.334 397.145C383.61 411.629 406.88 427.361 435.429 419.93C437.958 419.289 440.776 418.422 443.506 417.336C472.544 405.123 495.578 379.822 527.773 374.223C531.808 373.55 536.086 373.166 540.383 373.148C569.224 373.713 598.396 378.896 624.238 363.446C634.749 357.131 646.065 349.036 657.578 341.745C678.712 328.451 703.951 318.447 727.663 308.108C737.676 303.712 747.447 299.027 755.84 295.326C773.136 287.619 787.271 278.657 801.135 266.177C809.459 258.513 818.064 247.759 828.62 236.818C843.385 221.529 864.582 213.446 885.331 210.878C908.85 207.958 933.605 219.181 956.072 227.222C981.923 236.439 1008.39 245.937 1035.38 249.771C1060.24 253.356 1080.24 245.445 1103.95 243.329" stroke="black" stroke-width="0.5" stroke-miterlimit="10"/>
<path d="M-44.0303 383.966C-12.6217 380.512 18.5475 384.991 49.4213 390.946C52.8518 391.607 56.3494 392.121 59.7798 392.782C100.703 400.433 130.086 394.452 161.4 370.224C187.153 350.445 216.181 327.147 251.388 339.176C291.129 352.725 327.014 379.716 363.368 401.558C386.847 415.598 410.211 430.3 438.612 425.662C441.229 425.239 444.067 424.739 446.663 423.95C475.755 414.085 499.779 390.305 531.281 385.821C535.471 385.218 539.903 384.904 544.289 385.105C573.015 386.333 604.925 393.293 630.02 376.612C640.201 369.789 651.585 361.546 662.747 353.382C682.825 338.715 705.481 327.004 728.661 316.603C738.453 312.284 748.022 308.044 756.435 304.71C773.637 298.032 789.972 292.034 805.062 282.612C814.685 276.609 824.44 266.198 835.884 254.944C851.335 239.788 871.919 230.176 892.855 225.549C914.901 220.531 938.801 229.936 960.434 236.526C985.14 244.153 1010.4 252.208 1035.92 255.559C1060.54 258.856 1080.99 250.788 1104.52 249.483" stroke="black" stroke-width="0.5" stroke-miterlimit="10"/>
<path d="M-41.7284 388.762C-10.3807 384.209 20.8557 388.54 52.0187 394.268C55.4491 394.93 58.9467 395.443 62.3771 396.104C102.17 403.779 132.468 396.604 163.177 373.711C189.327 354.291 217.642 331.741 253.576 344.636C293.822 359.128 329.76 384.357 366.76 405.598C390.439 419.193 414.119 432.787 442.508 430.645C444.99 430.519 447.761 430.167 450.445 429.596C479.834 422.368 504.423 400.631 535.522 397.037C539.8 396.653 544.387 396.409 548.927 396.68C577.849 398.711 611.279 407.254 636.226 389.255C646.231 381.995 657.461 373.682 668.36 364.863C687.779 349.182 708.073 335.685 730.924 324.777C740.406 320.319 749.753 316.157 757.965 313.267C774.475 307.705 792.727 303.649 808.289 297.3C819.21 292.958 830.802 283.022 843.463 271.963C859.997 257.297 880.298 246.664 901.113 239.837C921.106 233.174 945.174 240.153 965.239 245.675C988.513 251.937 1012.63 258.401 1036.61 261.051C1060.74 263.77 1081.56 255.695 1104.91 255.201" stroke="black" stroke-width="0.5" stroke-miterlimit="10"/>
<path d="M-39.4265 393.559C-8.1397 387.905 23.2984 391.792 54.3066 397.449C57.737 398.111 61.2347 398.624 64.6651 399.286C103.395 406.836 134.298 398.327 164.711 376.908C192.012 357.831 219.076 337.217 255.562 350.54C296.05 365.321 332.439 389.145 369.774 409.645C393.656 422.795 417.806 435.352 445.94 435.417C448.51 435.51 451.146 435.454 453.762 435.032C483.691 430.728 508.536 410.895 539.32 408.409C543.752 408.095 548.426 408.069 553.054 408.559C586.799 411.883 613.429 420.203 641.591 401.694C651.993 394.794 662.563 385.467 673.442 376.281C692.397 360.39 711.527 344.935 733.738 333.38C742.823 328.563 752.104 324.549 760.181 321.956C776.355 317.136 794.157 314.483 810.392 310.763C825.208 307.293 838.771 297.536 850.645 288.622C868.525 275.103 888.564 263.814 909.478 254.709C928.039 246.682 950.767 251.266 970.307 255.478C992.215 260.227 1015.03 265.03 1037.55 267.197C1060.98 269.418 1082.02 261.265 1104.66 261.52" stroke="black" stroke-width="0.5" stroke-miterlimit="10"/>
<path d="M-36.9698 398.425C-5.83149 391.453 25.6738 395.192 56.8164 400.553C60.2468 401.215 63.7445 401.728 67.1749 402.39C104.977 409.519 136.04 399.832 166.623 380.098C195.894 361.199 221.345 344.143 258.254 356.944C298.547 370.921 335.649 393.996 373.32 413.755C397.47 426.312 422.091 437.831 449.95 439.737C452.452 439.978 455.177 440.141 457.726 439.867C487.574 438.208 513.449 420.629 543.783 419.547C548.302 419.451 553.132 419.496 557.914 420.055C592.85 424.456 618.324 433.681 646.982 413.253C657.21 405.916 667.759 396.222 678.571 387.184C697.304 371.371 716.44 354.669 737.925 342.248C746.768 337.142 755.806 332.84 763.903 330.613C779.653 326.316 796.521 324.491 812.905 322.089C829.133 319.617 844.896 312.823 858.365 304.096C877.657 291.575 898.362 280.051 918.886 269.339C936.034 260.314 957.578 262.575 976.438 265.406C997.202 268.564 1018.41 271.566 1039.56 273.468C1062.14 275.487 1083.08 266.748 1105 267.753" stroke="black" stroke-width="0.5" stroke-miterlimit="10"/>
<path d="M-34.668 403.222C-3.50301 395.368 27.7397 398.452 59.1715 403.587C62.6691 404.1 66.0996 404.761 69.5972 405.275C107.069 411.897 137.628 401.267 168.668 382.991C199.197 365.02 224.63 351.708 261.256 363.487C301.421 376.513 339.08 398.768 376.846 417.498C401.198 429.61 426.289 440.091 453.853 443.472C456.355 443.713 459.012 444.024 461.581 444.116C491.397 444.587 518.497 430.065 548.205 429.951C552.88 429.926 557.796 430.189 562.666 430.967C598.793 436.443 622.626 445.996 651.781 423.65C662.056 415.797 672.296 405.964 683.02 396.707C702.042 380.668 722.194 364.605 742.777 350.882C751.357 345.121 760.463 340.67 768.56 338.443C783.867 334.302 800.573 333.655 816.668 331.48C834.268 329.272 850.355 324.233 865.344 317.089C886.063 307.181 907.992 294.604 928.367 282.573C945.387 272.596 963.904 273.306 982.817 274.374C1002.11 275.435 1022.3 277.797 1041.81 278.78C1063.45 280.01 1083.71 272.755 1105.07 272.964" stroke="black" stroke-width="0.5" stroke-miterlimit="10"/>
<path d="M-32.2113 408.089C-0.932244 399.572 29.8057 401.712 61.6814 406.691C65.179 407.204 68.6094 407.866 72.107 408.379C109.296 413.979 139.922 403.201 170.889 386.321C200.901 369.903 229.947 360.553 264.387 370.983C304.423 383.057 342.243 404.134 380.479 421.826C405.167 433.197 430.527 443.085 457.621 447.504C460.21 447.963 462.8 448.422 465.369 448.515C495.065 450.897 523.101 439.659 552.715 440.574C557.477 440.767 562.481 441.249 567.506 442.097C604.756 448.797 626.753 457.876 655.874 433.548C665.819 425.188 675.904 415.285 686.851 405.95C706.141 389.318 728.386 375.633 748.155 360.826C756.627 354.48 765.712 349.663 774.031 347.358C789.56 343.139 806.751 343.069 822.798 341.408C839.666 339.583 856.547 335.262 871.617 329.584C893.857 321.258 917.198 309.679 937.956 296.393C953.026 286.604 971.669 284.154 989.479 284.365C1007.6 284.716 1026.23 284.762 1044.52 285.55C1065.23 286.36 1084.79 278.605 1105.43 279.563" stroke="black" stroke-width="0.5" stroke-miterlimit="10"/>
<path d="M-29.9094 412.885C1.41658 403.854 31.6295 404.683 63.949 409.505C67.4466 410.019 70.9442 410.532 74.2871 410.975C111.019 415.117 141.443 404.783 172.955 389.581C203.29 374.918 234.221 369.638 267.45 378.626C307.338 389.382 345.386 409.133 383.716 425.795C408.518 436.502 434.059 445.579 460.971 450.81C463.561 451.269 466.15 451.728 468.74 452.187C498.207 455.895 527.422 448.23 556.875 450.323C561.725 450.735 566.884 451.286 571.841 452.283C610.06 460.137 629.891 468.234 659.132 441.994C668.902 433.198 678.745 423.006 689.47 413.749C709.05 396.891 733.299 385.366 753.465 370.918C762.536 364.486 771.405 358.498 780.013 355.967C795.898 351.373 813.487 351.662 829.911 349.993C845.736 348.411 862.038 344.542 877.304 339.668C901.38 331.817 925.926 322.929 947.021 308.901C961.269 299.277 978.903 294.939 996.255 293.691C1013.01 292.53 1030.36 291.282 1047.35 291.656C1067.13 292.046 1085.91 283.94 1105.38 285.437" stroke="black" stroke-width="0.5" stroke-miterlimit="10"/>
<path d="M-27.4528 417.752C3.98727 408.057 33.6282 408.091 66.304 412.539C69.8017 413.052 73.2118 413.347 76.6219 413.642C112.983 416.544 143.36 406.725 175.573 393.27C206.453 380.283 238.448 379.24 271.084 387.065C310.824 396.503 349.08 414.561 387.195 430.053C411.956 440.027 437.766 448.511 464.322 454.116C466.844 454.724 469.589 455.253 472.023 455.642C501.242 460.31 531.965 456.723 560.773 459.418C565.622 459.829 570.801 460.747 575.846 461.962C614.658 470.979 632.88 477.274 661.576 449.357C671.238 439.976 680.617 429.574 691.342 420.317C711.144 403.38 734.748 392.456 757.847 380.589C768.842 374.85 777.563 367.545 786.46 364.787C802.546 359.749 820.8 359.803 837.803 357.682C853.231 355.74 868.888 352.473 883.885 348.191C908.688 341.206 934.553 334.346 955.802 320.388C969.627 311.287 986.339 305.28 1003.01 302.652C1018.49 300.196 1034.49 297.802 1050.55 297.756C1069.25 297.654 1087.19 289.346 1105.7 291.304" stroke="black" stroke-width="0.5" stroke-miterlimit="10"/>
<path d="M-25.1508 422.549C5.65008 412.207 36.5147 411.187 68.7936 415.276C72.1365 415.72 75.7685 415.936 79.0912 416.013C114.927 417.604 145.655 408.659 178.654 397.169C209.724 386.234 243.321 388.24 275.405 395.637C314.903 404.786 352.93 420.059 390.741 434.162C415.616 443.474 441.473 451.443 467.497 456.986C470.02 457.593 472.764 458.122 475.199 458.511C504.613 463.983 535.344 463.259 564.454 467.342C569.392 467.972 574.658 469.109 579.703 470.323C618.797 480.362 635.835 484.333 663.563 455.262C672.895 445.374 682.031 434.683 692.756 425.426C712.47 408.271 737.043 398.501 761.24 388.74C772.894 384.015 783.854 376.295 792.974 373.459C809.215 368.491 827.852 367.289 845.412 364.348C857.141 362.338 872.152 359.672 890.163 355.327C915.315 349.215 941.329 343.673 963.702 330.94C978.388 322.407 992.712 315.497 1009.52 311.324C1025.23 307.541 1038.69 304.173 1053.67 303.636C1070.09 303.216 1089.23 293.487 1106.1 297.022" stroke="black" stroke-width="0.5" stroke-miterlimit="10"/>
<path d="M-22.7614 427.563C7.9317 416.637 38.8433 415.102 71.1487 418.31C74.5588 418.605 78.1034 418.603 81.426 418.68C116.824 419.179 148.211 411.247 181.622 401.731C212.814 392.996 247.884 397.1 279.35 404.216C318.228 413.084 356.422 425.932 393.93 438.646C418.832 447.076 444.447 454.757 470.317 460.229C472.839 460.837 475.583 461.366 478.106 461.973C507.608 467.663 538.103 469.514 567.141 474.993C572.098 475.99 577.52 477.197 582.652 478.63C621.962 489.838 638.172 491.11 664.796 461.182C673.885 451.006 682.78 440.026 693.195 430.629C712.889 413.107 738.276 404.422 763.569 396.766C775.883 393.055 789.118 386.902 798.815 383.613C815.325 378.052 834.634 375.368 852.356 371.249C863.446 368.592 878.08 365.933 895.822 362.181C921.015 356.803 948.038 353.148 970.606 341.218C985.333 333.419 999.838 325.697 1015.84 320.44C1030.79 315.425 1042.78 311.208 1056.92 310.468C1072.4 309.627 1090.8 299.914 1106.68 303.543" stroke="black" stroke-width="0.5" stroke-miterlimit="10"/>
<path d="M-20.4595 432.36C10.193 420.7 41.017 418.947 73.396 420.758C76.8061 421.053 80.2631 420.833 83.6529 420.761C118.614 420.169 151.124 413.461 184.832 406.582C215.702 400.203 252.117 405.453 282.897 412.437C321.157 421.024 359.538 431.812 396.898 443.209C421.672 450.687 447.199 458.149 472.672 463.263C475.261 463.722 477.939 464.4 480.528 464.859C510.03 470.548 540.338 474.459 569.436 481.038C574.481 482.253 579.681 483.538 584.746 485.119C623.343 497.077 640.298 495.47 665.638 465.496C674.485 455.031 683.07 443.911 693.331 434.444C712.917 416.337 738.876 408.447 764.823 403.053C777.863 400.207 791.502 397.276 803.527 393.792C821.698 388.268 840.401 382.807 858.35 377.362C868.956 374.128 883.106 370.892 900.646 367.585C925.947 362.792 953.872 360.439 976.541 350.343C991.329 343.643 1006.63 335.391 1022.2 329.042C1036.58 323.232 1047.31 318.086 1060.58 316.778C1074.99 315.445 1092.78 305.819 1107.94 309.83" stroke="black" stroke-width="0.5" stroke-miterlimit="10"/>
<path d="M-18.0028 437.227C12.609 424.833 42.9689 422.87 75.9527 423.347C79.2753 423.424 82.8871 423.274 86.1894 422.984C120.867 421.369 154.966 416.097 188.594 411.862C219.45 407.979 255.422 413.385 286.646 420.213C324.354 428.372 362.877 437.615 399.933 447.623C424.666 454.367 449.797 461.471 475.007 465.93C477.596 466.389 480.186 466.848 482.775 467.307C512.324 472.482 542.445 478.452 571.294 485.991C576.272 487.354 581.404 488.787 586.402 490.517C623.89 502.865 641.799 496.687 665.841 469.162C674.776 458.916 682.877 447.218 692.827 437.611C712.151 418.849 738.285 411.396 764.932 407.749C778.477 405.847 793.57 404.647 805.655 402.263C825.347 398.322 843.975 390.147 862.865 382.626C873.121 378.518 886.564 374.784 903.815 371.702C928.915 367.354 957.519 366.382 980.136 358.049C995.206 352.371 1011.06 341.684 1027.76 336.926C1038.91 327.147 1051.11 324.099 1063.85 322.728C1083.58 320.77 1101.75 311.135 1109.02 315.68" stroke="black" stroke-width="0.5" stroke-miterlimit="10"/>
<path d="M-15.701 442.024C14.6483 428.975 45.3646 426.637 78.2 425.796C81.5898 425.724 85.0468 425.504 88.3491 425.214C122.744 422.578 158.76 419.247 192.019 417.883C223.018 416.566 257.819 421.263 289.487 427.934C326.953 435.805 364.883 443.886 402.322 452.638C427.082 458.501 451.836 465.612 476.696 469.198C479.131 469.587 481.875 470.116 484.532 470.427C514.195 474.939 543.953 482.532 572.688 490.733C577.666 492.096 582.664 493.826 587.507 495.486C623.313 507.429 641.947 498.005 665.513 472.766C674.623 462.957 682.481 450.971 691.968 441.153C710.652 421.744 736.854 414.142 763.736 412.032C777.853 410.926 793.188 410.014 806.149 409.814C828.458 409.562 846.971 397.938 865.894 388.288C875.645 383.237 888.584 378.558 905.545 375.704C930.423 371.433 958.624 371.351 982.095 364.835C998.888 360.295 1015.11 350.849 1032.35 344.905C1043.7 334.681 1054.95 330.845 1066.92 329.124C1085.26 326.534 1102.69 317.282 1109.89 321.975" stroke="black" stroke-width="0.5" stroke-miterlimit="10"/>
<path d="M-13.2443 446.89C16.7753 433.335 47.8947 430.107 80.824 428.236C84.281 428.016 87.738 427.796 91.1075 427.358C125.307 423.918 162.992 423.488 196.373 424.324C227.185 425.067 261.104 428.828 292.752 435.133C330.043 442.567 367.885 450.429 405.001 457.426C429.39 462.049 454.097 469.676 478.742 472.091C481.244 472.332 483.833 472.791 486.49 473.102C516.092 476.513 545.844 485.355 574.156 494.079C578.911 495.52 583.997 497.468 588.685 499.058C620.247 509.255 643.024 499.744 665.695 476.066C674.826 466.623 682.906 454.559 691.774 444.461C709.665 424.334 734.984 415.797 762.237 414.927C776.462 414.406 792.827 415.748 805.875 415.766C830.465 415.833 847.653 407.541 867.994 393.529C877.153 387.316 889.654 381.546 906.084 378.629C930.652 374.218 957.482 373.871 982.756 369.96C1002.2 366.979 1018.02 358.422 1036.3 352.236C1048.32 341.777 1058.69 337.006 1069.88 334.934C1086.98 331.783 1103.68 322.914 1111.04 327.677" stroke="black" stroke-width="0.5" stroke-miterlimit="10"/>
<path d="M-10.9424 451.687C18.5255 437.703 50.714 433.351 83.1385 430.536C86.5955 430.317 89.965 429.878 93.3345 429.44C127.427 425.415 166.155 428.854 200.081 431.367C231.129 433.647 263.481 436.34 294.799 442.138C331.915 449.135 369.427 456.49 406.657 462.824C430.939 466.862 455.424 474.567 479.698 475.742C482.267 475.834 484.924 476.145 487.426 476.386C517.034 478.549 546.383 488.28 574.493 497.449C579.182 499.039 584.2 501.135 588.801 502.506C617.866 511.215 642.063 501.453 665.098 480.263C674.579 471.694 684.22 461.946 692.032 450.475C706.451 428.954 732.759 417.826 759.521 417.627C773.921 417.543 790.259 419.767 803.704 420.143C828.025 420.804 851.221 416.129 868.716 399.755C876.751 392.317 888.902 385.673 905.359 381.874C929.933 376.216 957.221 377.327 981.958 374.602C1001.82 372.346 1020.23 367.112 1039.14 359.958C1052.2 349.257 1061.93 343.839 1072.73 341.408C1088.9 337.836 1104.87 329.349 1112.22 334.113" stroke="black" stroke-width="0.5" stroke-miterlimit="10"/>
<path d="M-8.48575 456.554C20.4977 441.992 53.5333 436.595 85.7624 432.977C89.1319 432.539 92.6561 432.17 96.0928 431.584C130.077 426.974 169.736 434.945 204.032 438.698C234.986 442.008 266.147 443.625 296.913 448.994C333.921 455.406 371.306 461.81 408.293 467.855C432.199 471.901 456.993 479.746 480.964 479.532C483.378 479.555 486.102 479.717 488.672 479.81C518.178 480.14 547.345 490.682 575.012 500.008C579.7 501.597 584.739 504.06 588.943 505.072C618.351 511.792 640.395 502.663 665.14 485.108C674.857 478.075 684.828 468.834 692.727 457.582C707.967 435.896 727.386 420.216 756.717 420.109C770.895 420.103 787.254 422.694 800.652 423.585C825.101 425.197 850.135 425.108 868.57 406.658C877.365 397.956 887.464 389.667 903.282 385.222C927.419 378.471 954.484 379.661 979.369 378.254C999.668 377.09 1022 375.957 1040.52 367.196C1057.29 359.427 1064.69 350.094 1075.09 347.304C1090.4 343.163 1105.79 335.129 1113.23 340.111" stroke="black" stroke-width="0.5" stroke-miterlimit="10"/>
<path d="M-6.18386 461.35C22.3151 446.211 56.1978 439.769 88.2316 435.347C91.6011 434.909 95.1925 434.392 98.4745 433.736C132.506 428.611 173.578 441.691 207.384 446.115C237.161 449.964 268.04 450.559 298.166 455.281C335.066 461.107 372.612 466.333 408.914 472.246C432.355 476.082 457.829 485.307 481.564 483.557C484.046 483.431 486.682 483.375 489.164 483.249C518.414 481.677 547.447 492.515 574.67 501.997C579.203 503.516 584.154 505.761 588.204 506.703C616.421 512.346 639.764 504.878 664.691 490.623C674.711 484.978 684.521 476.916 693.261 465.866C709.739 444.741 722.76 423.837 753.49 423.114C767.204 422.897 783.185 425.496 796.516 426.535C821.45 428.724 846.235 429.595 866.918 413.594C877.193 405.742 885.314 394.411 900.384 388.733C923.666 380.165 950.597 381.651 975.523 380.977C997.059 380.375 1020.23 380.693 1040.36 373.733C1058.93 367.321 1066.83 356.068 1076.77 353.068C1091.3 348.576 1106.34 340.917 1113.56 345.977" stroke="black" stroke-width="0.5" stroke-miterlimit="10"/>
<path d="M-3.79444 466.365C24.3748 450.719 58.7951 443.091 90.7883 437.936C94.225 437.349 97.6617 436.763 101.098 436.176C135.176 430.537 177.152 449.03 210.756 453.899C239.491 457.99 269.952 457.859 299.352 461.716C336.057 466.739 373.851 471.006 409.622 476.856C432.376 480.56 459.169 491.812 482.292 488.534C484.686 488.189 487.39 487.985 489.939 487.711C518.913 483.868 547.79 494.637 574.637 504.127C579.171 505.646 583.725 507.532 587.841 508.326C614.888 513.26 639.859 507.96 665.144 497.441C675.467 493.185 685.581 486.51 694.563 475.749C710.12 457.067 723.131 429.188 751.494 427.928C764.28 427.29 779.669 428.727 792.644 430.141C820.032 433.086 841.898 432.99 864.6 420.764C875.73 414.729 884.085 400.824 898.166 393.625C920.109 382.663 946.576 383.939 971.388 383.928C994.007 383.817 1017.61 385.226 1039.33 379.702C1060.31 374.559 1069.23 362.698 1079 359.261C1093.14 354.411 1107.59 347.204 1114.81 352.264" stroke="black" stroke-width="0.5" stroke-miterlimit="10"/>
<path d="M-1.49252 471.162C26.5689 454.931 61.4597 446.265 93.2575 440.306C96.6942 439.72 100.198 438.985 103.635 438.398C138.069 432.385 180.128 456.456 213.665 461.473C241.424 465.657 271.293 464.365 299.832 467.652C336.341 471.872 374.451 475.031 409.468 480.897C430.407 484.492 461.062 498.747 482.576 493.667C484.883 493.104 487.654 492.752 490.115 492.259C518.503 486.006 546.917 496.564 573.897 505.757C578.277 507.207 582.81 508.726 586.927 509.52C612.978 514.181 639.84 511.704 665.261 505C675.82 502.281 686.459 496.917 695.548 486.74C710.743 469.681 723.33 438.214 749.249 433.702C761.046 431.543 775.419 432.341 787.883 434.059C814.182 437.761 837.575 438 860.245 427.904C872.322 422.656 882.783 408.633 895.478 399.555C915.153 385.778 941.734 386.391 965.416 386.404C988.566 386.355 1014.52 389.183 1036.05 384.469C1052.88 380.663 1064.85 371.968 1079.7 365.12C1092.36 359.419 1107.54 353.078 1114.69 358.286" stroke="black" stroke-width="0.5" stroke-miterlimit="10"/>
<path d="M0.96415 476.028C28.9177 459.213 64.1243 449.438 96.0362 442.817C99.5401 442.082 102.977 441.496 106.414 440.909C142.778 434.34 179.774 465.052 216.681 469.631C244.399 473.082 272.654 471.237 300.399 473.807C336.626 477.005 374.809 478.767 409.779 485.149C430.429 488.97 461.824 505.705 483.453 499.962C485.827 499.251 488.355 498.61 490.884 497.969C518.666 488.939 546.75 498.99 573.777 507.669C578.156 509.118 582.602 510.419 586.719 511.212C612.326 516.03 640.723 516.751 666.28 513.861C677.075 512.679 688.326 508.843 697.456 499.4C713.935 482.387 725.439 450.429 748.236 441.284C758.048 437.333 771.937 437.553 783.802 439.358C809.57 442.997 832.977 444.852 855.882 436.292C870.22 430.996 884.011 419.913 894.903 408.23C911.005 391.225 937.377 389.419 960.016 389.675C984.162 389.898 1009.87 392.438 1032.68 389.019C1051.08 386.28 1065.32 379.152 1081.11 371.477C1093.52 365.488 1108.51 359.592 1115.59 364.948" stroke="black" stroke-width="0.5" stroke-miterlimit="10"/>
<path d="M3.26605 480.825C31.1118 463.424 66.5466 452.324 98.6601 445.258C102.164 444.523 105.668 443.788 109.105 443.201C146.666 436.461 180.995 473.469 219.011 477.657C245.868 480.54 273.241 477.758 300.327 479.314C336.271 481.491 374.75 481.778 409.296 488.683C430.188 492.792 461.887 510.916 483.932 505.898C486.461 505.257 488.923 504.765 491.276 503.687C518.142 491.74 545.856 500.551 572.95 509.081C577.175 510.46 581.621 511.761 585.892 512.625C611.916 518.168 640.873 522.18 666.788 523.027C677.818 523.381 689.46 521.153 698.853 512.365C718.15 494.484 727.341 464.338 747.641 449.593C755.179 444.074 768.408 443.281 779.432 444.883C804.514 448.39 827.471 451.649 850.457 444.555C866.477 439.665 882.662 428.237 893.749 417.358C908.756 402.358 930.847 392.714 954.132 392.368C978.547 391.999 1004.15 393.954 1027.86 391.837C1047.52 390.026 1064.03 384.465 1081.24 376.54C1094.25 370.465 1108.57 364.803 1115.59 370.307" stroke="black" stroke-width="0.5" stroke-miterlimit="10"/>
<path d="M5.72267 485.692C33.5278 467.558 69.1236 455.279 101.372 447.917C104.875 447.182 108.379 446.447 111.816 445.86C150.797 438.869 181.301 483.08 221.381 486.417C247.599 488.652 273.984 484.35 300.121 485.119C335.694 486.055 374.556 485.086 408.679 492.513C429.9 497.13 461.815 516.424 484.432 512.201C487.048 511.779 489.732 511.208 492.018 510.279C518.198 498.199 544.316 502.712 572.541 511.219C576.832 512.449 581.279 513.75 585.483 514.763C612.321 521.389 641.057 529.591 667.955 533.207C679.51 534.871 691.321 534.328 700.997 526.562C722.44 509.297 730.339 480.352 748.095 460.522C755.336 452.367 765.956 450.747 775.984 452.077C800.293 455.233 822.443 460.271 845.268 454.356C862.371 449.956 878.112 438.685 892.058 427.672C909.984 413.638 924.13 398.069 949.614 396.575C974.122 395.176 998.995 396.265 1023.06 395.022C1043.14 393.937 1064.07 390.558 1081.48 382.187C1094.56 375.964 1108.83 370.817 1115.84 376.322" stroke="black" stroke-width="0.5" stroke-miterlimit="10"/>
<path d="M8.02464 490.488C35.722 471.77 71.4584 457.946 104.15 450.427C107.654 449.693 111.313 449.028 114.817 448.293C155.371 441.122 181.694 492.909 224.149 495.535C249.728 497.123 275.035 491.082 300.425 490.618C335.541 490.096 374.651 488.168 408.639 495.891C430.258 500.867 462.63 521.619 485.598 518.27C488.214 517.847 490.985 517.495 493.339 516.418C522.417 504.938 540.476 504.189 572.885 513.341C577.176 514.571 581.468 515.802 585.826 516.884C614.145 524.361 642.041 536.471 669.896 543.738C681.754 546.79 694.023 547.706 703.605 540.969C726.104 525.077 733.855 494.813 749.162 472.98C755.878 463.514 764.627 459.438 773.66 460.495C796.886 463.161 818.074 469.907 840.362 465.178C858.259 461.496 874.955 449.764 889.809 438.805C906.33 426.636 924.227 405.261 946.286 401.858C969.765 398.205 994.066 398.498 1017.93 397.7C1039.31 397.028 1061.56 395.676 1081.16 387.406C1095.68 381.3 1108.82 376.177 1115.86 382.048" stroke="black" stroke-width="0.5" stroke-miterlimit="10"/>
<path d="M10.4813 495.355C38.4474 476.043 73.726 460.761 106.795 453.234C110.298 452.5 113.957 451.835 117.461 451.1C159.986 444.108 181.509 503.19 226.58 505.394C251.386 506.631 275.643 497.97 299.997 496.5C334.789 494.223 374.013 491.631 407.8 499.8C429.816 505.134 462.511 527.641 486.118 524.939C488.889 524.587 491.66 524.235 494.101 523.376C523.994 512.979 539.266 506.857 572.623 516.796C576.915 518.027 581.207 519.258 585.498 520.488C615.25 529.329 642.508 544.904 670.989 555.314C683.151 559.755 695.433 562.285 705.48 555.759C728.773 540.584 736.571 509.805 749.712 486.99C755.835 476.362 763.689 469.736 771.35 470.528C793.27 472.781 813.478 480.869 835.073 477.256C853.01 474.307 871.368 462.613 886.578 451.28C904.679 437.682 923.437 416.877 943.571 408.669C963.706 400.462 989.089 401.246 1011.91 400.69C1034.73 400.134 1057.86 399.719 1079.58 392.946C1096.34 387.673 1107.95 382.215 1115.14 388.156" stroke="black" stroke-width="0.5" stroke-miterlimit="10"/>
<path d="M12.7831 500.152C40.7962 480.325 75.8389 463.507 109.506 455.894C113.01 455.159 116.668 454.494 120.26 453.978C164.467 447.39 181.634 513.613 229.409 515.612C253.905 516.709 276.291 505.591 300.254 502.515C334.77 497.968 373.907 495.158 407.405 503.552C430.194 509.237 462.836 533.507 487.237 531.523C490.163 531.241 492.934 530.889 495.529 530.1C525.241 520.515 539.624 510.594 573.358 520.525C577.649 521.756 581.941 522.987 586.32 524.436C617.195 534.501 644.946 553.515 673.28 566.718C685.348 572.189 698.115 575.296 708.134 569.651C732.128 556.223 740.349 524.922 751.654 501.632C757.273 490.06 764.803 481.679 771.226 481.91C790.785 482.377 810.671 492.822 831.331 490.036C849.598 487.594 868.554 475.814 884.141 464.472C904.73 449.501 925.581 431.074 943.352 416.97C958.522 404.903 985.418 404.408 1007.02 403.657C1030.82 403.007 1055.34 403.223 1078.5 397.814C1096.75 393.758 1107.96 387.941 1115.31 393.952" stroke="black" stroke-width="0.5" stroke-miterlimit="10"/>
<path d="M15.1726 505.166C42.9904 484.536 78.194 466.54 112.238 458.919C115.742 458.184 119.4 457.519 122.992 457.003C169.19 450.96 181.624 524.331 232.412 526.267C257.197 527.137 277.336 513.571 300.532 508.895C334.173 502.164 373.733 498.832 406.565 507.461C429.906 513.574 462.872 539.599 487.912 538.262C490.77 538.129 493.696 537.846 496.292 537.057C525.156 528.518 540.863 515.265 573.534 525.073C577.671 526.233 582.272 527.604 586.429 529.131C617.715 541.17 645.729 560.84 674.421 577.779C686.657 584.935 699.316 587.457 709.464 582.764C734.245 571.301 742.91 539.844 752.796 516.803C757.93 504.655 764.579 495.338 770.652 494.696C788.294 493.221 808.348 505.351 827.233 503.19C845.52 501.114 864.853 489.326 880.594 478.055C902.582 462.467 925.876 447.292 943.436 426.658C957.185 410.731 980.705 407.811 1001 406.647C1025.89 405.24 1051.05 406.103 1075.73 402.277C1095.39 399.218 1106.45 393.332 1114.04 399.632" stroke="black" stroke-width="0.5" stroke-miterlimit="10"/>
<path d="M17.4745 509.963C44.9422 488.459 80.5288 469.207 115.037 461.796C118.541 461.061 122.354 460.467 125.878 460.099C173.865 455.046 181.904 534.823 235.725 537.062C260.82 538.073 279.263 522.486 301.651 515.479C333.602 505.48 374.158 502.42 406.324 511.283C430.372 517.896 463.661 545.676 489.34 544.986C492.353 544.922 495.279 544.64 497.875 543.851C525.65 536.07 543.186 520.429 574.861 529.963C578.931 531.272 583.377 532.573 587.776 534.389C620.542 547.277 646.943 570.505 676.583 588.231C688.907 595.605 701.432 598.424 711.863 594.753C737.539 585.841 746.823 554.664 755.754 532.084C760.646 519.647 766.77 509.02 772.244 508.464C787.895 506.444 808.372 518.051 825.792 516.655C843.588 515.251 863.122 503.018 878.884 492.113C902.271 475.908 930.225 459.093 944.819 438.008C955.999 421.988 976.052 412.314 996.753 410.261C1022.33 407.738 1048.35 409.17 1074.09 406.717C1094.94 404.734 1106.25 399.136 1114.21 405.428" stroke="black" stroke-width="0.5" stroke-miterlimit="10"/>
<path d="M19.9312 514.83C47.1363 492.671 82.8636 471.874 117.923 464.892C121.427 464.157 125.173 463.711 128.852 463.413C178.629 459.35 182.493 545.456 239.347 547.997C264.597 549.078 282.737 532.103 303.322 522.492C332.211 508.96 374.98 506.367 406.016 515.254C430.77 522.366 464.383 551.901 490.701 551.858C493.714 551.795 496.727 551.731 499.478 551.012C526.319 544.058 545.791 526.614 576.249 535.954C580.318 537.263 584.919 538.634 589.097 540.528C621.924 554.516 647.088 581.293 678.241 597.74C690.747 604.303 702.666 608.456 713.534 605.876C739.972 599.811 750.447 569.711 758.578 547.662C763.315 535.155 768.887 524.098 774.099 522.887C787.96 519.877 809.903 530.719 825.016 529.886C842.234 528.934 861.769 516.702 877.174 506.171C901.381 489.802 927.189 472.371 944.736 450.123C958.202 433.174 968.38 418.129 992.08 414.398C1018.02 410.252 1044.9 412.253 1071.23 410.962C1093.34 409.907 1104.82 404.745 1113.19 411.396" stroke="black" stroke-width="0.5" stroke-miterlimit="10"/>
<path d="M22.2331 519.626C49.3304 496.883 85.1312 474.689 120.588 468.066C124.246 467.401 127.992 466.955 131.604 466.805C183.191 464.099 183.149 555.94 242.902 559.081C268.771 560.443 286.339 542.672 305.786 530.221C332.078 513.368 375.977 510.751 405.641 519.373C424.886 525.06 440.795 533.166 458.199 543.736C469.595 550.69 477.884 558.737 491.995 558.879C495.163 558.885 498.176 558.821 500.927 558.103C528.097 551.655 546.264 533.798 577.657 542.311C581.793 543.472 586.327 544.991 590.592 547.103C623.016 561.981 648.577 589.117 679.461 606.157C691.9 612.868 703.577 616.732 714.594 615.471C741.947 612.323 753.519 584.328 761.603 562.794C766.273 550.435 771.448 539.02 776.573 537.591C789.572 534.012 811.347 543.169 825.686 541.985C842.884 540.666 860.751 529.644 875.975 519.925C900.31 504.507 926.017 485.243 943.987 462.472C956.673 446.42 965.557 424.355 988.026 418.815C1013.62 412.547 1041.68 415.257 1068.28 414.988C1091.66 414.861 1103.24 410.285 1112.45 417.138" stroke="black" stroke-width="0.5" stroke-miterlimit="10"/>
<path d="M24.6225 524.641C51.4573 501.242 87.4863 477.722 123.427 471.677C127.086 471.012 130.765 470.714 134.531 470.634C187.948 469.651 184.027 566.346 247.009 570.593C273.429 572.384 290.869 553.662 308.977 538.816C333.002 519.148 376.752 515.212 405.75 524.069C425.237 530.044 442.122 538.056 459.519 549.875C470.646 557.421 479.642 565.967 493.928 566.546C497.029 566.701 500.264 566.559 502.947 565.988C530.05 559.689 548.924 542.331 579.986 550.337C584.123 551.498 588.502 552.947 592.834 554.911C624.969 570.015 650.329 597.596 681.233 615.002C693.537 622.01 705.457 626.163 716.406 625.05C743.336 622.425 756.786 599.749 765.603 577.833C770.361 565.692 775.381 554.207 780.573 552.629C793.707 548.754 814.318 555.953 829.127 553.731C845.511 551.329 862.148 542.608 876.592 533.787C900.947 518.736 925.927 498.607 943.743 475.765C955.427 460.689 965.741 431.766 985.317 424.378C1009.62 415.201 1040.02 419.33 1065.96 419.295C1080.51 419.281 1098.63 415.521 1112.57 423.449" stroke="black" stroke-width="0.5" stroke-miterlimit="10"/>
<path d="M27.0791 529.508C53.7389 505.673 90.0633 480.678 126.267 475.287C129.858 474.771 133.692 474.543 137.458 474.463C192.57 475.5 185.106 576.307 251.25 581.809C278.222 584.029 295.534 564.355 312.565 547.771C334.961 525.934 376.686 519.472 405.927 528.618C426.033 534.873 443.247 543.392 460.84 556.014C472.142 563.997 481.09 573.058 495.773 573.996C499.029 574.22 502.264 574.078 504.947 573.508C531.916 567.505 551.388 550.061 582.074 558.075C586.211 559.236 590.59 560.685 594.855 562.797C626.855 578.198 651.993 605.857 682.386 623.567C694.623 630.723 706.718 635.313 717.755 634.419C743.487 631.966 759.751 613.782 769.253 591.998C774.274 580.513 779.294 569.027 784.708 567.371C798.42 563.044 818.593 569.151 833.94 565.743C848.844 562.491 864.324 554.676 877.766 546.83C902.008 532.442 925.73 511.385 942.879 488.778C955.101 472.515 965.542 440.433 982.629 430.308C1003.87 417.599 1037.25 422.546 1062.79 423.4C1078.58 423.947 1097.14 421.279 1112.07 429.479" stroke="black" stroke-width="0.5" stroke-miterlimit="10"/>
<path d="M29.3811 534.305C55.8658 510.032 92.1091 483.571 128.885 478.976C132.631 478.529 136.464 478.302 140.251 478.589C197.853 482.363 185.944 585.98 255.492 593.025C283.324 595.814 300.354 575.118 316.57 557.45C337.91 534.24 375.713 523.677 406.036 533.313C424.77 539.304 441.654 547.316 458.366 559.002C471.39 568.124 481.012 579.813 497.686 581.296C500.941 581.521 504.109 581.527 507.015 580.879C534.158 575.312 553.543 557.65 584.384 565.734C588.521 566.895 592.9 568.344 597.165 570.456C628.943 585.935 653.704 613.602 683.983 631.976C696.308 639.35 708.356 644.454 719.392 643.56C743.195 641.662 762.95 625.24 773.307 605.273C778.967 594.435 784.074 583.168 789.643 581.582C804.331 577.16 824.288 582.098 840.812 578.151C851.458 575.65 863.583 569.888 880.474 558.959C904.211 543.627 926.043 523.858 942.306 501.564C956.403 482.398 964.867 451.386 981.024 436.729C998.761 420.643 1034.93 425.604 1059.98 427.13C1076.86 428.168 1096.07 426.514 1111.71 435.213" stroke="black" stroke-width="0.5" stroke-miterlimit="10"/>
<path d="M31.8377 539.171C58.235 514.68 94.6189 486.675 131.812 482.805C135.558 482.358 139.412 482.497 143.199 482.784C170.876 485.502 179.82 517.615 189.176 538.12C203.506 569.458 221.676 599.32 260.022 604.015C288.184 607.31 305.57 586.24 320.973 567.487C341.323 542.757 374.651 527.664 406.61 538.22C425.653 544.351 443.378 552.565 459.908 565.063C472.818 574.848 482.837 586.896 499.599 588.597C502.854 588.822 506.022 588.828 508.927 588.179C536.159 582.832 555.631 565.388 586.317 573.402C590.454 574.562 594.833 576.011 599.098 578.124C630.654 593.681 655.193 621.426 685.116 640.174C697.461 647.915 709.596 653.238 720.721 652.562C742.969 651.21 765.468 635.318 776.856 617.605C783.242 607.632 788.68 596.872 794.847 595.2C810.752 590.973 831.422 595.161 848.524 590.762C859.016 588.191 870.373 580.829 884.427 570.401C906.73 553.705 926.249 535.747 941.866 514.053C957.348 492.656 967.198 463.523 980.28 443.719C992.938 424.437 1033.08 428.874 1057.24 430.712C1074.73 432.031 1095.65 431.148 1111.55 440.502" stroke="black" stroke-width="0.5" stroke-miterlimit="10"/>
<path d="M34.1396 543.968C60.2946 519.188 96.974 489.708 134.604 486.93C138.283 486.632 142.359 486.693 146.166 487.346C176.205 491.85 184.411 529.705 194.884 552.682C208.797 583.294 228.668 609.817 264.774 614.926C293.132 619.025 311.338 597.791 325.859 578.102C344.73 552.523 374.384 532.368 407.58 543.485C427.02 549.975 445.055 558.33 462.002 571.553C474.933 581.704 485.059 594.337 502.13 596.178C505.318 596.551 508.554 596.41 511.459 595.761C538.932 590.702 558.337 573.406 589.023 581.42C593.005 582.51 597.539 584.03 601.65 586.072C633.206 601.629 657.456 629.6 686.801 648.801C699.166 656.909 711.234 662.38 722.446 661.922C745.091 660.93 766.615 645.131 780.519 629.273C788.183 620.595 793.661 610.569 800.494 608.662C817.886 604.037 838.435 610.136 857.185 604.16C867.858 600.777 878.307 593.362 890.457 582.607C909.438 565.834 928.117 547.673 942.133 527.042C957.621 504.396 969.812 476.682 980.525 452.229C991.123 428.44 1031.35 433.095 1054.54 435.027C1073.03 436.618 1094.38 436.827 1111.21 446.602" stroke="black" stroke-width="0.5" stroke-miterlimit="10"/>
<path d="M36.5962 548.835C62.6637 523.837 99.5713 493.03 137.552 491.126C141.385 490.898 145.172 491.185 149.134 491.909C179.833 497.426 187.581 537.933 197.988 561.059C212.184 592.693 232.586 619.278 269.573 625.323C298.039 630.007 316.622 608.764 330.746 588.718C348.574 563.38 373.498 536.791 408.617 548.602C428.522 555.302 446.886 564.164 463.854 577.754C476.872 588.123 486.885 601.42 504.11 603.331C507.298 603.704 510.601 603.414 513.372 603.062C540.953 598.588 560.358 581.292 591.044 589.306C595.026 590.396 599.405 591.846 603.67 593.958C635.004 609.593 659.254 637.564 688.021 657.218C700.251 665.622 712.562 671.382 723.706 671.072C747.502 670.422 766.416 653.798 783.058 639.718C791.913 632.116 798.185 622.807 805.792 621.251C824.576 617.256 846.101 623.262 865.604 617.27C876.209 614.036 886.369 606.846 897.086 594.727C913.128 576.622 930.118 559.304 942.668 539.437C957.854 515.404 972.016 487.868 980.945 461.177C990.009 434.189 1028.39 436.755 1052.06 439.264C1071.85 441.268 1093.25 442.211 1111.01 452.407" stroke="black" stroke-width="0.5" stroke-miterlimit="10"/>
<path d="M38.8981 553.631C64.7234 528.345 102.169 496.353 140.365 495.618C144.131 495.539 148.227 495.966 152.122 496.838C181.019 503.862 189.008 540.546 198.836 564.124C213.416 598.614 234.136 628.201 274.151 635.798C302.657 641.215 322.188 620.76 335.586 599.847C351.907 574.542 374.179 542.283 409.696 554.452C430.064 561.363 448.583 570.295 465.813 584.54C478.764 595.058 488.663 609.017 505.956 610.78C509.144 611.153 512.379 611.011 515.217 610.511C543.061 606.692 562.466 589.397 593.064 597.192C597.046 598.282 601.426 599.731 605.69 601.844C636.803 617.557 660.831 645.606 689.174 665.783C701.425 674.554 713.823 680.531 725.055 680.441C749.093 680.079 767.61 663.096 784.958 649.515C794.5 642.045 802.534 634.608 810.76 633.332C830.802 630.266 853.544 636.465 873.8 630.458C884.339 627.372 894.566 620.034 904.112 607.205C917.807 588.93 932.564 570.778 943.715 551.528C958.308 526.333 973.055 497.096 981.009 470.499C989.48 442.349 1024.16 440.735 1049.73 443.571C1070.52 445.848 1092.27 447.664 1111.02 458.132" stroke="black" stroke-width="0.5" stroke-miterlimit="10"/>
<path d="M41.2001 558.428C68.1819 532.236 113.56 490.973 155.043 501.915C184.202 509.594 192.179 548.775 202.007 572.353C216.87 607.864 238.1 637.147 278.62 645.687C347.289 660.019 346.554 537.802 411.15 560.295C434.149 568.398 453.214 579.007 472.274 594.975C483.59 604.573 492.304 616.208 507.936 617.933C539.111 621.165 561.701 596.02 595.327 605.367C644.417 618.864 675.677 688.973 726.491 690.028C762.885 690.8 783.183 650.14 815.398 644.907C848.81 639.502 888.357 656.358 911.468 620.191C939.937 575.908 963.744 529.154 980.959 480.485C997.589 433.515 1073.1 443.444 1111.3 464.514" stroke="black" stroke-width="0.5" stroke-miterlimit="10"/>
</g>
<defs>
<clipPath id="clip0_1_3">
<rect width="1148.02" height="800.992" fill="white"/>
</clipPath>
</defs>
</svg>
