<svg width="40" height="22" viewBox="0 0 40 22" fill="none" xmlns="http://www.w3.org/2000/svg">
<path d="M0 2C0 0.895431 0.895431 0 2 0H38C39.1046 0 40 0.895431 40 2C40 3.10457 39.1046 4 38 4H2C0.895431 4 0 3.10457 0 2Z" fill="black"/>
<path d="M10 11C10 9.89543 10.8954 9 12 9H38C39.1046 9 40 9.89543 40 11C40 12.1046 39.1046 13 38 13H12C10.8954 13 10 12.1046 10 11Z" fill="black"/>
<path d="M0 20C0 18.8954 0.895431 18 2 18H38C39.1046 18 40 18.8954 40 20C40 21.1046 39.1046 22 38 22H2C0.895431 22 0 21.1046 0 20Z" fill="black"/>
</svg>
