<svg width="582" height="381" viewBox="0 0 582 381" fill="none" xmlns="http://www.w3.org/2000/svg">
<g clip-path="url(#clip0_1_283)">
<path d="M65.2528 169.063L107.745 181.076L122.007 168.184L65.2528 169.063Z" fill="white" stroke="black" stroke-miterlimit="10" stroke-linecap="round" stroke-linejoin="round"/>
<path d="M106.378 190.354L71.5045 172.09L105.499 184.103L106.378 190.354Z" fill="white" stroke="black" stroke-miterlimit="10" stroke-linecap="round" stroke-linejoin="round"/>
<path d="M107.745 181.076L106.378 190.354L105.498 184.103L65.2528 169.062L107.745 181.076Z" fill="white" stroke="black" stroke-miterlimit="10" stroke-linecap="round" stroke-linejoin="round"/>
<path d="M105.498 184.103L95.2417 202.367L65.2528 169.062L105.498 184.103Z" fill="white" stroke="black" stroke-miterlimit="10" stroke-linecap="round" stroke-linejoin="round"/>
<path d="M112.825 190.061C112.825 190.061 131.58 197.581 156.782 186.838C181.985 176.094 208.848 161.639 233.074 162.714C257.201 163.788 275.468 173.946 279.766 190.647C284.064 207.25 268.533 220.142 264.723 211.059C261.011 201.976 269.51 180.978 289.925 183.126C310.341 185.275 331.832 206.176 316.789 241.629" stroke="black" stroke-miterlimit="10" stroke-linecap="round" stroke-linejoin="round" stroke-dasharray="3 3"/>
<path d="M145.549 322.4L128.356 376.215C127.673 378.363 129.236 380.512 131.482 380.512C132.655 380.512 133.729 379.926 134.315 378.949L163.132 332.167L145.549 322.4Z" fill="black" stroke="#263238" stroke-miterlimit="10" stroke-linecap="round" stroke-linejoin="round"/>
<path d="M257.201 322.4L274.394 376.215C275.078 378.363 273.515 380.512 271.268 380.512C270.096 380.512 269.021 379.926 268.435 378.949L239.618 332.167L257.201 322.4Z" fill="black" stroke="#263238" stroke-miterlimit="10" stroke-linecap="round" stroke-linejoin="round"/>
<path d="M275.761 290.951C270.486 290.463 262.867 294.272 257.006 294.37C249.973 294.467 243.233 293.002 237.469 288.9C226.626 281.087 218.519 269.269 210.997 258.428C191.949 231.081 169.481 174.922 169.481 174.922C169.384 174.629 169.286 174.336 169.188 174.043C164.304 168.281 161.081 167.5 153.852 170.527C145.549 173.946 136.757 180.783 136.757 180.783V180.685C118.197 197.777 106.573 222.389 106.573 249.638C106.573 301.402 148.577 343.399 200.349 343.399C235.223 343.399 265.7 324.353 281.818 296.03C281.329 292.612 278.594 291.244 275.761 290.951Z" fill="black"/>
<path d="M560.607 9.86436L518.115 21.8774L503.853 8.98535L560.607 9.86436Z" fill="white" stroke="black" stroke-miterlimit="10" stroke-linecap="round" stroke-linejoin="round"/>
<path d="M519.482 31.1554L554.356 12.8916L520.362 24.9047L519.482 31.1554Z" fill="white" stroke="black" stroke-miterlimit="10" stroke-linecap="round" stroke-linejoin="round"/>
<path d="M518.115 21.8773L519.482 31.1557L520.362 24.905L560.607 9.86426L518.115 21.8773Z" fill="white" stroke="black" stroke-miterlimit="10" stroke-linecap="round" stroke-linejoin="round"/>
<path d="M520.362 24.905L530.521 43.1688L560.607 9.86426L520.362 24.905Z" fill="white" stroke="black" stroke-miterlimit="10" stroke-linecap="round" stroke-linejoin="round"/>
<path d="M512.351 27.9327C512.351 27.9327 493.596 35.4531 468.394 24.7097C443.191 13.9663 416.328 -0.488476 392.103 0.585864C367.975 1.6602 349.708 11.8176 345.41 28.5187C341.112 45.1221 356.643 58.0142 360.453 48.9312C364.165 39.8481 355.667 18.8496 335.251 20.9983C314.835 23.147 293.344 44.0478 308.388 79.501" stroke="black" stroke-miterlimit="10" stroke-linecap="round" stroke-linejoin="round" stroke-dasharray="3 3"/>
<path d="M303.797 271.906C303.797 271.906 304.676 276.203 315.421 279.524C326.166 282.942 334.469 284.017 335.251 289.193C336.13 294.272 333.59 298.569 325.287 301.401C317.082 304.234 298.619 300.229 289.828 298.276C281.036 296.323 264.332 291.439 264.332 291.439C264.332 291.439 300.378 276.203 303.797 271.906Z" fill="black" stroke="black" stroke-miterlimit="10" stroke-linecap="round" stroke-linejoin="round"/>
<path d="M335.251 289.193C334.762 286.458 332.223 284.896 328.315 283.431C317.375 282.063 305.555 285.286 298.717 284.017C294.126 283.138 290.902 281.477 288.949 280.305C277.715 285.677 264.332 291.439 264.332 291.439C264.332 291.439 281.036 296.225 289.828 298.276C298.619 300.229 317.082 304.234 325.287 301.401C333.59 298.569 336.13 294.369 335.251 289.193Z" fill="white" stroke="black" stroke-miterlimit="10" stroke-linecap="round" stroke-linejoin="round"/>
<path d="M195.172 288.705C195.172 288.705 210.509 298.081 222.719 300.034C234.93 301.988 247.433 300.327 263.844 294.955C280.255 289.584 296.763 280.208 309.267 272.297C321.77 264.386 334.469 251.884 334.274 240.848C333.981 229.811 318.938 226.979 312.686 227.272C306.434 227.565 302.429 231.765 286.311 236.648C270.193 241.434 249.191 242.02 240.107 240.359C231.022 238.699 221.058 237.234 221.058 237.234C221.058 237.234 226.431 248.857 223.012 260.772C219.593 272.687 213.341 278.059 209.727 279.524C205.917 280.696 195.172 288.705 195.172 288.705Z" fill="white" stroke="black" stroke-miterlimit="10" stroke-linecap="round" stroke-linejoin="round"/>
<path d="M224.087 234.206V237.331C224.087 237.331 228.092 241.043 232.585 244.656C237.079 248.368 242.256 255.4 242.256 255.4C242.256 255.4 252.22 255.107 259.253 255.693C266.384 256.279 272.831 258.525 272.831 258.525L302.331 231.862L301.452 227.369L278.79 229.616L253.294 216.528L231.413 234.401L224.087 234.206Z" fill="black" stroke="black" stroke-miterlimit="10" stroke-linecap="round" stroke-linejoin="round"/>
<path d="M276.836 224.537C276.836 224.537 270.291 219.751 265.211 216.333C260.132 212.914 253.587 210.375 253.587 210.375L224.087 234.206C224.087 234.206 236.297 241.043 243.135 251.2L276.836 224.537Z" fill="white" stroke="black" stroke-miterlimit="10" stroke-linecap="round" stroke-linejoin="round"/>
<path d="M276.836 224.536L243.037 251.199C243.037 251.199 254.955 251.199 258.96 252.078C262.965 252.957 271.463 253.739 271.463 253.739L301.55 227.369C301.55 227.369 287.874 221.997 276.836 224.536Z" fill="white" stroke="black" stroke-miterlimit="10" stroke-linecap="round" stroke-linejoin="round"/>
<path d="M255.248 217.212C255.248 217.212 265.7 220.533 269.021 226.1" stroke="black" stroke-miterlimit="10" stroke-linecap="round" stroke-linejoin="round"/>
<path d="M248.312 221.899C248.312 221.899 258.764 225.22 262.086 230.787" stroke="black" stroke-miterlimit="10" stroke-linecap="round" stroke-linejoin="round"/>
<path d="M241.377 226.49C241.377 226.49 251.829 229.811 255.15 235.378" stroke="black" stroke-miterlimit="10" stroke-linecap="round" stroke-linejoin="round"/>
<path d="M234.539 231.178C234.539 231.178 244.991 234.498 248.312 240.065" stroke="black" stroke-miterlimit="10" stroke-linecap="round" stroke-linejoin="round"/>
<path d="M275.859 228.053C275.859 228.053 280.743 226.49 292.075 229.615" stroke="black" stroke-miterlimit="10" stroke-linecap="round" stroke-linejoin="round"/>
<path d="M269.412 233.424C269.412 233.424 274.101 230.983 285.432 234.108" stroke="black" stroke-miterlimit="10" stroke-linecap="round" stroke-linejoin="round"/>
<path d="M262.769 237.918C262.769 237.918 267.458 235.476 278.79 238.601" stroke="black" stroke-miterlimit="10" stroke-linecap="round" stroke-linejoin="round"/>
<path d="M256.127 242.312C256.127 242.312 260.816 239.87 272.147 242.996" stroke="black" stroke-miterlimit="10" stroke-linecap="round" stroke-linejoin="round"/>
<path d="M226.626 232.253C226.626 232.253 233.464 232.253 234.832 232.253C236.297 232.253 242.158 230.788 244.209 228.834C246.163 226.881 253.587 227.955 254.466 225.709C255.345 223.463 248.508 223.17 246.554 223.463C244.6 223.756 242.256 224.342 242.256 224.342C242.256 224.342 243.428 218.97 244.209 218.091C244.991 217.212 253.587 213.305 254.955 212.426C256.42 211.547 254.955 209.887 251.829 210.766C248.703 211.645 243.037 211.645 243.037 211.645C243.037 211.645 247.335 210.18 247.335 209.105C247.335 207.933 242.256 209.105 240.009 209.984C237.762 210.863 234.93 211.156 234.93 211.156C234.93 211.156 230.631 212.621 228.092 214.575C225.552 216.528 220.961 225.611 220.961 225.611L226.626 232.253Z" fill="white" stroke="black" stroke-miterlimit="10" stroke-linecap="round" stroke-linejoin="round"/>
<path d="M244.503 211.449C244.503 211.449 240.693 211.449 236.297 214.086" stroke="black" stroke-miterlimit="10" stroke-linecap="round" stroke-linejoin="round"/>
<path d="M218.714 87.9006C218.714 87.9006 218.714 88.7796 218.714 95.5187C218.714 102.355 220.375 113.099 223.207 115.638C226.04 118.177 230.045 119.056 227.701 122.475C225.454 125.893 222.328 126.479 222.328 126.479C222.328 126.479 218.909 138.688 218.909 144.645C218.909 150.603 223.207 154.607 215.783 155.975C208.457 157.44 201.033 151.189 201.033 151.189L196.54 159.393L180.617 150.603C180.617 150.603 185.404 143.278 183.743 135.855C182.083 128.433 171.24 116.322 170.458 110.657C169.579 104.992 165.672 93.37 178.664 85.9473C191.753 78.6222 195.661 77.1572 202.498 77.1572C209.336 77.1572 218.128 83.6033 218.714 87.9006Z" fill="white" stroke="black" stroke-miterlimit="10" stroke-linecap="round" stroke-linejoin="round"/>
<path d="M177.589 75.1062C177.589 75.1062 158.052 85.8496 157.466 96.3977C156.88 106.848 168.505 121.889 172.803 125.893C177.101 129.898 183.841 135.855 183.841 135.855C183.841 135.855 186.381 134.683 188.627 132.144C190.874 129.605 190.874 123.94 189.213 121.401C187.553 118.861 184.134 113.489 186.381 111.731C188.627 110.071 191.46 108.899 193.512 111.438C195.465 113.978 196.051 117.396 196.051 117.396C196.051 117.396 199.177 114.857 198.884 112.903C198.591 110.95 195.465 107.825 195.465 106.067C195.465 104.406 199.763 104.602 199.959 99.816C200.252 95.0303 198.298 90.44 198.298 90.44C198.298 90.44 212.755 94.9327 211.583 89.854C210.411 84.7753 206.504 82.5289 206.504 82.5289C206.504 82.5289 220.082 92.784 222.426 90.147C224.673 87.6076 221.547 77.3526 209.629 71.6879C197.712 66.0232 177.589 75.1062 177.589 75.1062Z" fill="black" stroke="black" stroke-miterlimit="10" stroke-linecap="round" stroke-linejoin="round"/>
<path d="M213.439 115.443C214.14 115.443 214.709 113.65 214.709 111.439C214.709 109.227 214.14 107.435 213.439 107.435C212.738 107.435 212.169 109.227 212.169 111.439C212.169 113.65 212.738 115.443 213.439 115.443Z" fill="#263238" stroke="black" stroke-miterlimit="10"/>
<path d="M215.881 155.975C223.207 154.51 219.007 150.603 219.007 144.645C219.007 138.688 222.426 126.479 222.426 126.479C222.426 126.479 218.714 125.307 212.169 128.725C205.624 132.144 196.833 139.176 196.54 142.594C196.247 146.013 201.033 151.091 201.033 151.091C201.033 151.091 201.131 151.189 201.326 151.287C202.792 152.459 209.336 157.244 215.881 155.975Z" fill="black" stroke="black" stroke-miterlimit="10" stroke-linecap="round" stroke-linejoin="round"/>
<path d="M210.802 132.144C210.802 132.144 212.462 135.855 217.933 136.441" stroke="white" stroke-miterlimit="10" stroke-linecap="round" stroke-linejoin="round"/>
<path d="M208.946 105.09C208.946 105.09 210.509 100.207 215.197 102.16" stroke="black" stroke-miterlimit="10" stroke-linecap="round" stroke-linejoin="round"/>
<path d="M196.931 118.666C196.931 118.666 194.684 111.145 192.242 109.778C189.8 108.411 184.427 111.145 184.427 115.345C184.427 119.545 189.311 126.87 191.949 128.237C194.586 129.604 196.442 127.749 196.442 127.749" fill="white"/>
<path d="M196.931 118.666C196.931 118.666 194.684 111.145 192.242 109.778C189.8 108.411 184.427 111.145 184.427 115.345C184.427 119.545 189.311 126.87 191.949 128.237C194.586 129.604 196.442 127.749 196.442 127.749" stroke="black" stroke-miterlimit="10" stroke-linecap="round" stroke-linejoin="round"/>
<path d="M190.483 130.972C197.605 130.972 203.378 124.937 203.378 117.494C203.378 110.05 197.605 104.016 190.483 104.016C183.362 104.016 177.589 110.05 177.589 117.494C177.589 124.937 183.362 130.972 190.483 130.972Z" fill="black" stroke="white" stroke-miterlimit="10"/>
<path d="M198.208 118.375C198.7 113.926 195.621 109.934 191.332 109.46C187.042 108.985 183.166 112.208 182.674 116.658C182.182 121.108 185.26 125.099 189.55 125.574C193.839 126.048 197.716 122.825 198.208 118.375Z" fill="black" stroke="white" stroke-miterlimit="10" stroke-linecap="round" stroke-linejoin="round"/>
<path d="M188.627 117.689L176.417 73.7385L181.008 71.9805L191.753 117.103L188.627 117.689Z" fill="white" stroke="black" stroke-miterlimit="10" stroke-linecap="round" stroke-linejoin="round"/>
<path d="M178.468 151.384C178.468 151.384 163.718 164.179 159.713 185.958C155.708 207.738 165.379 255.107 176.124 270.734C186.869 286.36 195.661 290.56 198.786 291.146C201.912 291.732 220.082 285.188 226.822 280.11C233.66 275.031 237.274 266.241 237.567 257.451C237.86 248.661 233.855 242.41 229.068 234.206C224.282 226.002 206.699 192.502 203.573 181.173C200.447 169.843 203.573 171.797 195.661 160.174C187.748 148.552 178.468 151.384 178.468 151.384Z" fill="white" stroke="black" stroke-miterlimit="10" stroke-linecap="round" stroke-linejoin="round"/>
<path d="M212.755 250.908C212.755 250.908 225.845 255.205 242.842 254.033C259.839 252.861 278.887 245.829 278.887 245.829C278.887 245.829 280.352 242.411 282.599 238.699C284.846 234.988 289.437 233.328 290.512 231.863C291.684 230.398 292.758 225.612 294.224 228.444C295.689 231.277 295.103 233.523 293.637 234.695C292.172 235.867 291.977 236.941 291.977 236.941C291.977 236.941 295.982 234.402 299.596 232.644C303.308 230.984 306.141 228.151 307.802 225.514C309.462 222.975 310.341 223.268 310.341 225.807C310.341 228.347 307.802 234.304 307.802 234.304C307.802 234.304 307.216 238.602 306.629 242.508C306.043 246.415 302.331 249.833 297.252 252.178C292.172 254.424 274.296 259.503 270.877 260.675C267.458 261.847 236.297 272.004 223.501 274.25C210.704 276.497 203.085 276.497 200.252 275.422C197.419 274.25 189.995 259.307 189.995 259.307C189.995 259.307 205.917 257.745 212.755 250.908Z" fill="white" stroke="black" stroke-miterlimit="10" stroke-linecap="round" stroke-linejoin="round"/>
<path d="M173.584 184.884C173.584 184.884 176.417 211.548 178.957 232.546C181.496 253.544 183.255 262.335 183.255 262.335C183.255 262.335 192.339 262.921 200.838 259.795C209.336 256.67 217.835 249.052 217.835 249.052C217.835 249.052 204.257 199.73 199.08 184.982C194 170.234 189.409 164.57 181.496 166.23C173.584 167.89 173.877 179.317 173.877 179.317" fill="white"/>
<path d="M173.584 184.884C173.584 184.884 176.417 211.548 178.957 232.546C181.496 253.544 183.255 262.335 183.255 262.335C183.255 262.335 192.339 262.921 200.838 259.795C209.336 256.67 217.835 249.052 217.835 249.052C217.835 249.052 204.257 199.73 199.08 184.982C194 170.234 189.409 164.57 181.496 166.23C173.584 167.89 173.877 179.317 173.877 179.317" stroke="black" stroke-miterlimit="10" stroke-linecap="round" stroke-linejoin="round"/>
<path d="M179.25 144.646L201.424 156.561L205.038 171.016L176.124 151.678L179.25 144.646Z" fill="white" stroke="black" stroke-miterlimit="10" stroke-linecap="round" stroke-linejoin="round"/>
<path d="M7.1309 270.441C10.5498 271.906 18.853 271.711 18.853 271.711C18.9506 271.711 17.0947 266.241 16.8993 265.948C15.0433 262.139 9.27995 255.888 4.59113 256.474C1.17219 256.963 -0.683799 260.283 0.0976715 263.506C0.976826 266.73 4.29807 269.171 7.1309 270.441Z" fill="black"/>
<path d="M10.0614 294.467C13.578 294.956 21.002 292.807 21.5881 292.612C22.7603 296.714 24.3233 300.913 26.0816 305.015C27.0584 307.359 28.2306 309.703 29.3051 312.047C28.6213 311.071 28.0352 310.192 27.9376 310.094C25.2024 306.871 17.9738 302.378 13.578 304.234C10.4522 305.601 9.573 309.313 11.1359 312.145C12.6989 315.075 16.6062 316.54 19.7321 316.931C22.858 317.419 29.2074 315.661 30.9658 315.173C31.4542 316.052 31.8449 316.931 32.3333 317.81C34.4824 322.107 36.6314 326.307 38.5851 330.604C39.2689 332.069 39.9527 333.632 40.5388 335.097C39.9527 334.218 39.4642 333.436 39.3666 333.339C36.6314 330.116 29.4028 325.623 25.007 327.479C21.8812 328.846 21.002 332.557 22.5649 335.39C24.1279 338.32 28.0352 339.785 31.1611 340.176C34.1893 340.664 40.0503 339.101 42.004 338.515C42.5901 340.078 43.2739 341.641 43.7623 343.106C44.0554 344.18 44.4461 345.157 44.7392 346.231C45.0322 347.305 45.3253 348.38 45.6183 349.356C46.1067 351.407 46.5952 353.458 47.0836 355.412C47.3766 356.779 47.6697 358.146 47.9627 359.416C47.2789 357.951 45.9114 355.021 45.716 354.826C43.4693 351.212 37.0221 345.645 32.431 346.817C29.1098 347.696 27.6445 351.212 28.8167 354.337C29.9889 357.463 33.5055 359.514 36.5337 360.393C39.855 361.369 47.1813 360.49 48.1581 360.393C48.6465 362.541 49.0373 364.69 49.3303 366.741C50.1118 371.234 50.6979 375.238 51.1863 378.656H54.3122C53.7261 375.14 53.0423 370.941 52.1631 366.253C51.7724 364.006 51.1863 361.662 50.6979 359.221C51.284 359.025 54.4099 357.756 57.145 356.193C59.5871 358.83 65.7412 361.858 66.5226 362.248C65.6435 364.299 64.862 366.35 63.9829 368.206C62.2246 372.113 60.6616 375.629 59.1964 378.656H62.5176C63.7875 375.922 65.1551 372.796 66.5226 369.28C67.4018 367.132 68.281 364.885 69.1601 362.541C70.0393 362.737 77.3655 364.202 80.6868 363.42C83.715 362.737 87.5247 360.979 88.8922 357.951C90.2598 355.021 88.9899 351.31 85.7664 350.235C81.2729 348.77 74.435 353.849 71.8953 357.17C71.6999 357.365 70.43 359.709 69.5508 361.174C69.9416 360.197 70.2346 359.318 70.6254 358.342C71.3092 356.388 71.9929 354.435 72.6767 352.286C72.9698 351.212 73.2628 350.235 73.6536 349.161C73.9466 348.087 74.2397 347.012 74.5327 345.84C75.1188 343.301 75.6072 340.664 76.0957 338.027C77.7563 338.613 83.9104 340.762 87.0362 340.566C90.1621 340.371 94.1672 339.199 95.9255 336.366C97.6838 333.632 97.0977 329.823 94.0695 328.26C89.8691 326.111 82.3474 330.116 79.3192 333.046C79.1239 333.241 77.2679 335.585 76.1933 336.953C76.4864 335.39 76.6818 333.729 76.8771 332.167C77.4632 327.479 77.854 322.693 78.3424 318.005C78.4401 316.54 78.6354 315.075 78.8308 313.61C79.4169 313.805 86.6455 316.54 90.1621 316.247C93.288 316.052 97.293 314.88 99.0513 312.047C100.81 309.313 100.224 305.504 97.1954 303.941C92.9949 301.792 85.4733 305.797 82.4451 308.727C82.2497 308.922 79.5146 312.34 78.8308 313.317C79.1239 310.094 79.5146 306.969 80.003 303.843C80.6868 299.546 81.5659 295.346 82.7382 291.342C83.0312 291.44 90.5529 294.272 94.1672 293.979C97.293 293.784 101.298 292.612 103.056 289.779C104.815 287.045 104.229 283.236 101.2 281.673C97 279.524 89.4783 283.529 86.4501 286.459C86.2548 286.654 83.2266 290.365 82.7382 291.049C82.8358 290.854 82.8358 290.561 82.9335 290.365C84.2034 286.166 86.0594 282.161 87.9154 278.547C88.9899 276.399 90.1621 274.445 91.3343 272.59C92.7019 273.273 98.856 276.301 102.177 276.399C105.303 276.496 109.406 275.813 111.457 273.273C113.509 270.734 113.313 266.925 110.48 264.972C106.573 262.335 98.6606 265.46 95.3394 268.097C95.144 268.195 93.4834 269.855 92.3112 271.125C92.7996 270.246 93.3857 269.367 93.8741 268.585C95.8278 265.655 97.8791 263.018 99.6375 260.674C100.614 259.405 101.591 258.233 102.47 257.158C104.131 257.158 110.773 256.963 113.704 255.596C116.537 254.228 119.858 251.787 120.542 248.466C121.226 245.243 119.272 241.922 115.853 241.532C111.164 241.043 105.596 247.489 103.838 251.298C103.642 251.591 101.982 257.061 102.08 257.061H102.177C101.298 258.037 100.321 259.209 99.3444 260.381C97.4884 262.628 95.437 265.167 93.3857 268.195C91.3343 271.125 89.1853 274.348 87.2316 278.059C85.2779 281.673 83.4219 285.58 81.9567 289.877C81.9567 289.877 81.9567 289.975 81.9567 290.072C81.9567 288.705 81.9567 284.798 81.859 284.505C81.2729 280.305 77.854 272.59 73.1651 271.711C69.8439 271.125 67.0111 273.762 66.718 276.985C66.425 280.306 68.8671 283.626 71.2115 285.775C73.8489 288.119 81.2729 290.463 81.859 290.658C80.5891 294.76 79.5146 299.058 78.7331 303.453C78.2447 305.992 77.9517 308.531 77.5609 311.071C77.5609 309.899 77.5609 308.824 77.4632 308.629C76.8771 304.429 73.4582 296.714 68.7694 295.835C65.4481 295.249 62.6153 297.886 62.3222 301.109C62.0292 304.429 64.4713 307.75 66.8157 309.899C69.1601 312.047 75.4119 314.098 77.0725 314.684C76.9748 315.661 76.7794 316.638 76.6818 317.614C76.0957 322.4 75.6072 327.088 74.9234 331.678C74.7281 333.339 74.435 334.901 74.142 336.464C74.142 335.39 74.142 334.511 74.0443 334.413C73.4582 330.213 70.0393 322.498 65.3504 321.619C62.0292 321.033 59.1964 323.67 58.9033 326.893C58.6103 330.213 61.0524 333.534 63.3968 335.683C65.6435 337.734 71.4068 339.687 73.3605 340.371C72.9698 342.031 72.6767 343.594 72.286 345.157C71.9929 346.231 71.7976 347.305 71.4068 348.282C71.1138 349.356 70.723 350.333 70.43 351.407C69.7462 353.361 68.9647 355.412 68.281 357.267C67.7925 358.537 67.3041 359.807 66.718 361.076C67.0111 359.416 67.4018 356.291 67.4018 355.998C67.4995 353.165 66.425 348.673 64.4713 345.45C64.4713 345.059 64.4713 344.668 64.3736 344.18C63.8852 340.957 60.857 338.515 57.5357 339.394C52.9446 340.566 50.1118 348.673 49.8187 352.872C49.8187 353.165 50.0141 355.802 50.1118 357.56C49.9164 356.584 49.6234 355.607 49.428 354.533C48.9396 352.482 48.4511 350.528 47.865 348.38C47.572 347.305 47.2789 346.329 46.8882 345.254C46.5952 344.18 46.1067 343.106 45.8137 342.031C44.9345 339.59 43.86 337.148 42.7855 334.608C44.5438 334.218 50.7956 332.557 53.3353 330.702C55.8751 328.748 58.5126 325.623 58.5126 322.302C58.5126 319.079 55.8751 316.247 52.4562 316.54C47.7674 317.028 43.6646 324.549 42.7855 328.651C42.6878 328.944 42.4924 331.971 42.2971 333.632C41.6133 332.167 40.9295 330.702 40.2457 329.237C38.1944 325.037 35.8499 320.837 33.7009 316.54C33.0171 315.27 32.3333 314.001 31.6495 312.633C32.2356 312.536 39.7573 310.778 42.5901 308.629C45.1299 306.676 47.7674 303.55 47.7674 300.23C47.7674 297.007 45.1299 294.174 41.711 294.467C37.0221 294.956 32.9194 302.476 32.0403 306.578C31.9426 306.871 31.5519 311.266 31.5519 312.34C30.0866 309.508 28.6213 306.676 27.3515 303.746C25.4955 299.741 23.9325 295.835 22.7603 291.83C23.0534 291.733 30.8681 289.975 33.7986 287.728C36.3384 285.775 38.9758 282.65 38.9758 279.329C38.9758 276.106 36.3384 273.273 32.9194 273.566C28.2306 274.055 24.1279 281.575 23.2487 285.677C23.151 285.97 22.7603 290.658 22.7603 291.537C22.6626 291.342 22.5649 291.049 22.5649 290.854C21.2951 286.556 20.6113 282.357 20.2205 278.254C19.9275 275.91 19.8298 273.664 19.7321 271.418C21.1974 271.222 28.0352 270.343 30.8681 268.585C33.6032 266.925 36.5337 264.093 36.9245 260.772C37.2175 257.549 34.9708 254.424 31.5519 254.424C26.863 254.424 21.9788 261.456 20.6113 265.46C20.5136 265.655 20.0252 267.999 19.7321 269.66C19.7321 268.683 19.6344 267.609 19.7321 266.73C19.7321 263.116 19.9275 259.893 20.2205 256.963C20.3182 255.303 20.5136 253.838 20.709 252.47C22.0765 251.494 27.5468 247.685 29.2074 244.95C30.8681 242.215 32.2356 238.406 30.9658 235.281C29.7935 232.253 26.2769 230.593 23.2487 232.156C19.0483 234.304 17.9738 242.801 18.6576 246.903C18.7553 247.294 20.3182 252.763 20.4159 252.763C20.4159 252.763 20.5136 252.763 20.5136 252.666C20.3182 254.033 20.1229 255.4 20.0252 256.963C19.7321 259.893 19.4391 263.116 19.3414 266.73C19.2437 270.343 19.2437 274.25 19.6344 278.352C20.0252 282.454 20.6113 286.752 21.7835 291.147C21.7835 291.244 21.7835 291.244 21.7835 291.342C21.002 290.17 18.853 286.947 18.6576 286.752C15.9224 283.529 8.69385 279.036 4.29808 280.892C1.1722 282.259 0.293042 285.97 1.85598 288.803C3.02819 292.514 6.93554 293.979 10.0614 294.467Z" fill="black"/>
<path d="M91.139 272.199C91.2367 272.199 92.6042 266.73 92.7019 266.339C93.288 262.14 91.9204 253.74 87.72 251.689C84.6918 250.224 81.2729 251.982 80.1007 255.108C78.9285 258.233 80.3938 262.042 82.1521 264.777C84.1057 267.804 91.0413 272.199 91.139 272.199Z" fill="black"/>
<path d="M484.219 309.215C486.368 310.192 491.74 310.094 491.74 310.094C491.838 310.094 490.568 306.578 490.47 306.383C489.298 303.941 485.586 299.937 482.558 300.327C480.409 300.62 479.139 302.769 479.627 304.82C480.213 306.871 482.363 308.434 484.219 309.215Z" fill="black"/>
<path d="M486.075 324.646C488.321 324.939 493.108 323.572 493.498 323.474C494.28 326.111 495.257 328.846 496.429 331.483C497.113 333.046 497.797 334.511 498.48 335.976C498.09 335.292 497.699 334.804 497.601 334.706C495.843 332.655 491.154 329.725 488.419 330.897C486.368 331.776 485.781 334.12 486.856 335.976C487.93 337.831 490.373 338.808 492.326 339.101C494.378 339.394 498.48 338.32 499.555 338.027C499.848 338.613 500.141 339.199 500.434 339.785C501.802 342.519 503.169 345.254 504.439 347.989C504.927 348.965 505.318 349.942 505.709 350.821C505.318 350.235 505.025 349.747 504.927 349.747C503.169 347.696 498.48 344.766 495.745 345.938C493.694 346.817 493.108 349.161 494.182 351.016C495.257 352.872 497.699 353.849 499.653 354.142C501.606 354.435 505.318 353.458 506.686 353.067C507.077 354.044 507.467 355.021 507.76 355.998C507.956 356.681 508.249 357.267 508.444 357.951C508.639 358.635 508.835 359.318 509.03 360.002C509.323 361.272 509.714 362.639 509.909 363.909C510.105 364.788 510.3 365.667 510.495 366.448C510.105 365.471 509.128 363.616 509.03 363.518C507.565 361.272 503.462 357.658 500.532 358.342C498.383 358.928 497.504 361.174 498.187 363.127C498.969 365.178 501.215 366.448 503.169 367.034C505.318 367.718 510.007 367.132 510.593 367.034C510.886 368.401 511.179 369.769 511.375 371.136C511.863 373.968 512.254 376.605 512.547 378.754H514.5C514.11 376.508 513.719 373.773 513.133 370.843C512.84 369.378 512.547 367.913 512.156 366.35C512.547 366.253 514.5 365.374 516.259 364.397C517.822 366.057 521.827 368.011 522.315 368.304C521.729 369.671 521.241 370.941 520.752 372.113C519.678 374.652 518.603 376.898 517.724 378.754H519.873C520.655 376.996 521.534 374.945 522.413 372.796C522.999 371.429 523.487 369.964 524.073 368.499C524.66 368.597 529.348 369.573 531.497 369.085C533.451 368.597 535.893 367.522 536.772 365.569C537.652 363.616 536.87 361.272 534.819 360.588C531.986 359.611 527.59 362.932 525.93 365.081C525.832 365.178 524.953 366.741 524.464 367.718C524.66 367.132 524.953 366.546 525.148 365.862C525.636 364.592 526.027 363.323 526.516 361.955C526.711 361.272 526.906 360.588 527.102 359.904C527.297 359.221 527.492 358.537 527.688 357.756C528.079 356.095 528.372 354.435 528.665 352.775C529.739 353.165 533.647 354.533 535.698 354.435C537.749 354.337 540.289 353.556 541.461 351.798C542.633 350.04 542.243 347.598 540.289 346.621C537.554 345.254 532.767 347.793 530.814 349.747C530.716 349.844 529.446 351.407 528.86 352.286C529.055 351.309 529.153 350.235 529.348 349.161C529.739 346.133 530.032 343.105 530.325 340.078C530.423 339.101 530.521 338.222 530.618 337.245C531.009 337.343 535.6 339.101 537.945 338.906C539.996 338.808 542.536 338.027 543.708 336.269C544.88 334.511 544.489 332.069 542.536 331.092C539.801 329.725 535.014 332.264 533.06 334.218C532.963 334.315 531.204 336.562 530.716 337.148C530.911 335.097 531.204 333.046 531.497 331.092C531.888 328.358 532.474 325.623 533.256 323.084C533.451 323.181 538.238 324.939 540.582 324.842C542.633 324.744 545.173 323.963 546.345 322.205C547.518 320.447 547.127 318.005 545.173 317.028C542.438 315.661 537.652 318.2 535.698 320.154C535.503 320.349 533.647 322.693 533.353 323.084C533.353 322.888 533.451 322.791 533.451 322.595C534.33 319.861 535.405 317.321 536.675 314.977C537.359 313.61 538.14 312.34 538.824 311.168C539.703 311.559 543.61 313.512 545.759 313.61C547.811 313.708 550.35 313.219 551.718 311.559C553.086 309.899 552.89 307.457 551.132 306.285C548.592 304.625 543.513 306.578 541.364 308.336C541.266 308.434 540.191 309.508 539.41 310.289C539.801 309.703 540.094 309.215 540.484 308.727C541.754 306.773 543.024 305.113 544.196 303.648C544.88 302.769 545.466 302.085 546.052 301.402C547.127 301.402 551.425 301.206 553.281 300.327C555.137 299.448 557.188 297.885 557.677 295.737C558.067 293.686 556.895 291.537 554.649 291.342C551.62 291.049 548.006 295.151 546.932 297.593C546.834 297.788 545.759 301.304 545.759 301.304H545.857C545.271 301.988 544.685 302.671 544.001 303.453C542.829 304.918 541.461 306.578 540.191 308.434C538.824 310.289 537.456 312.438 536.186 314.782C534.916 317.126 533.744 319.665 532.767 322.4V322.498C532.767 321.619 532.767 319.079 532.767 318.884C532.377 316.149 530.13 311.168 527.199 310.68C525.05 310.289 523.194 311.95 523.097 314.098C522.901 316.247 524.464 318.396 526.027 319.763C527.688 321.326 532.474 322.791 532.865 322.888C531.986 325.525 531.4 328.26 530.911 331.092C530.618 332.753 530.423 334.315 530.13 335.976C530.13 335.194 530.13 334.511 530.13 334.413C529.739 331.678 527.492 326.697 524.562 326.209C522.413 325.818 520.557 327.479 520.459 329.627C520.264 331.776 521.827 333.925 523.39 335.292C524.953 336.659 528.958 338.027 530.032 338.32C529.935 338.906 529.837 339.589 529.837 340.175C529.446 343.203 529.153 346.231 528.665 349.258C528.469 350.333 528.372 351.309 528.176 352.384C528.176 351.7 528.176 351.114 528.176 351.016C527.785 348.282 525.539 343.301 522.608 342.812C520.459 342.422 518.603 344.082 518.506 346.231C518.31 348.379 519.873 350.528 521.436 351.895C522.901 353.165 526.613 354.435 527.883 354.923C527.688 355.998 527.395 356.974 527.199 358.049C527.004 358.732 526.906 359.416 526.613 360.1C526.418 360.783 526.223 361.467 525.93 362.053C525.441 363.323 525.05 364.592 524.562 365.764C524.269 366.643 523.878 367.425 523.585 368.206C523.78 367.132 524.073 365.081 524.073 364.983C524.073 363.225 523.487 360.295 522.217 358.244C522.217 357.951 522.218 357.756 522.12 357.463C521.827 355.412 519.873 353.849 517.724 354.435C514.794 355.216 512.938 360.393 512.84 363.03C512.84 363.225 512.938 364.885 513.035 366.057C512.84 365.374 512.742 364.788 512.547 364.104C512.254 362.834 511.863 361.565 511.57 360.1C511.375 359.416 511.179 358.732 510.984 358.049C510.788 357.365 510.495 356.681 510.3 355.998C509.714 354.435 509.03 352.872 508.346 351.212C509.519 350.919 513.524 349.942 515.087 348.672C516.65 347.403 518.408 345.449 518.408 343.301C518.408 341.25 516.747 339.394 514.5 339.589C511.472 339.882 508.835 344.766 508.346 347.403C508.346 347.598 508.151 349.551 508.053 350.626C507.663 349.649 507.174 348.77 506.686 347.793C505.318 345.059 503.853 342.324 502.485 339.687C501.997 338.906 501.606 338.027 501.215 337.245C501.606 337.148 506.393 336.073 508.249 334.608C509.812 333.339 511.57 331.385 511.57 329.237C511.57 327.186 509.909 325.33 507.663 325.525C504.634 325.818 501.997 330.702 501.509 333.339C501.509 333.534 501.215 336.366 501.215 337.05C500.239 335.194 499.359 333.436 498.48 331.581C497.308 329.041 496.331 326.502 495.55 323.963C495.745 323.963 500.727 322.791 502.583 321.326C504.146 320.056 505.904 318.103 505.904 315.954C505.904 313.903 504.244 312.047 501.997 312.243C498.969 312.536 496.331 317.419 495.843 320.056C495.843 320.251 495.55 323.279 495.55 323.865C495.55 323.67 495.452 323.572 495.354 323.377C494.573 320.642 494.085 317.907 493.792 315.27C493.596 313.805 493.498 312.34 493.498 310.875C494.475 310.778 498.773 310.192 500.629 309.117C502.388 308.043 504.244 306.285 504.537 304.136C504.732 302.085 503.267 300.034 501.118 300.034C498.09 300.034 494.964 304.527 494.085 307.066C494.085 307.164 493.694 308.727 493.498 309.801C493.498 309.117 493.498 308.531 493.498 307.848C493.498 305.601 493.694 303.453 493.792 301.597C493.889 300.522 493.987 299.546 494.085 298.667C494.964 298.081 498.48 295.541 499.555 293.783C500.629 292.025 501.509 289.584 500.727 287.533C499.946 285.579 497.699 284.505 495.745 285.482C493.01 286.849 492.326 292.318 492.815 294.955C492.815 295.151 493.889 298.764 493.889 298.667C493.889 298.667 493.889 298.667 493.987 298.667C493.889 299.546 493.792 300.425 493.596 301.402C493.401 303.257 493.205 305.406 493.205 307.652C493.108 309.996 493.108 312.438 493.401 315.075C493.596 317.712 493.987 320.447 494.768 323.279V323.377C494.28 322.595 492.912 320.544 492.717 320.447C490.959 318.396 486.27 315.466 483.535 316.638C481.483 317.517 480.897 319.861 481.972 321.716C481.581 323.474 484.023 324.353 486.075 324.646Z" fill="black"/>
<path d="M538.14 310.387C538.14 310.387 539.117 306.871 539.117 306.578C539.508 303.941 538.628 298.471 535.893 297.202C533.94 296.225 531.693 297.397 531.009 299.35C530.228 301.401 531.204 303.843 532.279 305.503C533.549 307.554 538.14 310.387 538.14 310.387Z" fill="black"/>
<path d="M581.512 57.5256H340.916V52.4469C340.916 49.2239 343.554 46.5869 346.777 46.5869H575.553C578.776 46.5869 581.414 49.2239 581.414 52.4469V57.5256H581.512Z" fill="black"/>
<path d="M553.867 54.987C555.432 54.987 556.7 53.7189 556.7 52.1546C556.7 50.5904 555.432 49.3223 553.867 49.3223C552.303 49.3223 551.034 50.5904 551.034 52.1546C551.034 53.7189 552.303 54.987 553.867 54.987Z" fill="white" stroke="#263238" stroke-miterlimit="10" stroke-linecap="round" stroke-linejoin="round"/>
<path d="M563.342 54.987C564.907 54.987 566.175 53.7189 566.175 52.1546C566.175 50.5904 564.907 49.3223 563.342 49.3223C561.778 49.3223 560.51 50.5904 560.51 52.1546C560.51 53.7189 561.778 54.987 563.342 54.987Z" fill="white" stroke="#263238" stroke-miterlimit="10" stroke-linecap="round" stroke-linejoin="round"/>
<path d="M572.818 54.987C574.382 54.987 575.651 53.7189 575.651 52.1546C575.651 50.5904 574.382 49.3223 572.818 49.3223C571.253 49.3223 569.985 50.5904 569.985 52.1546C569.985 53.7189 571.253 54.987 572.818 54.987Z" fill="white" stroke="#263238" stroke-miterlimit="10" stroke-linecap="round" stroke-linejoin="round"/>
<path d="M575.651 264.678H346.777C343.554 264.678 340.916 262.041 340.916 258.818V52.4469C340.916 49.2239 343.554 46.5869 346.777 46.5869H575.553C578.776 46.5869 581.414 49.2239 581.414 52.4469V258.818C581.512 262.041 578.874 264.678 575.651 264.678Z" stroke="black" stroke-miterlimit="10" stroke-linecap="round" stroke-linejoin="round"/>
<path d="M386.437 71.5898H352.052V92.8813H386.437V71.5898Z" fill="white" stroke="black" stroke-miterlimit="10" stroke-linecap="round" stroke-linejoin="round"/>
<path d="M386.437 104.895H352.052V126.186H386.437V104.895Z" fill="white" stroke="black" stroke-miterlimit="10" stroke-linecap="round" stroke-linejoin="round"/>
<path d="M386.437 138.199H352.052V159.491H386.437V138.199Z" fill="white" stroke="black" stroke-miterlimit="10" stroke-linecap="round" stroke-linejoin="round"/>
<path d="M475.72 51.6659C475.72 51.6659 473.766 40.8248 479.334 36.1368C484.902 31.4488 501.802 38.0901 505.611 45.0245C509.519 51.9589 508.639 63.2883 502.583 67.195C496.527 71.1017 488.419 70.2227 487.051 69.1483C485.684 67.9763 475.72 51.6659 475.72 51.6659Z" fill="black" stroke="black" stroke-miterlimit="10" stroke-linecap="round" stroke-linejoin="round"/>
<path d="M440.359 77.3527C440.359 77.3527 432.641 77.6458 428.148 70.1254C423.752 62.605 436.451 50.2013 454.425 48.2479C472.399 46.2946 482.656 50.4943 486.856 60.4563C491.056 70.4184 489.591 84.5801 480.995 88.3891C472.399 92.2958 469.078 91.4168 467.417 88.9752C465.756 86.4358 460.774 73.4461 460.774 73.4461C460.774 73.4461 455.304 77.0597 449.736 78.1341C444.168 79.3061 440.359 77.3527 440.359 77.3527Z" fill="black" stroke="black" stroke-miterlimit="10" stroke-linecap="round" stroke-linejoin="round"/>
<path d="M423.752 131.362L412.909 180.196L396.498 167.988L394.349 174.336C394.349 174.336 412.714 199.241 414.082 198.948C419.65 197.971 430.883 185.275 430.883 185.275L423.752 131.362Z" fill="white" stroke="#263238" stroke-miterlimit="10" stroke-linecap="round" stroke-linejoin="round"/>
<path d="M430.883 185.372L423.85 132.339C423.85 132.144 423.557 132.144 423.557 132.339L412.909 180.196L408.318 176.777L403.141 185.958C408.123 192.404 413.495 199.143 414.179 199.046C419.65 197.971 430.883 185.372 430.883 185.372Z" fill="black" stroke="black" stroke-miterlimit="10" stroke-linecap="round" stroke-linejoin="round"/>
<path d="M492.424 264.678C492.912 220.532 475.134 190.255 475.134 190.255L469.566 185.274H430.786C411.151 211.254 408.514 250.907 408.123 264.678H492.424Z" fill="white" stroke="black" stroke-miterlimit="10" stroke-linecap="round" stroke-linejoin="round"/>
<path d="M464.975 214.673C457.062 223.365 443.191 238.504 440.945 240.652" stroke="black" stroke-miterlimit="10" stroke-linecap="round" stroke-linejoin="round"/>
<path d="M470.543 208.617C470.543 208.617 469.078 210.278 466.831 212.719" stroke="black" stroke-miterlimit="10" stroke-linecap="round" stroke-linejoin="round"/>
<path d="M440.749 246.219L438.6 248.367" stroke="black" stroke-miterlimit="10" stroke-linecap="round" stroke-linejoin="round"/>
<path d="M457.942 228.15L442.801 244.07" stroke="black" stroke-miterlimit="10" stroke-linecap="round" stroke-linejoin="round"/>
<path d="M446.708 108.703C446.708 108.703 452.276 109.582 456.086 109.289C459.993 108.996 463.803 105.969 463.803 105.969L464.096 123.158L487.051 133.12L475.134 190.451C475.134 190.451 463.217 201.292 446.61 198.753C435.377 197.092 425.901 192.404 425.901 192.404C425.901 192.404 426.487 169.355 424.534 157.439C422.58 145.524 423.655 131.46 423.655 131.46L446.903 121.791L446.61 110.754V108.703H446.708Z" fill="black" stroke="black" stroke-miterlimit="10" stroke-linecap="round" stroke-linejoin="round"/>
<path d="M468.198 124.819L464.193 123.061L463.9 105.871C463.9 105.871 459.993 108.899 456.183 109.192C452.276 109.485 446.806 108.606 446.806 108.606V110.559L447.099 121.596L441.238 124.037L438.796 140.934L466.245 142.594L468.198 124.819Z" fill="white" stroke="black" stroke-miterlimit="10" stroke-linecap="round" stroke-linejoin="round"/>
<path d="M447.001 112.219C447.001 112.219 455.304 114.466 463.9 114.856L463.803 105.871C463.803 105.871 459.895 108.899 456.086 109.192C453.839 109.387 451.104 109.192 449.15 108.899L447.001 112.219Z" fill="black" stroke="black" stroke-miterlimit="10" stroke-linecap="round" stroke-linejoin="round"/>
<path d="M468.589 62.9951C468.589 62.9951 463.021 66.3158 455.304 70.2225C447.587 74.1292 438.698 74.4222 438.698 74.4222C438.698 74.4222 435.67 88.2909 434.791 93.565C433.911 98.839 440.554 111.243 445.34 112.415C455.793 114.954 462.63 110.364 464.877 109.485C467.124 108.606 471.91 97.4717 473.571 94.151C475.232 90.8303 472.985 88.5839 472.985 88.5839C472.985 88.5839 466.929 69.6365 468.589 62.9951Z" fill="white" stroke="black" stroke-miterlimit="10" stroke-linecap="round" stroke-linejoin="round"/>
<path d="M445.006 82.0997C445.197 80.6558 444.788 79.4108 444.093 79.3188C443.398 79.2268 442.679 80.3227 442.488 81.7665C442.297 83.2104 442.706 84.4554 443.401 84.5474C444.096 84.6394 444.815 83.5436 445.006 82.0997Z" fill="black" stroke="black" stroke-miterlimit="10"/>
<path d="M460.295 84.8595C460.487 83.4156 460.078 82.1705 459.383 82.0785C458.687 81.9865 457.969 83.0824 457.778 84.5263C457.586 85.9702 457.995 87.2152 458.69 87.3072C459.386 87.3992 460.104 86.3033 460.295 84.8595Z" fill="black" stroke="black" stroke-miterlimit="10"/>
<path d="M450.908 81.2588L449.443 89.6582C449.443 89.6582 446.708 89.6582 445.731 90.7325C444.852 91.8069 447.099 93.6625 449.052 94.0532" stroke="black" stroke-miterlimit="10" stroke-linecap="round" stroke-linejoin="round"/>
<path d="M455.89 77.7426C455.89 77.7426 460.677 75.8869 464.096 80.8679" stroke="black" stroke-miterlimit="10" stroke-linecap="round" stroke-linejoin="round"/>
<path d="M449.345 76.3756C449.345 76.3756 448.271 71.2969 442.117 74.2269" stroke="black" stroke-miterlimit="10" stroke-linecap="round" stroke-linejoin="round"/>
<path d="M445.438 98.0579C445.438 98.0579 450.908 100.988 457.942 95.2256" stroke="black" stroke-miterlimit="10" stroke-linecap="round" stroke-linejoin="round"/>
<path d="M469.664 91.2209C469.664 91.2209 474.939 85.3608 477.674 88.1932C480.409 90.9279 478.553 96.4949 475.134 97.5692C471.715 98.6436 468.491 97.5692 468.491 97.5692" fill="white"/>
<path d="M469.664 91.2209C469.664 91.2209 474.939 85.3608 477.674 88.1932C480.409 90.9279 478.553 96.4949 475.134 97.5692C471.715 98.6436 468.491 97.5692 468.491 97.5692" stroke="black" stroke-miterlimit="10" stroke-linecap="round" stroke-linejoin="round"/>
<path d="M487.052 133.023L500.63 168.769L522.804 139.664C522.804 139.664 521.143 133.609 522.218 130.776C523.292 128.042 525.246 125.795 526.125 124.135C527.004 122.475 526.711 118.08 528.665 119.935C530.619 121.889 529.74 125.502 529.74 125.502C529.74 125.502 536.675 117.201 538.043 116.615C539.41 116.029 540.582 117.201 540.582 117.201C540.582 117.201 543.122 114.954 543.611 116.908C544.197 118.861 541.657 123.256 541.657 123.256L544.197 121.889C544.197 121.889 545.857 121.107 545.857 122.475C545.857 123.842 539.996 129.702 539.996 129.702C539.996 129.702 543.611 126.381 544.978 127.456C546.346 128.53 538.629 134.683 537.75 136.343C536.968 138.004 536.089 139.664 534.135 140.738C532.182 141.813 529.74 142.692 529.74 142.692C529.74 142.692 512.547 180.88 509.519 187.228C506.491 193.576 502.29 195.237 500.141 194.455C497.992 193.674 480.214 167.011 480.214 167.011L487.052 133.023Z" fill="white" stroke="black" stroke-miterlimit="10" stroke-linecap="round" stroke-linejoin="round"/>
<path d="M509.226 157.439L500.629 168.671L487.051 132.925L480.116 167.011C480.116 167.011 497.797 193.576 500.043 194.455C502.29 195.334 506.393 193.576 509.421 187.228C510.789 184.298 515.282 174.531 519.678 164.862C515.087 163.397 511.375 159.881 509.226 157.439Z" fill="black" stroke="black" stroke-miterlimit="10" stroke-linecap="round" stroke-linejoin="round"/>
<path d="M529.739 125.502L528.762 128.041C528.762 128.041 530.228 131.46 530.032 133.511C529.739 135.562 528.274 137.124 528.274 137.124" stroke="#263238" stroke-miterlimit="10" stroke-linecap="round" stroke-linejoin="round"/>
<path d="M540.484 117.2L534.623 125.111" stroke="#263238" stroke-miterlimit="10" stroke-linecap="round" stroke-linejoin="round"/>
<path d="M541.657 123.354L537.847 127.358" stroke="#263238" stroke-miterlimit="10" stroke-linecap="round" stroke-linejoin="round"/>
<path d="M533.158 124.428C533.158 124.428 536.968 126.967 539.996 129.702" stroke="#263238" stroke-miterlimit="10" stroke-linecap="round" stroke-linejoin="round"/>
<path d="M396.303 160.663L409.197 190.549L433.521 182.833L425.022 153.436L396.303 160.663Z" fill="black"/>
<path d="M396.303 160.663L385.851 146.892L399.136 177.266L409.197 190.549L396.303 160.663Z" fill="black"/>
<path d="M396.303 160.663C396.303 160.663 396.987 157.831 396.792 155.291C396.596 152.752 387.707 144.06 387.707 144.06L385.851 146.892L396.303 160.663Z" fill="white" stroke="black" stroke-miterlimit="10" stroke-linecap="round" stroke-linejoin="round"/>
<path d="M396.303 160.663C396.303 160.663 396.987 156.268 400.308 154.12C403.532 151.971 423.166 149.92 423.948 149.92C424.729 149.92 425.12 153.436 425.12 153.436L396.303 160.663Z" fill="white" stroke="black" stroke-miterlimit="10" stroke-linecap="round" stroke-linejoin="round"/>
<path d="M394.447 177.95C394.447 177.95 395.619 179.806 397.475 180.978C399.331 182.15 400.797 182.15 400.015 180.88C399.234 179.61 397.28 177.462 397.28 177.462C397.28 177.462 394.447 176.583 394.447 177.95Z" fill="white" stroke="#263238" stroke-miterlimit="10" stroke-linecap="round" stroke-linejoin="round"/>
<path d="M391.321 171.797C391.321 171.797 391.907 175.801 393.177 177.071C394.447 178.341 399.234 180.196 400.015 179.22C400.797 178.243 397.768 177.462 395.815 175.215C393.959 172.969 391.321 171.797 391.321 171.797Z" fill="white" stroke="#263238" stroke-miterlimit="10" stroke-linecap="round" stroke-linejoin="round"/>
<path d="M390.149 167.304C390.149 167.304 389.856 170.527 391.517 172.48C393.177 174.531 397.573 177.168 399.234 176.484C400.894 175.898 397.964 174.14 396.987 172.968C395.815 171.894 390.149 167.304 390.149 167.304Z" fill="white" stroke="#263238" stroke-miterlimit="10" stroke-linecap="round" stroke-linejoin="round"/>
<path d="M391.614 160.76C391.614 160.76 389.368 165.155 390.149 167.401C390.931 169.647 397.085 173.652 398.257 173.652C399.331 173.652 400.504 172.382 398.648 170.526C396.792 168.671 394.056 165.741 394.056 165.741L391.614 160.76Z" fill="white" stroke="#263238" stroke-miterlimit="10" stroke-linecap="round" stroke-linejoin="round"/>
<path d="M294.517 24.6123H237.86V84.4823H294.517V24.6123Z" stroke="black" stroke-miterlimit="10" stroke-linecap="round" stroke-linejoin="round"/>
<path d="M294.517 24.6123H237.86V34.965H294.517V24.6123Z" stroke="black" stroke-miterlimit="10" stroke-linecap="round" stroke-linejoin="round"/>
<path d="M266.677 76.0832C276.603 76.0832 284.651 68.0374 284.651 58.1124C284.651 48.1874 276.603 40.1416 266.677 40.1416C256.75 40.1416 248.703 48.1874 248.703 58.1124C248.703 68.0374 256.75 76.0832 266.677 76.0832Z" fill="black"/>
<path d="M277.031 58.503L261.402 49.4199V67.4884L277.031 58.503Z" fill="white"/>
<path d="M546.638 246.22C543.806 246.22 541.559 243.973 541.559 241.141V226.295C541.559 223.463 543.806 221.217 546.638 221.217C549.471 221.217 551.718 223.463 551.718 226.295V241.141C551.816 243.876 549.471 246.22 546.638 246.22Z" fill="white" stroke="black" stroke-miterlimit="10" stroke-linecap="round" stroke-linejoin="round"/>
<path d="M555.625 241.532V237.43C555.625 236.844 555.235 236.453 554.649 236.453C554.062 236.453 553.672 236.844 553.672 237.43V241.532C553.672 245.439 550.546 248.564 546.638 248.564C542.731 248.564 539.605 245.439 539.605 241.532V237.137C539.605 236.551 539.215 236.16 538.628 236.16C538.042 236.16 537.652 236.551 537.652 237.137V241.532C537.652 246.122 541.168 249.931 545.662 250.42V254.522H540.68C540.094 254.522 539.703 254.912 539.703 255.498C539.703 256.084 540.094 256.475 540.68 256.475H552.988C553.574 256.475 553.965 256.084 553.965 255.498C553.965 254.912 553.574 254.522 552.988 254.522H547.615V250.42C552.109 249.931 555.625 246.122 555.625 241.532Z" fill="black" stroke="black" stroke-miterlimit="10"/>
<path d="M413.691 283.723H449.052" stroke="black" stroke-miterlimit="10" stroke-linecap="round"/>
<path d="M413.691 292.904H449.052" stroke="black" stroke-miterlimit="10" stroke-linecap="round"/>
<path d="M413.691 302.084H449.052" stroke="black" stroke-miterlimit="10" stroke-linecap="round"/>
<path d="M413.691 311.265H449.052" stroke="black" stroke-miterlimit="10" stroke-linecap="round"/>
<path d="M278.887 114.271H314.249" stroke="black" stroke-miterlimit="10" stroke-linecap="round"/>
<path d="M278.887 123.451H314.249" stroke="black" stroke-miterlimit="10" stroke-linecap="round"/>
<path d="M278.887 132.632H314.249" stroke="black" stroke-miterlimit="10" stroke-linecap="round"/>
<path d="M278.887 141.812H314.249" stroke="black" stroke-miterlimit="10" stroke-linecap="round"/>
<path d="M399.82 298.081H345.508V331.873H399.82V298.081Z" fill="white" stroke="black" stroke-miterlimit="10" stroke-linecap="round" stroke-linejoin="round"/>
<path d="M345.508 298.081L372.664 313.903L399.917 298.081" stroke="black" stroke-miterlimit="10" stroke-linecap="round" stroke-linejoin="round"/>
</g>
<defs>
<clipPath id="clip0_1_283">
<rect width="582" height="381" fill="white"/>
</clipPath>
</defs>
</svg>
