<svg width="503" height="367" viewBox="0 0 503 367" fill="none" xmlns="http://www.w3.org/2000/svg">
<g clip-path="url(#clip0_1_86)">
<path d="M191 183.1L77.1 217.3V57.6004L191 23.4004V183.1Z" fill="black" stroke="black" stroke-miterlimit="10" stroke-linecap="round" stroke-linejoin="round"/>
<path d="M196.8 177.3L82.8 211.5V51.8002L196.8 17.7002V177.3Z" fill="white" stroke="black" stroke-miterlimit="10" stroke-linecap="round" stroke-linejoin="round"/>
<path d="M196.8 26.2002L82.8 60.3002V51.8002L196.8 17.7002V26.2002Z" fill="white" stroke="black" stroke-miterlimit="10" stroke-linecap="round" stroke-linejoin="round"/>
<path d="M101.7 66.2004C101.7 69.6004 99 73.1004 95.6 74.1004C92.2 75.1004 89.5 73.2004 89.5 69.8004C89.5 66.4004 92.2 62.9004 95.6 61.9004C99 61.0004 101.7 62.9004 101.7 66.2004Z" fill="black"/>
<path d="M139.4 128.2C139.4 128.2 94.3 151.7 91.9 155.9C89.5 160.1 85.6 210.5 85.6 210.5L195.2 177.5C195.2 177.5 193.1 130.9 190.8 128.9C188.4 127 149.3 123.6 139.4 128.2Z" fill="white" stroke="black" stroke-miterlimit="10" stroke-linecap="round" stroke-linejoin="round"/>
<path d="M107.7 150.7C112 158.8 108.6 188.8 106.5 204.1L133.4 196.1L126.3 135.1C119.8 138.6 111.8 143 105.2 146.8C106.1 147.9 106.9 149.2 107.7 150.7Z" fill="white" stroke="black" stroke-miterlimit="10" stroke-linecap="round" stroke-linejoin="round"/>
<path d="M129.6 162.9L128.8 155.8L109.7 162C109.8 164.3 109.8 166.8 109.7 169.4L129.6 162.9Z" fill="black" stroke="black" stroke-miterlimit="10" stroke-linecap="round" stroke-linejoin="round"/>
<path d="M127 140.4L105.6 147.3C106.3 148.3 107 149.4 107.7 150.7C108.1 151.5 108.5 152.5 108.7 153.6L127.8 147.4L127 140.4Z" fill="black" stroke="black" stroke-miterlimit="10" stroke-linecap="round" stroke-linejoin="round"/>
<path d="M133.2 193.4L132.4 186.3L107.9 194.2C107.6 197 107.3 199.5 107 201.9L133.2 193.4Z" fill="black" stroke="black" stroke-miterlimit="10" stroke-linecap="round" stroke-linejoin="round"/>
<path d="M108.9 184L131.3 176.7L130.5 169.6L109.5 176.4C109.3 178.9 109.1 181.5 108.9 184Z" fill="black" stroke="black" stroke-miterlimit="10" stroke-linecap="round" stroke-linejoin="round"/>
<path d="M130.8 113.8C130.8 113.8 130.6 135.5 131.1 137.2C131.6 138.8 136.8 145.5 144.2 145.5C151.6 145.5 155.6 138.5 157.2 134C158.8 129.5 159.6 114 159.6 114C159.6 114 138.5 120 130.8 113.8Z" fill="#D4D6D7" stroke="black" stroke-miterlimit="10" stroke-linecap="round" stroke-linejoin="round"/>
<path d="M137.2 116.3C134.7 115.9 132.4 115.2 130.8 113.9C130.8 113.9 130.7 126.3 130.9 133.1C140.2 131.2 152.1 125.5 152.1 125.5L137.2 116.3Z" fill="black" stroke="black" stroke-miterlimit="10" stroke-linecap="round" stroke-linejoin="round"/>
<path d="M163.2 86.5999C163.2 86.5999 167.8 80.7999 169 85.1999C170.2 89.5999 168.2 95.4999 167 97.8999C165.9 100.2 163 102.5 163 102.5L163.2 86.5999Z" fill="#D4D6D7" stroke="black" stroke-miterlimit="10" stroke-linecap="round" stroke-linejoin="round"/>
<path d="M124.6 79.6C124.6 79.6 122.6 107.5 127.6 116.4C132.6 125.3 142.9 131.8 151.2 128.2C159.5 124.6 163.5 118.5 165 110.2C166.4 101.9 167.5 78.8 166.3 74.4C165.1 70 162.5 62.7 146.3 64.9C130 67 126.2 73.7 124.6 79.6Z" fill="#D4D6D7" stroke="black" stroke-miterlimit="10" stroke-linecap="round" stroke-linejoin="round"/>
<path d="M123.1 94.8C123.1 94.8 123.5 91.5 126.4 88.3C129.3 85.1 133.1 83 131.1 78.6C129.1 74.2 135.4 72.5 137.6 71.9C139.8 71.3 144.3 75.4 150.6 73.4C156.9 71.3 160.2 67.5 163.2 69.6C166.2 71.7 165.2 79.2 165.1 80.2C165 81.2 165.8 87.8 165.8 87.8C165.8 87.8 169.3 74.4 169.7 71.5C170.1 68.6 164.1 55.8 154.3 54.1C144.5 52.4 131.2 55.9 125 63.5C118.7 71.2 119.8 76.8 120.7 81.1C121.6 85.4 120.7 90.3 120.7 90.3C120.7 90.3 121.7 97.7 123.1 94.8Z" fill="black" stroke="black" stroke-miterlimit="10" stroke-linecap="round" stroke-linejoin="round"/>
<path d="M125.2 95.8C125.2 95.8 119.2 85.5 116.4 92.3C113.6 99 119.1 108.9 121.2 109.4C123.3 109.9 125.5 107.5 125.5 107.5" fill="#D4D6D7"/>
<path d="M125.2 95.8C125.2 95.8 119.2 85.5 116.4 92.3C113.6 99 119.1 108.9 121.2 109.4C123.3 109.9 125.5 107.5 125.5 107.5" stroke="black" stroke-miterlimit="10" stroke-linecap="round" stroke-linejoin="round"/>
<path d="M140.3 94.0001C140 96.1001 139.1 97.8001 138.2 97.8001C137.3 97.8001 136.8 96.0001 137.1 93.9001C137.4 91.8001 138.3 90.1001 139.2 90.1001C140.1 90.1001 140.6 91.9001 140.3 94.0001Z" fill="black"/>
<path d="M159.4 90.9C159.1 93 158.2 94.7 157.3 94.7C156.4 94.7 155.9 92.9 156.2 90.8C156.5 88.7 157.4 87 158.3 87C159.2 87 159.7 88.8 159.4 90.9Z" fill="black"/>
<path d="M154.5 95.7002C154.5 95.7002 155.4 98.2002 154.4 100.4C153.4 102.6 151 104.5 147.4 104.4C143.8 104.3 141.8 100.4 141.8 100.4" stroke="black" stroke-miterlimit="10" stroke-linecap="round" stroke-linejoin="round"/>
<path d="M138.7 109.5C138.7 109.5 145.3 115.1 157.6 106.2" stroke="black" stroke-miterlimit="10" stroke-linecap="round" stroke-linejoin="round"/>
<path d="M133.3 86.9999C133.3 86.9999 135.7 84.4999 141.1 84.6999" stroke="black" stroke-miterlimit="10" stroke-linecap="round" stroke-linejoin="round"/>
<path d="M153.9 82.5002C153.9 82.5002 157.9 78.7002 162.5 82.2002" stroke="black" stroke-miterlimit="10" stroke-linecap="round" stroke-linejoin="round"/>
<path d="M183.9 143.5C181.8 136 180.2 130.5 179.1 127C173.9 126.5 167.5 126.1 161.3 126C162.6 128.7 164.4 134.7 165.6 147.7C166.9 161 167 176.3 166.9 186.2L187.3 180.1C187.2 169.6 186.5 153.1 183.9 143.5Z" fill="white" stroke="black" stroke-miterlimit="10" stroke-linecap="round" stroke-linejoin="round"/>
<path d="M164 135.7L180.2 130.5C179.8 129.1 179.4 127.9 179.1 126.9C176.5 126.6 173.6 126.4 170.5 126.2L162.4 128.8C163 130.6 163.5 132.8 164 135.7Z" fill="black" stroke="black" stroke-miterlimit="10" stroke-linecap="round" stroke-linejoin="round"/>
<path d="M165.9 151.2L184.3 145.2C184.2 144.6 184 144 183.9 143.4C183.4 141.6 182.9 139.9 182.5 138.4L165.3 144C165.4 145.1 165.6 146.3 165.7 147.6C165.7 148.8 165.9 150 165.9 151.2Z" fill="black" stroke="black" stroke-miterlimit="10" stroke-linecap="round" stroke-linejoin="round"/>
<path d="M186.3 158.9C186.1 156.5 185.8 154.1 185.5 151.8L166.4 158C166.5 160.4 166.6 162.9 166.7 165.3L186.3 158.9Z" fill="black" stroke="black" stroke-miterlimit="10" stroke-linecap="round" stroke-linejoin="round"/>
<path d="M187.2 175.8C187.1 173.5 187.1 171 187 168.5L167 175C167 177.6 167 180.1 167 182.4L187.2 175.8Z" fill="black" stroke="black" stroke-miterlimit="10" stroke-linecap="round" stroke-linejoin="round"/>
<path d="M348.5 19.3999H223V179.1H348.5V19.3999Z" fill="black" stroke="black" stroke-miterlimit="10" stroke-linecap="round" stroke-linejoin="round"/>
<path d="M348.5 15.7998H223V175.5H348.5V15.7998Z" fill="white" stroke="black" stroke-miterlimit="10" stroke-linecap="round" stroke-linejoin="round"/>
<path d="M348.5 15.7998H223V24.2998H348.5V15.7998Z" fill="white" stroke="black" stroke-miterlimit="10" stroke-linecap="round" stroke-linejoin="round"/>
<path d="M235.8 41.9998C239.169 41.9998 241.9 39.2687 241.9 35.8998C241.9 32.5309 239.169 29.7998 235.8 29.7998C232.431 29.7998 229.7 32.5309 229.7 35.8998C229.7 39.2687 232.431 41.9998 235.8 41.9998Z" fill="black"/>
<path d="M289.9 49.6C289.9 49.6 276 38.2 263.1 43.3C250.3 48.4 240.6 87.1 243.2 98.5C245.8 109.9 259.1 117.9 259.1 117.9C259.1 117.9 256.5 124.7 254.3 121.3C252 117.9 249.2 117.9 250.3 127.8C251.4 137.8 263.4 138.3 272.5 139.8C281.6 141.3 302.7 144.1 312.6 140.1C322.6 136.1 324.6 127 323.4 124.4C322.3 121.8 318.6 127.2 315.1 125.5C311.7 123.8 314.8 122.4 320.5 117C326.2 111.6 328.2 93.1 325.3 81.1C322.5 69.1 315.9 57.2 305.7 52.1C295.6 47.1 292.5 45.9 289.9 49.6Z" fill="black" stroke="black" stroke-miterlimit="10" stroke-linecap="round" stroke-linejoin="round"/>
<path d="M347.7 175.3L339.9 152.8L340.2 175.3H347.7Z" fill="white" stroke="black" stroke-miterlimit="10" stroke-linecap="round" stroke-linejoin="round"/>
<path d="M229 175.3L231.2 152.8L223.3 175.3H229Z" fill="white" stroke="black" stroke-miterlimit="10" stroke-linecap="round" stroke-linejoin="round"/>
<path d="M340.2 175.3L339.9 152.8L302.2 135.2L272.1 130.2L231.2 152.8L227.3 175.3H340.2Z" fill="white" stroke="black" stroke-miterlimit="10" stroke-linecap="round" stroke-linejoin="round"/>
<path d="M277.5 123.9C277.5 123.9 273.9 118.5 271.2 120.6C268.5 122.7 257.4 131.1 259.8 137.8C262.2 144.4 277.3 152.5 287.2 152.5C297.1 152.5 308 139.3 308.3 137.8C308.6 136.3 300.8 124.9 299.6 124.3C298.3 123.6 286.3 125.4 277.5 123.9Z" fill="white" stroke="black" stroke-miterlimit="10" stroke-linecap="round" stroke-linejoin="round"/>
<path d="M276 132.7C276 132.7 281.4 150.1 295.5 149.2L276 132.7Z" fill="white"/>
<path d="M276 132.7C276 132.7 281.4 150.1 295.5 149.2" stroke="black" stroke-miterlimit="10" stroke-linecap="round" stroke-linejoin="round"/>
<path d="M276 115.2V132.7C276 132.7 280.8 136.3 287.1 136.6C293.4 136.9 296.7 132.1 296.7 132.1V115.2C296.8 115.2 280.6 118.5 276 115.2Z" fill="white" stroke="black" stroke-miterlimit="10" stroke-linecap="round" stroke-linejoin="round"/>
<path d="M266.9 94.1002C266.9 94.1002 264.8 88.6002 263.2 94.1002C261.7 99.6002 269.9 107.8 269.9 104.5C269.9 101.1 266.9 94.1002 266.9 94.1002Z" stroke="white" stroke-miterlimit="10" stroke-linecap="round" stroke-linejoin="round"/>
<path d="M305.1 94.1002C305.1 94.1002 307.2 88.6002 308.8 94.1002C310.3 99.6002 302.1 107.8 302.1 104.5C302 101.1 305.1 94.1002 305.1 94.1002Z" stroke="white" stroke-miterlimit="10" stroke-linecap="round" stroke-linejoin="round"/>
<path d="M286.3 64.2998C286.3 64.2998 265.8 82.6998 264.9 87.1998C264 91.6998 270.3 111.9 272.7 114.9C275.1 117.9 280.2 122.4 286.2 122.4C292.2 122.4 294.9 120.3 298.5 114.9C302.1 109.5 305.1 94.6998 304.8 88.6998C304.5 82.6998 286.3 64.2998 286.3 64.2998Z" fill="white" stroke="black" stroke-miterlimit="10" stroke-linecap="round" stroke-linejoin="round"/>
<path d="M271.2 87.4999C271.2 87.4999 277.2 86.5999 279.9 90.7999" stroke="black" stroke-miterlimit="10" stroke-linecap="round" stroke-linejoin="round"/>
<path d="M290.8 91.3999C290.8 91.3999 293.5 87.4999 299.2 88.0999" stroke="black" stroke-miterlimit="10" stroke-linecap="round" stroke-linejoin="round"/>
<path d="M276.4 92.6C277.394 92.6 278.2 91.7941 278.2 90.8C278.2 89.8059 277.394 89 276.4 89C275.406 89 274.6 89.8059 274.6 90.8C274.6 91.7941 275.406 92.6 276.4 92.6Z" fill="black" stroke="black" stroke-miterlimit="10"/>
<path d="M294 92.6C294.994 92.6 295.8 91.7941 295.8 90.8C295.8 89.8059 294.994 89 294 89C293.006 89 292.2 89.8059 292.2 90.8C292.2 91.7941 293.006 92.6 294 92.6Z" fill="black" stroke="black" stroke-miterlimit="10"/>
<path d="M280.8 103.5C280.8 103.5 282.6 105.7 284.7 105.7C286.8 105.7 289.9 103.8 290.2 102.9" stroke="black" stroke-miterlimit="10" stroke-linecap="round" stroke-linejoin="round"/>
<path d="M277.3 107C277.3 107 280.3 109.2 284.9 109.5C289.4 109.8 292.1 107.8 292.1 107.8" stroke="black" stroke-miterlimit="10" stroke-linecap="round" stroke-linejoin="round"/>
<path d="M271.5 83.3996C271.5 83.3996 274.7 80.8996 279.5 82.5996" stroke="black" stroke-miterlimit="10" stroke-linecap="round" stroke-linejoin="round"/>
<path d="M289.9 83.1998C289.9 83.1998 294.4 80.3998 299.1 84.3998" stroke="black" stroke-miterlimit="10" stroke-linecap="round" stroke-linejoin="round"/>
<path d="M382 184.5L495.9 218.6V59.0003L382 24.8003V184.5Z" fill="black" stroke="black" stroke-miterlimit="10" stroke-linecap="round" stroke-linejoin="round"/>
<path d="M377.8 177.3L491.8 211.5V51.8002L377.8 17.7002V177.3Z" fill="white" stroke="black" stroke-miterlimit="10" stroke-linecap="round" stroke-linejoin="round"/>
<path d="M377.8 26.2002L491.8 60.3002V51.8002L377.8 17.7002V26.2002Z" fill="white" stroke="black" stroke-miterlimit="10" stroke-linecap="round" stroke-linejoin="round"/>
<path d="M384.7 39.5004C384.7 42.9004 387.4 46.4004 390.8 47.4004C394.2 48.4004 396.9 46.5004 396.9 43.1004C396.9 39.7004 394.2 36.2004 390.8 35.2004C387.4 34.2004 384.7 36.1004 384.7 39.5004Z" fill="black" stroke="white" stroke-miterlimit="10"/>
<path d="M455.5 66.6004C455.5 66.6004 455.3 66.1004 454.9 65.4004C453.3 62.2004 448.4 53.7004 442.4 50.6004C434.9 46.7004 425 45.1004 426.3 47.8004C427.5 50.6004 429.9 52.2004 429.9 52.2004C429.9 52.2004 414.1 50.3004 408.9 53.9004C403.7 57.5004 401.3 60.8004 404.2 60.8004C407 60.8004 407 60.8004 407 60.8004C407 60.8004 393.8 75.0004 393.3 81.6004C392.8 88.3004 399.3 89.9004 399.3 89.9004C399.3 89.9004 402.2 103.8 404.6 107.7C407 111.6 408.4 109.9 408.4 109.9C408.4 109.9 416.1 118.5 423 121.8C429.9 125.1 438.3 124.8 449 124C459.6 123.2 464.4 122.6 466.8 114.5C469.3 106.5 469.8 99.0004 469.8 99.0004C469.8 99.0004 472.8 104.3 472.9 99.0004C472.9 93.7004 472.1 81.5004 468.8 77.4004C465.5 73.2004 461.2 70.2004 461.2 70.2004C461.2 70.2004 467.4 71.3004 463.3 67.7004C463.2 67.7004 458.6 65.2004 455.5 66.6004Z" fill="black" stroke="black" stroke-miterlimit="10" stroke-linecap="round" stroke-linejoin="round"/>
<path d="M391.4 134.9L380 177.6L392.4 181.5L391.4 134.9Z" fill="black" stroke="black" stroke-miterlimit="10" stroke-linecap="round" stroke-linejoin="round"/>
<path d="M470.9 146.5L484.8 209L469.6 204.5L470.9 146.5Z" fill="black" stroke="black" stroke-miterlimit="10" stroke-linecap="round" stroke-linejoin="round"/>
<path d="M426 121.3L391.4 134.9L392.4 181.5L469.6 204.5L470.9 146.5L442.9 123.7L426 121.3Z" fill="black" stroke="black" stroke-miterlimit="10" stroke-linecap="round" stroke-linejoin="round"/>
<path d="M419.4 188.8L432.6 193L445.3 125.7L442.9 123.7L426 121.3L422 122.8L419.4 188.8Z" fill="white" stroke="black" stroke-miterlimit="10" stroke-linecap="round" stroke-linejoin="round"/>
<path d="M424.1 116.6C424.1 116.6 424.7 136.3 427.1 140.5C429.5 144.7 443.4 127.7 444.4 125.2C445.4 122.7 447.8 113.3 447.8 113.3C447.8 113.3 433.2 119.4 430.3 118.6C427.5 117.7 424.1 116.6 424.1 116.6Z" fill="white" stroke="black" stroke-miterlimit="10" stroke-linecap="round" stroke-linejoin="round"/>
<path d="M447.8 113.2C447.8 113.2 442.9 115.3 438.2 116.8L432.8 122.6H445.2C446.3 118.9 447.8 113.2 447.8 113.2Z" fill="black" stroke="black" stroke-miterlimit="10" stroke-linecap="round" stroke-linejoin="round"/>
<path d="M440.7 73.5005L416.8 86.8005C416.8 86.8005 417.7 100.4 418.2 105.7C418.7 111 424.9 124 428.9 124.6C432.9 125.2 448.4 115.1 450.3 112.4C452.1 109.6 453.2 101.6 453.2 101.6C453.2 101.6 441.1 82.7005 440.7 73.5005Z" fill="white" stroke="black" stroke-miterlimit="10" stroke-linecap="round" stroke-linejoin="round"/>
<path d="M429.3 95.2007L428.7 99.6007C428.7 99.6007 425.9 99.9007 426.6 101.801C427.2 103.701 430.2 106.201 433.9 102.601" stroke="black" stroke-miterlimit="10" stroke-linecap="round" stroke-linejoin="round"/>
<path d="M424.7 106.8C424.7 106.8 425.7 110.1 430.2 110.4C434.7 110.7 437.4 108.5 437.4 108.5" stroke="black" stroke-miterlimit="10" stroke-linecap="round" stroke-linejoin="round"/>
<path d="M441.2 97.9004C441.1 99.5004 440.5 100.7 439.9 100.7C439.3 100.6 438.9 99.3004 439 97.7004C439.1 96.1004 439.7 94.9004 440.3 94.9004C440.9 95.0004 441.3 96.3004 441.2 97.9004Z" fill="black" stroke="black" stroke-miterlimit="10"/>
<path d="M425.8 93.8003C425.7 95.4003 425.1 96.6003 424.5 96.6003C423.9 96.5003 423.5 95.2003 423.6 93.6003C423.7 92.0003 424.3 90.8003 424.9 90.8003C425.5 90.8003 425.9 92.2003 425.8 93.8003Z" fill="black" stroke="black" stroke-miterlimit="10"/>
<path d="M422.2 86.9004C422.2 86.9004 426.3 84.7004 429.3 87.7004" stroke="black" stroke-miterlimit="10" stroke-linecap="round" stroke-linejoin="round"/>
<path d="M435.5 89.6003C435.5 89.6003 442.5 89.3003 444.4 93.8003" stroke="black" stroke-miterlimit="10" stroke-linecap="round" stroke-linejoin="round"/>
<path d="M271.5 155.4C271.5 155.4 269.4 155.1 269.4 157.8C269.4 160.5 270.8 163.6 273.1 164.4C275.4 165.2 274.9 161.7 274.3 160.3C273.6 158.9 271.5 155.4 271.5 155.4Z" fill="white" stroke="black" stroke-miterlimit="10"/>
<path d="M296.6 155.4C296.6 155.4 298.7 155.1 298.7 157.8C298.7 160.5 297.3 163.6 295 164.4C292.7 165.2 293.2 161.7 293.8 160.3C294.5 158.9 296.6 155.4 296.6 155.4Z" fill="white" stroke="black" stroke-miterlimit="10"/>
<path d="M263.5 266.7L265.1 348.7L263.5 350.8L264.2 355.4C264.2 355.4 261.9 352.7 259.4 353.8C256.9 354.9 260.5 361.3 264.2 363.6C267.9 365.9 269.2 367.5 271.3 365.7C273.4 363.9 273.1 357.7 273.1 357.7C273.1 357.7 274.5 353.4 274.5 351.8C274.5 350.2 274.5 347 274.5 347C274.5 347 277 345.4 277 341.3C277 337.2 284.1 271.4 284.1 271.4L262.6 263.4L263.5 266.7Z" fill="black" stroke="black" stroke-miterlimit="10" stroke-linecap="round" stroke-linejoin="round"/>
<path d="M311.2 266.7L309.6 348.7L311.2 350.8L310.5 355.4C310.5 355.4 312.8 352.7 315.3 353.8C317.8 354.9 314.2 361.3 310.5 363.6C306.8 365.9 305.5 367.5 303.4 365.7C301.3 363.9 301.6 357.7 301.6 357.7C301.6 357.7 300.2 353.4 300.2 351.8C300.2 350.2 300.2 347 300.2 347C300.2 347 297.7 345.4 297.7 341.3C297.7 337.2 290.6 271.4 290.6 271.4L312.1 263.4L311.2 266.7Z" fill="black" stroke="black" stroke-miterlimit="10" stroke-linecap="round" stroke-linejoin="round"/>
<path d="M275.2 178.1C275.2 178.1 256.5 189.3 256.2 190.7C256 192.1 263.1 236.6 263.1 236.6L260.1 264.3C260.1 264.3 267.9 276.2 286.4 275.3C304.9 274.4 314.7 265.9 314.7 265.9L309.9 233.2L313.3 189.1L293.4 178.6L275.2 178.1Z" fill="white" stroke="black" stroke-miterlimit="10" stroke-linecap="round" stroke-linejoin="round"/>
<path d="M298.4 227.5C293.4 233.6 286.5 240.9 280.3 244.7" stroke="black" stroke-miterlimit="10" stroke-linecap="round" stroke-linejoin="round"/>
<path d="M306 217.7C306 217.7 304.8 219.4 302.7 222.1" stroke="black" stroke-miterlimit="10" stroke-linecap="round" stroke-linejoin="round"/>
<path d="M290.8 241.3C290.8 241.3 278.6 253.5 271.9 256.9" stroke="black" stroke-miterlimit="10" stroke-linecap="round" stroke-linejoin="round"/>
<path d="M276.9 168.2V177.2H291.1V168.5L276.9 168.2Z" fill="white" stroke="black" stroke-miterlimit="10"/>
<path d="M284 133C284 133 277.3 133.3 272.4 138C267.5 142.7 268.6 148.2 269.8 152.6C271 157 275.4 169.1 277.3 170C279.1 170.9 288.6 171.8 291 170.3C293.4 168.8 298.2 156.7 298.5 148.5C298.7 140.3 294.2 132.2 284 133Z" fill="black" stroke="black" stroke-miterlimit="10"/>
<path d="M295.5 180.4H272.4L273.3 174.3H294.6L295.5 180.4Z" fill="white" stroke="black" stroke-miterlimit="10"/>
<path d="M234.1 198C234.1 198 232.5 194.8 231.4 191.4C230.3 188 228 186.6 227.1 185.5C226.2 184.4 224.4 183 223.7 181.8C223 180.7 221.6 182.7 222.3 184.1C223 185.5 223 185.5 223 185.5C223 185.5 220.5 184.4 220.5 183.7C220.5 183 221.9 179.1 219.8 180C217.7 180.9 217.7 186.9 218.2 188.9C218.7 191 228.7 196.2 228.7 196.2L230.8 200.3L234.1 198Z" fill="white" stroke="black" stroke-miterlimit="10" stroke-linecap="round" stroke-linejoin="round"/>
<path d="M222.9 185.4L226.3 188.8" stroke="black" stroke-miterlimit="10" stroke-linecap="round" stroke-linejoin="round"/>
<path d="M256.2 190.6L250.9 214.4L233.5 195.7L227.8 198.7C227.8 198.7 249.3 237.8 252.3 237.5C255.3 237.2 261.9 227 261.9 227L256.2 190.6Z" fill="white" stroke="black" stroke-miterlimit="10" stroke-linecap="round" stroke-linejoin="round"/>
<path d="M337.8 198C337.8 198 339.4 194.8 340.5 191.4C341.6 188 343.9 186.6 344.8 185.5C345.7 184.4 347.5 183 348.2 181.8C348.9 180.7 350.3 182.7 349.6 184.1C348.9 185.5 348.9 185.5 348.9 185.5C348.9 185.5 351.4 184.4 351.4 183.7C351.4 183 350 179.1 352.1 180C354.2 180.9 354.2 186.9 353.7 188.9C353.2 191 343.2 196.2 343.2 196.2L341.1 200.3L337.8 198Z" fill="white" stroke="black" stroke-miterlimit="10" stroke-linecap="round" stroke-linejoin="round"/>
<path d="M349 185.4L345.6 188.8" stroke="black" stroke-miterlimit="10" stroke-linecap="round" stroke-linejoin="round"/>
<path d="M313.4 189L320.9 214.4L338.3 195.7L344 198.7C344 198.7 322.5 237.8 319.5 237.5C316.5 237.3 309.9 227 309.9 227L313.4 189Z" fill="white" stroke="black" stroke-miterlimit="10" stroke-linecap="round" stroke-linejoin="round"/>
<path d="M122.4 244.3H110.4V272.4H122.4V244.3Z" fill="black"/>
<path d="M137.5 231.6H125.5V272.5H137.5V231.6Z" fill="black"/>
<path d="M152.7 237.9H140.7V272.4H152.7V237.9Z" fill="black"/>
<path d="M168.2 255.8H156.2V272.4H168.2V255.8Z" fill="black"/>
<path d="M183.6 222.7H171.6V272.4H183.6V222.7Z" fill="black"/>
<path d="M199.1 248.7H187.1V272.4H199.1V248.7Z" fill="black"/>
<path d="M106.2 233.1V272.4H202.9" stroke="black" stroke-miterlimit="10" stroke-linecap="round" stroke-linejoin="round"/>
<path d="M379.6 227.1C364 227.1 351.3 239.8 351.3 255.4C351.3 271 364 283.7 379.6 283.7C395.2 283.7 407.9 271 407.9 255.4C408 239.8 395.3 227.1 379.6 227.1ZM379.6 264.5C374.6 264.5 370.6 260.5 370.6 255.5C370.6 250.5 374.6 246.5 379.6 246.5C384.6 246.5 388.6 250.5 388.6 255.5C388.6 260.5 384.6 264.5 379.6 264.5Z" stroke="black" stroke-miterlimit="10" stroke-linecap="round" stroke-linejoin="round"/>
<path d="M399.2 235L385.1 248.3C387.2 249.9 388.6 252.5 388.6 255.4C388.6 257.2 388.1 258.9 387.1 260.3L402.5 272C405.9 267.3 407.9 261.6 407.9 255.4C408 247.4 404.6 240.2 399.2 235Z" stroke="black" stroke-miterlimit="10" stroke-linecap="round" stroke-linejoin="round"/>
<path d="M465.1 275.5C476.2 264.4 476.2 246.5 465.1 235.5C454 224.4 436.1 224.4 425.1 235.5C414 246.6 414 264.5 425.1 275.5C436.1 286.5 454.1 286.5 465.1 275.5ZM438.7 249.1C442.2 245.6 447.9 245.6 451.4 249.1C454.9 252.6 454.9 258.3 451.4 261.8C447.9 265.3 442.2 265.3 438.7 261.8C435.2 258.3 435.2 252.6 438.7 249.1Z" fill="black"/>
<path d="M445.7 283.7L446.2 264.3C443.5 264.6 440.7 263.8 438.7 261.7C437.4 260.4 436.6 258.8 436.3 257.2L417.2 259.8C418.1 265.5 420.7 271 425.1 275.4C430.8 281.2 438.3 283.9 445.7 283.7Z" fill="white"/>
<path d="M351.9 330.1L370.8 315.6L393.8 329.4L422.6 305.9L452.1 326.9L466.7 310.4" stroke="black" stroke-linecap="round" stroke-linejoin="round"/>
<path d="M469.5 314.8L471.5 305.1L462 308.2L469.5 314.8Z" fill="black"/>
<path d="M370.8 319.3C372.843 319.3 374.5 317.644 374.5 315.6C374.5 313.557 372.843 311.9 370.8 311.9C368.757 311.9 367.1 313.557 367.1 315.6C367.1 317.644 368.757 319.3 370.8 319.3Z" fill="white" stroke="black" stroke-miterlimit="10" stroke-linecap="round" stroke-linejoin="round"/>
<path d="M393.8 333C395.843 333 397.5 331.344 397.5 329.3C397.5 327.257 395.843 325.6 393.8 325.6C391.757 325.6 390.1 327.257 390.1 329.3C390.1 331.344 391.757 333 393.8 333Z" fill="white" stroke="black" stroke-miterlimit="10" stroke-linecap="round" stroke-linejoin="round"/>
<path d="M422.6 309.6C424.643 309.6 426.3 307.944 426.3 305.9C426.3 303.857 424.643 302.2 422.6 302.2C420.557 302.2 418.9 303.857 418.9 305.9C418.9 307.944 420.557 309.6 422.6 309.6Z" fill="white" stroke="black" stroke-miterlimit="10" stroke-linecap="round" stroke-linejoin="round"/>
<path d="M452.1 330C454.143 330 455.8 328.344 455.8 326.3C455.8 324.257 454.143 322.6 452.1 322.6C450.057 322.6 448.4 324.257 448.4 326.3C448.4 328.344 450.057 330 452.1 330Z" fill="white" stroke="black" stroke-miterlimit="10" stroke-linecap="round" stroke-linejoin="round"/>
<path d="M106.2 292.2V331.5H205.6" stroke="black" stroke-miterlimit="10" stroke-linecap="round" stroke-linejoin="round"/>
<path d="M189.8 331.5L153.5 296.8L136.3 324.3L123.9 304L107 331.5H189.8Z" fill="black" stroke="black" stroke-miterlimit="10"/>
<path d="M198 331.5L173.7 296.8L149.1 324.3L131.3 304L107 331.5H198Z" stroke="black" stroke-miterlimit="10" stroke-linecap="round" stroke-linejoin="round"/>
<path d="M117.8 332V335.9" stroke="black" stroke-miterlimit="10" stroke-linecap="round" stroke-linejoin="round"/>
<path d="M132.2 332V335.9" stroke="black" stroke-miterlimit="10" stroke-linecap="round" stroke-linejoin="round"/>
<path d="M146.6 332V335.9" stroke="black" stroke-miterlimit="10" stroke-linecap="round" stroke-linejoin="round"/>
<path d="M161 332V335.9" stroke="black" stroke-miterlimit="10" stroke-linecap="round" stroke-linejoin="round"/>
<path d="M175.4 332V335.9" stroke="black" stroke-miterlimit="10" stroke-linecap="round" stroke-linejoin="round"/>
<path d="M189.8 332V335.9" stroke="black" stroke-miterlimit="10" stroke-linecap="round" stroke-linejoin="round"/>
<path d="M31.6 320.3L33.1 340.1C33.1 343.1 37.5 345.5 42.9 345.5C48.3 345.5 52.7 343.1 52.7 340.1L54.2 320.3H31.6Z" fill="black"/>
<path d="M43 326.6C49.2408 326.6 54.3 323.779 54.3 320.3C54.3 316.821 49.2408 314 43 314C36.7592 314 31.7 316.821 31.7 320.3C31.7 323.779 36.7592 326.6 43 326.6Z" fill="black"/>
<path d="M5.2 243.3C7.7 244.4 13.7 244.2 13.7 244.2C13.8 244.2 12.4 240.2 12.3 240C11 237.2 6.8 232.6 3.3 233.1C0.799998 233.4 -0.500002 235.9 -2.23517e-06 238.2C0.699998 240.6 3.1 242.4 5.2 243.3Z" fill="black"/>
<path d="M7.30001 260.9C9.90001 261.3 15.3 259.7 15.7 259.6C16.6 262.6 17.7 265.7 19 268.7C19.7 270.4 20.5 272.1 21.4 273.8C20.9 273.1 20.5 272.4 20.4 272.4C18.4 270.1 13.1 266.8 9.90001 268.1C7.60001 269.1 6.90001 271.8 8.10001 273.9C9.30001 276 12.1 277.1 14.4 277.4C16.7 277.7 21.3 276.5 22.6 276.1C22.9 276.8 23.2 277.4 23.6 278.1C25.2 281.2 26.7 284.3 28.2 287.4C28.7 288.5 29.2 289.6 29.6 290.7C29.2 290.1 28.8 289.5 28.7 289.4C26.7 287.1 21.4 283.8 18.2 285.1C15.9 286.1 15.2 288.8 16.4 290.9C17.6 293 20.4 294.1 22.7 294.4C24.9 294.7 29.2 293.6 30.6 293.2C31 294.3 31.5 295.5 31.9 296.6C32.1 297.4 32.4 298.1 32.6 298.9C32.8 299.7 33 300.4 33.2 301.2C33.6 302.7 33.9 304.2 34.2 305.6C34.4 306.6 34.6 307.6 34.8 308.5C34.3 307.4 33.3 305.3 33.2 305.1C31.6 302.5 26.9 298.4 23.5 299.3C21.1 299.9 20 302.5 20.8 304.8C21.6 307.1 24.3 308.6 26.5 309.2C28.9 309.9 34.3 309.3 35 309.2C35.3 310.8 35.6 312.4 35.9 313.8C36.5 317.1 36.9 320 37.2 322.5H39.5C39.1 319.9 38.6 316.9 37.9 313.5C37.6 311.9 37.2 310.1 36.8 308.4C37.2 308.2 39.5 307.3 41.5 306.2C43.3 308.1 47.8 310.4 48.4 310.6C47.8 312.1 47.2 313.6 46.6 315C45.3 317.9 44.2 320.4 43.1 322.6H45.5C46.4 320.6 47.4 318.3 48.4 315.8C49 314.3 49.7 312.6 50.3 310.9C50.9 311 56.3 312.1 58.7 311.6C60.9 311.1 63.7 309.8 64.7 307.6C65.7 305.4 64.8 302.7 62.4 302C59.1 300.9 54.1 304.6 52.3 307.1C52.2 307.2 51.2 309 50.6 310.1C50.9 309.4 51.1 308.7 51.4 308C51.9 306.6 52.4 305.1 52.9 303.6C53.1 302.8 53.4 302.1 53.6 301.3C53.8 300.5 54 299.7 54.2 298.9C54.6 297 55 295.1 55.3 293.2C56.5 293.7 61 295.2 63.3 295C65.6 294.8 68.5 294 69.8 292C71.1 290 70.6 287.2 68.4 286.1C65.3 284.5 59.8 287.4 57.6 289.6C57.5 289.7 56.1 291.5 55.3 292.4C55.5 291.2 55.7 290.1 55.8 288.9C56.2 285.5 56.5 282 56.9 278.5C57 277.4 57.1 276.4 57.2 275.3C57.6 275.5 62.9 277.4 65.5 277.2C67.8 277 70.7 276.2 72 274.2C73.3 272.2 72.8 269.4 70.6 268.3C67.5 266.7 62 269.6 59.9 271.8C59.7 272 57.7 274.5 57.3 275.1C57.5 272.8 57.8 270.4 58.2 268.2C58.7 265.1 59.3 262 60.2 259.1C60.4 259.2 65.9 261.2 68.5 261.1C70.8 260.9 73.7 260.1 75 258.1C76.3 256.1 75.8 253.3 73.6 252.2C70.5 250.6 65 253.5 62.9 255.7C62.7 255.9 60.6 258.6 60.2 259.1C60.3 258.9 60.3 258.7 60.3 258.6C61.2 255.5 62.6 252.6 63.9 250C64.7 248.5 65.5 247 66.4 245.7C67.4 246.2 71.9 248.4 74.3 248.5C76.6 248.6 79.6 248.1 81.1 246.2C82.6 244.4 82.5 241.5 80.4 240.2C77.5 238.3 71.7 240.6 69.3 242.5C69.2 242.6 68 243.8 67.1 244.7C67.5 244.1 67.9 243.5 68.3 242.9C69.7 240.7 71.2 238.8 72.5 237.1C73.2 236.2 73.9 235.3 74.6 234.5C75.8 234.5 80.7 234.3 82.8 233.3C84.9 232.3 87.3 230.5 87.8 228.1C88.3 225.8 86.9 223.3 84.4 223.1C81 222.7 76.9 227.4 75.6 230.2C75.5 230.4 74.2 234.4 74.3 234.4H74.4C73.8 235.1 73.1 235.9 72.3 236.8C71 238.4 69.5 240.3 68 242.5C66.5 244.6 64.9 247 63.5 249.7C62.1 252.4 60.7 255.2 59.7 258.4V258.5C59.7 257.5 59.7 254.7 59.6 254.4C59.2 251.3 56.6 245.7 53.2 245C50.8 244.5 48.7 246.5 48.5 248.8C48.3 251.2 50.1 253.7 51.8 255.2C53.7 256.9 59.1 258.6 59.5 258.7C58.5 261.7 57.8 264.8 57.2 268.1C56.9 269.9 56.6 271.8 56.3 273.7C56.3 272.8 56.3 272 56.3 271.9C55.9 268.8 53.3 263.2 49.9 262.5C47.5 262 45.4 264 45.2 266.3C45 268.7 46.8 271.2 48.5 272.7C50.2 274.3 54.8 275.8 56 276.2C55.9 276.9 55.8 277.6 55.7 278.4C55.3 281.9 54.9 285.3 54.4 288.7C54.2 289.9 54 291.1 53.8 292.2C53.8 291.4 53.8 290.8 53.8 290.7C53.4 287.6 50.8 282 47.4 281.3C45 280.8 42.9 282.8 42.7 285.1C42.5 287.5 44.3 290 46 291.5C47.7 293 51.9 294.4 53.3 294.9C53 296.1 52.8 297.3 52.5 298.4C52.3 299.2 52.1 299.9 51.9 300.7C51.7 301.5 51.4 302.2 51.2 303C50.7 304.4 50.2 305.9 49.6 307.3C49.2 308.3 48.9 309.2 48.5 310.1C48.7 308.9 49 306.6 49 306.4C49 304.4 48.3 301 46.9 298.7C46.9 298.4 46.9 298.1 46.8 297.8C46.4 295.4 44.2 293.7 41.8 294.3C38.5 295.2 36.4 301 36.2 304.1C36.2 304.3 36.3 306.3 36.4 307.5C36.2 306.8 36.1 306.1 35.9 305.3C35.6 303.8 35.2 302.4 34.7 300.8C34.5 300 34.2 299.3 34 298.5C33.8 297.7 33.5 297 33.2 296.2C32.5 294.4 31.8 292.6 31 290.8C32.3 290.5 36.9 289.3 38.7 287.9C40.5 286.5 42.5 284.2 42.4 281.8C42.4 279.4 40.5 277.3 38 277.6C34.6 278 31.6 283.4 31 286.5C31 286.7 30.8 288.9 30.7 290.1C30.2 289 29.7 288 29.2 286.9C27.7 283.8 26 280.7 24.4 277.7C23.9 276.8 23.4 275.8 22.9 274.9C23.4 274.8 28.8 273.5 30.9 272C32.7 270.6 34.7 268.3 34.6 265.9C34.6 263.5 32.7 261.5 30.2 261.7C26.8 262.1 23.8 267.5 23.2 270.6C23.2 270.8 22.9 274 22.8 274.8C21.7 272.7 20.7 270.6 19.7 268.5C18.4 265.6 17.2 262.7 16.3 259.8C16.5 259.8 22.2 258.5 24.3 256.8C26.1 255.4 28.1 253.1 28 250.7C28 248.3 26.1 246.3 23.6 246.5C20.2 246.9 17.2 252.3 16.6 255.4C16.6 255.6 16.2 259.1 16.2 259.7C16.1 259.5 16.1 259.4 16 259.2C15.1 256.1 14.6 253 14.3 250C14.1 248.3 14 246.6 14 245C15.1 244.9 20 244.2 22.1 243C24.1 241.8 26.2 239.7 26.5 237.3C26.7 234.9 25.1 232.7 22.6 232.7C19.1 232.7 15.6 237.8 14.6 240.7C14.5 240.9 14.2 242.5 14 243.8C14 243.1 14 242.3 14 241.6C14 239 14.2 236.6 14.3 234.5C14.4 233.3 14.5 232.2 14.6 231.2C15.6 230.5 19.6 227.7 20.8 225.7C22 223.7 23 220.9 22.1 218.6C21.2 216.4 18.7 215.1 16.5 216.3C13.4 217.9 12.6 224.1 13.1 227.1C13.1 227.4 14.3 231.4 14.4 231.4C14.4 231.4 14.4 231.4 14.5 231.4C14.4 232.4 14.2 233.4 14.1 234.6C13.9 236.7 13.7 239.1 13.6 241.7C13.5 244.3 13.5 247.2 13.8 250.2C14.1 253.2 14.5 256.4 15.4 259.5V259.6C14.9 258.7 13.3 256.4 13.1 256.2C11.1 253.9 5.80001 250.6 2.60001 251.9C0.300012 252.9 -0.399988 255.6 0.800012 257.7C2.20001 259.5 5.00001 260.5 7.30001 260.9Z" fill="black"/>
<path d="M66.5 244.7C66.6 244.7 67.6 240.7 67.6 240.4C68 237.3 67.1 231.2 63.9 229.7C61.7 228.6 59.2 229.9 58.3 232.2C57.5 234.5 58.5 237.3 59.8 239.2C61.4 241.4 66.5 244.7 66.5 244.7Z" fill="black"/>
<path d="M43 325.3C47.9153 325.3 51.9 323.061 51.9 320.3C51.9 317.538 47.9153 315.3 43 315.3C38.0847 315.3 34.1 317.538 34.1 320.3C34.1 323.061 38.0847 325.3 43 325.3Z" fill="black"/>
<path d="M494.6 0H438.6C434.1 0 430.4 3.7 430.4 8.2V33.3C430.4 37.8 434.1 41.5 438.6 41.5H487.1L485.2 49.2L494.8 41.5C499.2 41.4 502.8 37.8 502.8 33.3V8.2C502.8 3.7 499.1 0 494.6 0Z" fill="black"/>
<path d="M447.7 24.5001C449.743 24.5001 451.4 22.8436 451.4 20.8001C451.4 18.7566 449.743 17.1001 447.7 17.1001C445.657 17.1001 444 18.7566 444 20.8001C444 22.8436 445.657 24.5001 447.7 24.5001Z" fill="white"/>
<path d="M466.6 24.5001C468.643 24.5001 470.3 22.8436 470.3 20.8001C470.3 18.7566 468.643 17.1001 466.6 17.1001C464.557 17.1001 462.9 18.7566 462.9 20.8001C462.9 22.8436 464.557 24.5001 466.6 24.5001Z" fill="white"/>
<path d="M485.5 24.5001C487.543 24.5001 489.2 22.8436 489.2 20.8001C489.2 18.7566 487.543 17.1001 485.5 17.1001C483.457 17.1001 481.8 18.7566 481.8 20.8001C481.8 22.8436 483.457 24.5001 485.5 24.5001Z" fill="white"/>
<path d="M183.6 50.7998H228.5C232.1 50.7998 235.1 53.6998 235.1 57.3998V77.4998C235.1 81.0998 232.2 84.0998 228.5 84.0998H189.6L179.6 90.2998L183.5 84.0998C179.9 83.9998 177.1 81.0998 177.1 77.4998V57.3998C177 53.7998 180 50.7998 183.6 50.7998Z" fill="white" stroke="black" stroke-miterlimit="10" stroke-linecap="round" stroke-linejoin="round"/>
<path d="M221.2 70.5996C222.857 70.5996 224.2 69.2565 224.2 67.5996C224.2 65.9428 222.857 64.5996 221.2 64.5996C219.543 64.5996 218.2 65.9428 218.2 67.5996C218.2 69.2565 219.543 70.5996 221.2 70.5996Z" fill="black"/>
<path d="M206 70.5996C207.657 70.5996 209 69.2565 209 67.5996C209 65.9428 207.657 64.5996 206 64.5996C204.343 64.5996 203 65.9428 203 67.5996C203 69.2565 204.343 70.5996 206 70.5996Z" fill="black"/>
<path d="M190.9 70.5996C192.557 70.5996 193.9 69.2565 193.9 67.5996C193.9 65.9428 192.557 64.5996 190.9 64.5996C189.243 64.5996 187.9 65.9428 187.9 67.5996C187.9 69.2565 189.243 70.5996 190.9 70.5996Z" fill="black"/>
</g>
<defs>
<clipPath id="clip0_1_86">
<rect width="502.8" height="367" fill="white"/>
</clipPath>
</defs>
</svg>
